<?xml version="1.0" encoding="utf-8"?>
<!-- Generator: Adobe Illustrator 27.4.0, SVG Export Plug-In . SVG Version: 6.00 Build 0)  -->
<svg version="1.1" id="Livello_1" xmlns="http://www.w3.org/2000/svg" xmlns:xlink="http://www.w3.org/1999/xlink" x="0px" y="0px"
	 viewBox="0 0 272.1 155.9" style="enable-background:new 0 0 272.1 155.9;" xml:space="preserve">
<style type="text/css">
	.st0{fill:#47363A;}
	.st1{fill:#976B4C;}
	.st2{fill:#684B2A;}
	.st3{fill:#562E2A;}
	.st4{fill:#637950;}
	.st5{fill:#486137;}
	.st6{fill:#AFAD8F;}
	.st7{fill:#496037;}
	.st8{fill:#8DBA79;}
	.st9{fill:#5E834A;}
	.st10{fill:#303823;}
	.st11{fill:#3A5021;}
	.st12{fill:#BA654C;}
	.st13{clip-path:url(#SVGID_00000016055241163154143940000002521436106832930462_);}
	.st14{fill:#C99733;}
	.st15{fill:#728144;}
	.st16{fill:#57642E;}
	.st17{fill:#8D533D;}
	.st18{fill:#623A28;}
	.st19{clip-path:url(#SVGID_00000134935019248019074940000000790780266328943748_);}
	.st20{fill:#434E41;}
	.st21{fill:#6D7D62;}
</style>
<rect x="197.9" y="122.7" class="st0" width="26.7" height="32.3"/>
<polyline class="st1" points="0,118.6 260.5,118.6 260.5,136.8 0,136.8 "/>
<polyline class="st2" points="0,126.2 260.5,126.2 260.5,141 0,141 "/>
<path class="st3" d="M243.2,91l-17.6-0.8c-0.6,0-1.1,0-1.7,0h-16.6c-2.3,0.1-4.1,1.9-4.1,4.2v21.1c0,2.4,1.7,4.5,4,5l8.6,2.2
	c5.2,1.2,10.7,1.2,15.9,0.1l10.7-2.7c1.7-0.4,2.9-1.8,3-3.6l0.7-22.5C246,92.4,244.8,91.1,243.2,91z"/>
<path class="st4" d="M170.3,118c1.3-1.2,6.9-2.8,7.6-1.3c1.6,3.3,1.5,11.1-3.9,12C167.5,129.2,165.6,121.8,170.3,118z"/>
<path class="st5" d="M174,119.7c-1.3,2.1-1.9,4.6-1.6,7.1c0,0.1-0.1,0.2-0.2,0.1c-0.8-1.5-0.3-3.4,0.3-5c0.8-1.8,1.8-4.5,4-5.2
	C175.5,117.6,174.7,118.6,174,119.7z"/>
<g>
	<path class="st4" d="M219.5,128.6c0.1-1.4-1.5-5.8-2.8-5.5c-2.9,0.6-7.9,4.4-5.8,8.3C213.7,135.8,219.4,133.5,219.5,128.6z"/>
	<path class="st5" d="M216.7,127.1c-0.7,1.9-2.1,3.4-3.8,4.5c0,0-0.1,0.2,0,0.2c1.3-0.2,2.4-1.4,3.1-2.6c0.7-1.4,2.1-3.3,1.4-5
		C217.3,125.1,217.1,126.1,216.7,127.1z"/>
</g>
<path class="st6" d="M242.1,75.8c4.6,7.2,4,14,12.7,18.1c3.3,0.5-6.4-3.8-7.3-8.6c-2.5-6.7-6.3-14.5-12.5-18.1
	C237.1,69.8,240.4,72.6,242.1,75.8z"/>
<path class="st6" d="M246.7,90.2c-0.4,1-0.5,2.1-1,3.1c-0.1,0.5-1.7,2.4-0.7,2.7c1.4-1.8,2.2-3.9,2.5-6.1c0.1-0.7,0.6-2.1-0.1-2.6
	C246.8,88,247.1,89.3,246.7,90.2z"/>
<path class="st6" d="M252.3,112.6c1.2,9.8-10.8-0.1-11.6,7.3c0,3.1,0.3,2.1-3.2,2.1c-3.1,0-19.5-3-22,1.2c2,6.1-5.6-4.6-9.3,2.5
	c-0.2,2.4,0.7,1,1.3,0.4c2.3-2.9,7.4,2.5,9.7,0.2c0-9,25.9,0.1,25.9-5c0-6.5,8.4-0.7,9.6-4.5c1.3-4.1,0.6-4.1,0.1-8.1
	c-0.9-6.8-1.6-15.2-4.9-21C250,95.8,251.6,104.1,252.3,112.6z"/>
<path class="st6" d="M225.6,123.1c-0.2,0.8,0.1,1.6,0,2.3c0,0.1-0.2,1.4,0.1,1.8c0.4,0.2,0.7,0.2,0.7-0.3c0.1-1.9,0.1-3.8-0.1-5.7
	C225.5,120.2,225.6,122.7,225.6,123.1z"/>
<path class="st6" d="M256.6,83.9c-1.3-0.7-2.9-1-4.2-1.6c-0.2,0-3.4-2-3.7-0.7c3.5,1.7,7.2,3,11,4C262,85.7,257,84.1,256.6,83.9z"/>
<path class="st6" d="M238.9,60.8c-0.1,1.6-0.6,3.1-1.3,4.6c-0.2,0.6-2.1,2.9-1.7,3.6c0.5,1.2,3.3-4.9,3.3-5.6
	c0.6-1.8,0.8-5.9-1.1-6.8C238.2,57.9,239.1,59.3,238.9,60.8z"/>
<path class="st6" d="M240,54.8c-1-0.4-2.6,2.6-1.6,3c0.3,0.1,0.5,0.1,0.5-0.2c0.1-1.4,0.9-2.7,2.4-1.5c0.6,0.1,0.3-0.8-0.1-0.9
	C240.9,54.9,240.4,54.8,240,54.8z"/>
<path class="st6" d="M248.4,67.7c-2.4,0.9-7.5,3-7.2,6.2c1,1.1,0.4-2.3,3.3-3.4c3.2-2,5.1-2.9,8.8-2.2
	C252.4,66.9,249.9,67.3,248.4,67.7z"/>
<path class="st6" d="M236.4,75.4c2.4-3.2,3.9-1,4.5-2.4c-2.6-1.6-5.3,1.3-6.1,3.7c-0.1,0.3,0.2,0.9,0.6,0.7c0.1-0.1,0-0.2,0.1-0.3
	C235.7,76.5,236,75.9,236.4,75.4z"/>
<path class="st7" d="M248.4,92.8c-0.5-1-1.6-1.5-2.7-1.5c-8.4,0.2-14.5,10.3-10.1,17.6C243.8,118.5,257.6,106.2,248.4,92.8z"/>
<path class="st8" d="M265.3,94.2c-1.7-2-3.9-3.5-6.3-4.4c-2.3-0.6-5.6-0.8-7.1,0.4c-6.4,6.9,0.4,19.2,9.4,18.7
	C270.3,109.6,270.6,99.2,265.3,94.2z"/>
<path class="st7" d="M242.6,81c-2.2-11.3-13.8-6.6-14.5,2.4c-1.1,7.1,5.2,11.4,11.4,7.9C242.8,89.2,243.4,84.7,242.6,81z"/>
<path class="st4" d="M254.7,75.8c-7.2-6.7-19-0.7-13.6,9C247.6,95.6,263.9,85.7,254.7,75.8z"/>
<path class="st7" d="M270.4,81c-3.5-3.1-9,0-10.9,3.5c-0.4,0.6-0.4,1.3-0.1,1.9C263.7,95.5,276.8,89.3,270.4,81z"/>
<path class="st9" d="M229.7,137.3c3.6-4.5,0.3-10.3-3.4-13.7c-3.9-0.3-7.9,3.4-8.7,7.2C215.7,138,225.3,145.1,229.7,137.3z"/>
<path class="st9" d="M250.2,58.4c-1.8-3.3-6.2-3.6-9.5-2.6C237.7,68.2,253.8,66.8,250.2,58.4z"/>
<path class="st8" d="M231.8,50.3c-2.6,0-5,2.2-5.8,4.6c-0.1,2.2,2.1,4.1,3.9,5.1c3.3,1.4,6.8-0.8,9.1-3.1
	C237.7,54,235.2,50.5,231.8,50.3z"/>
<path class="st9" d="M237.9,63.2c-0.7-0.7-1.7-1-2.6-0.9l0.2,0.1c-3,0.2-6.1,2.5-6.4,5.6c0.4,2.9,3.7,5.2,6.5,5.3
	C241.6,72.9,241.4,66.5,237.9,63.2z"/>
<path class="st9" d="M258.6,66.8c-1.7-0.5-7.3,0.7-7.1,2.5c0.3,4.1,4.1,12,9.1,10.1C266.4,76.7,264.4,68.2,258.6,66.8z"/>
<path class="st10" d="M235.6,81c-0.9,3.4-1.2,6.9-1,10.4c0.7,1.5,0.3-4.8,0.7-5.3c0.1-3.4,1.5-6.8,2.1-10
	C236.4,77.3,236.1,79.4,235.6,81z"/>
<path class="st10" d="M243.6,98.3c-1.4,3.8-3.3,8.7-2.9,12.6c0.1,0.1,0.1,0.3,0.2,0.1c0.2-2.3,0.6-4.5,1.2-6.7
	c0.9-4.1,3.2-8,4.2-11.9C245.2,94.1,244.5,96.5,243.6,98.3z"/>
<path class="st10" d="M264,85c2.8-0.6,5.1-0.3,7.1,1.9c0.1,0,0.2,0.1,0.2-0.1c-0.7-1.8-3-2.6-4.8-2.6c-2.3,0-4.5,0.5-6.5,1.5
	C261.4,85.9,262.8,85.2,264,85z"/>
<g>
	<path class="st7" d="M240.1,136.4c10.4,1,8.3-14.6-1.6-15.5c-3.9,1.3-5.3,7.6-3.2,11.6C236.6,134.3,238,135.8,240.1,136.4z"/>
	<path class="st10" d="M238.4,126.9c0.4,3,1.3,6.6,3.4,8.9c1.2,0.6-1.4-2.5-1.3-3c-1.6-3.3-1.5-7.3-2.4-10.6
		C237.8,123.5,238.3,125.4,238.4,126.9z"/>
</g>
<g>
	<path class="st7" d="M218.5,123.1c2.6-3.1-0.4-7-4-7.1c-4.1-0.8-10.6,3-4.7,6.1C215.5,124.7,218.5,123.1,218.5,123.1z"/>
	<path class="st10" d="M215.6,119.2c-0.8-0.8-6.1-3.1-6.5-1.6c3.2,0.1,6.9,1.5,8.6,4.3c0,0,0.1,0.1,0.1,0
		C218,120.7,216.4,119.8,215.6,119.2z"/>
</g>
<path class="st5" d="M234.2,65.4c-0.5,0.6-1.6,6.1-0.5,6c0.2-2.8,0.3-5.9,2.5-8.1c0.2-0.4-0.3-0.2-0.5,0.1
	C235,63.9,234.5,64.6,234.2,65.4z"/>
<path class="st9" d="M234.8,54.6c-1.2-0.7-8.3-0.8-8.3,0.7c3.7-1.2,7.7-0.8,11.2,1c0.6,0.4,0.6,0,0.1-0.4
	C236.8,55.3,235.8,54.9,234.8,54.6z"/>
<path class="st5" d="M244.4,58.3c0.8,0.9,1.5,1.8,2.2,2.8c0.3,0.3,1.2,2.3,1.7,2.4c0.8,0-2.1-3.7-2.4-4.1c-0.9-1.2-2.7-3.2-4.3-2.6
	C242.7,57.1,243.6,57.6,244.4,58.3z"/>
<path class="st5" d="M256.2,70.4c2.2,1.6,3.9,3.8,4.8,6.3c0.1,0,0.2,0.1,0.2,0c0-1.9-1.4-3.6-2.7-4.9c-1.6-1.4-3.7-3.7-5.9-3.2
	C253.9,69,255.1,69.6,256.2,70.4z"/>
<path class="st5" d="M246.8,77.5c3.6,1.9,5,4.5,7.2,7.4c0.1,0,0.2,0.1,0.2,0c-1-2.2-2.5-4.2-4.3-5.8c-2.1-1.8-5.3-3.7-8.1-3.2
	C243.4,76.4,245.4,76.6,246.8,77.5z"/>
<path class="st9" d="M257.9,95.8c3.5,2.8,6.7,5.9,7.5,10.6c0.1,0.1,0.2,0.3,0.2,0.1c0-1.7-0.5-3.4-1.4-4.8c-1.6-2.9-4.3-4.9-6.8-6.9
	c-1.4-1-3-2.8-4.6-3.4C254.1,93,256.3,94.4,257.9,95.8z"/>
<g>
	<path class="st9" d="M247.2,101.3c-5.1-0.9-8.4,5.2-7.7,9.7c0.4,3,1.7,5.8,3.7,8.1c4.2-1.5,8.3-5,8.7-9.6
		C252.2,106.4,250.5,102.3,247.2,101.3z"/>
	<path class="st5" d="M243.7,112.7c0.3-3.4,2.1-6.4,4.8-8.5c0-0.1,0.1-0.2-0.1-0.2c-2.2,0.9-3.6,3.2-4.4,5.3
		c-0.9,2.7-1.2,5.6-0.9,8.4C243.6,116.3,243.4,114.3,243.7,112.7z"/>
</g>
<g>
	<path class="st8" d="M205.1,134.7c5.4,1.9,9.8-4,7.9-9c-0.2-0.7-0.8-1.2-1.5-1.2C207.3,124,199.8,131.7,205.1,134.7z"/>
	<path class="st9" d="M208.5,128.5c-0.8,0.8-4.4,5.1-3,5.9c1-3.1,3-5.8,5.6-7.6c0,0,0.2-0.1,0.1-0.2
		C210.2,126.5,209.3,127.8,208.5,128.5z"/>
</g>
<path class="st5" d="M225.7,129.4c-0.1,2.8-0.6,5.5-1.6,8.1c-0.1,0-0.3,0.1-0.1,0.2c1.2-0.1,1-2,1.4-2.9c0.7-3,1.3-6.8,0.3-9.7
	C225.4,126.5,225.8,128,225.7,129.4z"/>
<path class="st6" d="M220.3,83.6c1.1,0.9,2.2,1.9,3.1,3c-0.3,0-0.7,0-1,0.1c-1.8-1.9-4-3.5-6-5.3c-2-1.5-4.3-2.4-6.8-2.7
	C213.1,77.1,217.8,81.4,220.3,83.6z"/>
<path class="st6" d="M212.6,89.7c2.5-1.2,5.1-2,7.8-0.6c0.1,0,0.5-0.1,0.5-0.3c-3.3-3-8.6-0.3-11.4,2.2c-0.3,0.2-0.5,1,0.1,0.7l0,0
	c0,0,0,0.1,0,0C210.5,90.9,211.5,90.2,212.6,89.7z"/>
<path class="st6" d="M213.7,91.6c-0.1-0.5-1.8-2.2-2.3-1.9c-0.2,0.2-0.5,0.5-0.1,0.7c0.9,0.6,1.7,1.4,2.2,2.3
	c0.3,0.5,1.1,0.3,0.7-0.3C214,92,213.8,91.8,213.7,91.6z"/>
<path class="st6" d="M192.4,84.5c2.4-2.2,5.6-3.8,8.9-2.7c3.3,0.9,6.4,2.4,9.1,4.4l-0.3-0.1c-0.5-0.1-1-0.1-1.4,0
	c-4.6-3.1-9.6-5.3-14.3-2.2c-3,2.4-6.8,4.5-9.3,7.4c-0.2,0.2-0.5,1.2-0.6,0.6C185.5,88.3,189.9,86.9,192.4,84.5z"/>
<path class="st6" d="M210.6,95.5c-1-4.5-5-7-9.3-8.1c-0.7-0.3-1.3-0.3-1.6-0.8c-0.1-0.1-0.2-0.3,0-0.4c5.1,0.6,10.8,3.8,11.7,9.2
	c0.3,2.3-0.1,5.7-2.7,6.4c-0.1,0-0.2,0-0.1-0.1C210.4,100.2,211.2,97.8,210.6,95.5z"/>
<path class="st6" d="M188.9,98.6c1.7-4.1,1.4-8.7,2.4-13.1c0-0.1-0.1-0.4-0.3-0.2c-1.6,1.9-1.1,4.7-1.6,7c-0.3,3.2-1.2,6.3-2.6,9.2
	c-0.3,0.8-1.4,2.3-1.3,3C187.3,103.2,188.1,100.5,188.9,98.6z"/>
<path class="st6" d="M180.2,117.4c-1.2-1-3.3-2-2.5-4c-0.1-0.1,0-0.5-0.2-0.5c-1.9,0.8-0.3,3.4,0.9,4.1c0.8,0.7,3.3,2.5,4.3,1.7
	C182.2,118,180.9,118,180.2,117.4z"/>
<path class="st7" d="M191.9,116.4c-3.4-2.1-8.8-2.5-11.3,1.2c0.7,4.1,3.2,8.7,7.3,10.1C193.9,128.9,196.5,119.6,191.9,116.4z"/>
<path class="st8" d="M225.5,94.3c-6-7-11.7-3.8-11.7-3.8c-2.6,6.7,2.3,16,9.9,15.9C229.3,105.2,229,97.7,225.5,94.3z"/>
<path class="st8" d="M197.8,81.2c-2.7,2.6-3.9,8.4,0.5,9.8C204.7,91.6,204.9,82,197.8,81.2z"/>
<path class="st4" d="M185.7,91.6c-5.3-2.4-14,4.6-7.6,9.4C184.4,105.3,192.8,92.8,185.7,91.6z"/>
<path class="st10" d="M185.7,119.1c1.7,0.6,3.3,1.5,4.6,2.6c0.8,0.6,1.8,2,2.4,2.2c0.8-0.4-3.5-3.8-4.2-4c-2.1-1-4.8-2.3-7-1.8
	C182.7,118.6,184.4,118.6,185.7,119.1z"/>
<path class="st6" d="M176.8,113.6c1.9-0.5,6.4-3.8,6.1-5.8c-0.3-1-2.1,2.8-3.1,3c-1.3,1.2-2.9,2-4.6,2.5c-0.8,0.3-2.2,0.1-2.7,0.8
	C173.8,114.8,175.6,114,176.8,113.6z"/>
<path class="st8" d="M171.1,106.3c-4.5-3.2-10.8,1.6-8.2,6.7c2.5,4.3,8.5,3.3,12.2,1C174.4,111.1,173.5,108,171.1,106.3z"/>
<path class="st9" d="M171.1,111.7c-0.9-0.5-7.4-3.4-7.6-2.3c2.7,0.8,5.4,1.7,7.9,2.9C176.2,115.2,174.2,113.1,171.1,111.7z"/>
<path class="st5" d="M182.1,94c-1.9,1.4-4,4.6-2.6,6.9c0.1,0,0.2,0.1,0.2,0c-0.3-1.8,0.1-3.6,1.2-5c1.3-1.5,2.9-2.7,4.7-3.6
	C184.6,91.8,183,93.5,182.1,94z"/>
<path class="st9" d="M199.4,84.7c1.1,2.9,0.2,3.2,0.2,5.5c0.7,0.5,0.9-3.6,0.7-4.1c-0.3-1.4-0.9-3.2-2-4
	C198.3,83,199.1,83.9,199.4,84.7z"/>
<path class="st9" d="M217.5,97.6c1.1,1.7,2.4,3.4,3.8,4.9c0.5,0.5,2.9,3.3,3.7,3.4s-1.8-1.9-1.9-2.2c-3.4-3.2-5.7-7.3-8.2-11
	C215.2,94.3,216.6,96.1,217.5,97.6z"/>
<path class="st9" d="M195.6,82.8c-2.2-5.8-12.3-5.1-14,0.6c-0.9,3.1,2.1,5.1,5.2,4.7C190.4,87.9,193.7,85.9,195.6,82.8z"/>
<path class="st5" d="M189.9,81.5c-2.9-0.2-5.8,1-7.8,3.2c-0.1,0.7,0.5-0.1,0.7-0.3c0.9-0.9,1.9-1.5,3.1-1.9c2.6-1.2,5.7-0.6,8.2,0.2
	C193,81.9,191.2,81.7,189.9,81.5z"/>
<path class="st7" d="M197.2,95.1c-1.3-1.2-6.9-2.8-7.6-1.3c-1.6,3.3-1.5,11.1,3.9,12C200,106.2,202,98.8,197.2,95.1z"/>
<path class="st10" d="M193.5,96.8c1.3,2.1,1.9,4.6,1.6,7.1c0,0.1,0.1,0.2,0.2,0.1c0.8-1.5,0.3-3.4-0.3-5c-0.8-1.8-1.8-4.5-4-5.2
	C192,94.6,192.8,95.6,193.5,96.8z"/>
<path class="st6" d="M217.4,77.8c-0.7,1.8-0.7,7.4,1.1,8.3c1,0.3-1-3.3-0.6-4.3c-0.2-1.7,0-3.5,0.6-5.2c0.2-0.8,1.2-1.8,1-2.7
	C218.3,74.6,217.9,76.6,217.4,77.8z"/>
<path class="st8" d="M227.5,75.6c5.2-1.8,5-9.7-0.6-10.6c-5-0.5-7.7,5-7.9,9.3C221.7,75.6,224.8,76.6,227.5,75.6z"/>
<path class="st9" d="M223.6,73c0.9-0.4,7-4,6.3-4.9c-2.2,1.8-4.5,3.4-7,4.7C217.8,75.2,220.6,74.8,223.6,73z"/>
<path class="st9" d="M225.1,79.2c-5.7-2.6-10.4,3.6-11.4,8.7C223.4,95.9,234.1,84.9,225.1,79.2z"/>
<path class="st5" d="M218.7,85.2c2.6-1.4,5.5-2.5,8.2-0.6c0.1,0,0.2,0,0.2-0.1c-0.7-1-1.9-1.5-3.1-1.5c-3.5,0.2-6.8,1.9-9,4.6
	C216.2,87,217.4,85.8,218.7,85.2z"/>
<path class="st7" d="M204.5,88.9c-2.2-4.2,2.1-8.8,6-9.7c0.6-0.2,1.3-0.1,1.9,0.3C220.2,85.7,211.1,97,204.5,88.9z"/>
<path class="st5" d="M209.9,83.6c-1.3,2.6-1.5,4.9,0.1,7.4c0,0.1,0,0.2-0.1,0.2c-1.5-1.1-1.8-3.5-1.4-5.2c0.6-2.2,1.6-4.2,3-6
	C211.4,81.2,210.4,82.4,209.9,83.6z"/>
<path class="st9" d="M185.6,103c-4.2,0.9-8.6,4.9-8,9.4c1,3.5,5.8,6.8,8.9,3.8C190,111.9,188.3,106.6,185.6,103z"/>
<path class="st5" d="M183,107.7c-0.8,2.3-1.6,5.9-0.7,8.1c0.1,0,0.2,0.1,0.2,0c-0.2-1.8-0.1-3.6,0.2-5.4c0.3-2.2,1.7-4.3,2.3-6.2
	C184.1,104.9,183.5,106.5,183,107.7z"/>
<path class="st7" d="M213,80.7c0.9,0.1,1.9-0.3,2.4-1.1c4.4-5.9,0.6-15.6-6.8-16.5C197.6,63.8,198.8,80,213,80.7z"/>
<path class="st10" d="M211.7,74.4c-1.8-3-4.3-6.9-7.2-8.8c-0.1,0-0.3,0-0.2,0.1c1.5,1.3,2.8,2.8,4,4.4c2.4,2.8,3.9,6.5,6,9.3
	C213.6,77.7,212.8,76,211.7,74.4z"/>
<path class="st7" d="M239.5,55.1c-3.8-1.2-3.5-6.1-0.5-8.1c2.9-2.9,10.5-3.3,7.3,2.6C243,54.8,239.5,55.1,239.5,55.1z"/>
<path class="st10" d="M239.9,50.9c0.2-1.2,3.4-6,4.6-5c-2.6,1.8-4.9,5-4.8,8.3c0,0.1,0,0.1-0.1,0.1
	C238.7,53.5,239.5,51.9,239.9,50.9z"/>
<path class="st6" d="M218.9,112.8c0.1-1.1-3.2-1.8-3.4-0.7c-0.1,0.3,0.1,0.5,0.4,0.4c1.4-0.3,2.9,0.1,2.2,1.8c0.1,0.6,0.8,0,0.9-0.3
	C219.1,113.7,219.1,113.2,218.9,112.8z"/>
<path class="st7" d="M211.1,97.5c-7,2.7-6.5,13.6,0.1,16.6C221.2,116.1,221.1,100.7,211.1,97.5z"/>
<path class="st10" d="M210.8,103.1c0.1,1.9,0.5,3.8,1.1,5.7c0.2,0.6,1.1,3.9,1.7,4.3s-1-3.1-1-3.6c-1.4-3.7-1.7-7.6-1.1-11.5
	C210.7,98.5,210.8,101.8,210.8,103.1z"/>
<path class="st9" d="M219.8,124.9c-4.7-1.2-6.1-8-1.4-11.3c0.5-0.5,1.3-0.5,1.9-0.2C223.8,115.3,225.6,125.3,219.8,124.9z"/>
<path class="st5" d="M220.8,117c0.3,1.3,0.9,7.6-0.9,7.4c1-3.6,0.8-7.4-0.5-10.8c0-0.1,0-0.2,0-0.2C220.5,114,220.6,115.8,220.8,117
	z"/>
<path class="st11" d="M120.4,37.9c0.7,5.6,1.5,11.2,2,16.7c0.1,1.5,1.4,16.1,2.4,20.1c0.1,0.2,0.3,0.5,0.4,0.7
	c0.2,0.2,0.6,0.9,0.7,0.2c0-1.5-0.1-3-0.2-4.5c-0.1-1.2-1.1-9.6-1.4-12.5c-0.3-2.6-1.3-12.2-1.5-14.4l-0.3-2.3
	c-0.4-3.6-0.7-7.2-1.1-10.8c-0.2-1.9-2.1-19.6-2.2-22.4c0-0.6,0-1.2,0-1.9c0-0.2-0.2-1.2-0.3-1c-0.6,1.4-0.9,2.9-0.8,4.4
	c-0.1,1.9,0,3.7,0.1,5.6C118.3,17.5,120.1,35.1,120.4,37.9z"/>
<path class="st11" d="M128.2,33.7c0,0.1-0.2,3.3-0.3,4.7s-0.1,2.7-0.1,4.1c0,5.5,0,11-0.1,16.3c0,0.4,0,1.5-0.1,3.2s0,3.6,0,5.8
	c0,3.6,0.1,7.2,0.6,10.7c0.1,0.2,0.2,0.5,0.4,0.7c0.2,0.2,0.6,0.9,0.7,0.2c0.1-1.4,0.2-2.9,0.1-4.3c0-1.2,0-2.4,0-3.6
	c0-1.4-0.1-2.8-0.1-4.3s-0.1-2.8-0.1-4.2c0-2.5,0.1-5,0.2-7.5c0-2.2,0-4.4,0-6.5v-2.3c0-1.8,0.1-3.5,0.1-5.3s0.1-3.5,0.2-5.3
	s0-3.8,0.1-5.6c0.1-5.3,0.8-10.9,0.6-16.3c0-0.6,0-1.2,0-1.8c0-0.2-0.3-1.2-0.4-1c-0.5,1.3-0.8,2.8-0.8,4.2
	c-0.1,1.8-0.3,3.5-0.4,5.4s-0.2,3.6-0.3,5.5C128.5,28.4,128.3,33.4,128.2,33.7z"/>
<path class="st12" d="M99.6,60.3c18.6-2.4,38-1.3,56.7,1.3c2.3,0.3,3.9,2.4,3.7,4.7c-1.5,12.5-0.2,34.6-7.9,46.5
	c-2.1,2.6-5.1,4-6.8,7c-0.7,1.7-1.6,3.4-3.6,3.1l-30.7-0.6c-2,0.2-2.7-1.6-3.4-3.3c-6.8-8.5-8-11.5-9.2-23
	C98.6,88.3,91.2,63,99.6,60.3z"/>
<g>
	<defs>
		<path id="SVGID_1_" d="M99.6,60.3c18.6-2.4,38-1.3,56.7,1.3c2.3,0.3,3.9,2.4,3.7,4.7c-1.5,12.5-0.2,34.6-7.9,46.5
			c-2.1,2.6-5.1,4-6.8,7c-0.7,1.7-1.6,3.4-3.6,3.1l-30.7-0.6c-2,0.2-2.7-1.6-3.4-3.3c-6.8-8.5-8-11.5-9.2-23
			C98.6,88.3,91.2,63,99.6,60.3z"/>
	</defs>
	<clipPath id="SVGID_00000154413717988557124620000017124791904201531786_">
		<use xlink:href="#SVGID_1_"  style="overflow:visible;"/>
	</clipPath>
	<g style="clip-path:url(#SVGID_00000154413717988557124620000017124791904201531786_);">
		<path class="st14" d="M156.9,100.4c-2.7-0.2-5.3-1.1-7.5-2.6c-1.6-1.1-3-2.5-4.9-3.2c-4.4-2.1-7.9,5.6-11.6,2.3
			c-1.2-1.5-1.5-3.6-2.8-5c-2.4-2.6-6.5-2-9.4-0.7c-4.8,2.3-9.2,7.9-15.1,5.8c-2.7-0.9-5.1-2.7-7.8-3.7c0,0.2,0,0.5,0.1,0.7
			c4.7,2.3,9.9,6,15.1,2.8c3-1.5,5.4-3.9,8.6-5.2c2.5-0.9,5.8-1.4,7.9,0.7c1.4,1.4,1.6,3.7,3,5.1c2.7,2.7,5.9-0.7,8.3-2
			c5-2.5,7.8,5.3,16.5,5.6c0.1-0.2,0.1-0.5,0.2-0.7L156.9,100.4z"/>
		<path class="st14" d="M155.4,106.9c-4.4-1.8-6.2-0.6-10,1.5c-2.6,0.8-3.2-2.6-5-3.8c-5.9-3.8-6.9,3.6-11.6,3
			c-4.8-0.9-4.2-9.1-11.1-7.1c-2.2,0.7-3.3,2.9-3.9,5c-1.4,2.4-4.9,0.2-6.5-1.1c-2.3-2.7-5.8-3.6-8.3-0.7c0.1,0.2,0.1,0.4,0.2,0.6
			c2.4-2.7,5.5-2,7.7,0.6c1.8,1.5,5.2,3.5,7.2,1.5c1-1.8,1.3-4.2,3.4-5c6.8-2.8,6.3,7.4,12.2,7c4.1-0.3,5.6-6.6,10.4-3.2
			c1.6,1.3,2.5,4.5,5.2,3.9c4.4-1.8,4.8-3.6,10.3-1.5c0.1-0.3,0.1-0.5,0.2-0.8L155.4,106.9z"/>
		<path class="st14" d="M96.4,81.7c1.8-1.1,3-3.6,5.3-3.7c4.6-0.2,4.2,7.6,8,7.1c3-0.9,3.4-4.7,5.9-6.4c6.1-3.3,7.2,7.5,12.8,7.3
			c3.7,0,5.1-4.1,7.3-6.3c8.1-8.3,12.8,12.1,23.9,6.7c0,0.2-0.1,0.4-0.1,0.7c-11.8,5.7-16.5-16.9-24.4-5.3
			c-2.2,3.9-6.1,7.1-10.4,3.6c-3.5-3.3-6.3-10.9-10.8-3.4c-2.2,4.2-6,6-8.2,0.5c-0.8-1.8-2.5-4.5-4.8-3.4c-1.7,0.8-2.7,2.8-4.4,3.6
			c0-0.3-0.1-0.6-0.2-0.8L96.4,81.7z"/>
	</g>
</g>
<path class="st15" d="M171.6,33.9c-4.3-3.5-10.4-6.2-15.7-4.2h0.1c-5.9,3-8.9,6.3-11.3,12.1c-1.7,4.2-0.3,10.6,0.4,15
	c1.3,7.6,6.1,12.5,13.2,16.5c4.6,2.6,9.9,6.4,15.3,5.3c3.6-0.8,6.7-3,8.6-6.2c1.7-3,2.7-6.4,2.7-9.9
	C185.2,51.5,180.2,40.9,171.6,33.9z"/>
<path class="st16" d="M146.3,55.5c-0.2,0.4-0.3,0.8-0.4,1.3C146,56.4,146.2,56,146.3,55.5z"/>
<path class="st16" d="M157.9,36c-0.1-0.6-0.5-1.4-1.2-1.2l-0.2,0.3l-6.9,7.7c-1.1,1.1-2,2.3-2.6,3.7c-1.2,2.9,0,6.2-0.7,9.1
	c1.4-3.3,4.2-6,6.8-8.8C155.9,43.6,158.5,39.9,157.9,36z"/>
<path class="st16" d="M160.1,41.7l-0.5,0.1c-0.4,1.5-1.8,2.6-2.9,3.8c-2,2.3-3.6,5-4.7,7.9c-0.7,1.5-1.2,3.1-1.3,4.7
	c0,1.7,0.4,3.4,1,4.9l2.1,6.5c-1.3-3.6,0.3-7.5,1.8-11c1.3-2.9,2.5-5.8,3.8-8.8C160.5,47.2,161.6,44.2,160.1,41.7z"/>
<path class="st16" d="M163.5,50.3l-0.2,0.1c-5.4,7.3-5.6,17.2-0.4,24.7C160.8,66.9,166.6,58.1,163.5,50.3z"/>
<path class="st16" d="M171.5,68c-0.1-2.7-1-5.3-2.5-7.6l-0.3,0.6c-0.6,0.7-1,1.4-1.3,2.2c-0.3,0.8-0.5,1.7-0.6,2.5
	c-0.4,1.8-0.2,3.8,0.6,5.5c0.7,1.1,1.6,2.1,2.6,2.9l3,2.6c-1-1.2-1.5-2.7-1.5-4.2C171.4,71,171.6,69.5,171.5,68z"/>
<path class="st16" d="M176.7,64.3c-1.8-0.6-3.9-0.3-5.6-1.1L171,63c1,2.2,2,4.5,4.2,5.9c0.8,0.5,1.7,0.9,2.5,1.4
	c1.3,0.8,2.3,2,2.8,3.4c0.3-1.8,0.2-3.6-0.2-5.4C179.8,66.5,178.5,65,176.7,64.3z"/>
<path class="st16" d="M177.3,56.4c-3.4-2.5-7.4-3.8-11.6-4l0.1,0.4c1.3,3.6,4.1,6.5,7.7,7.8c2.6,1,5.7,1.3,7.6,3.2
	c0.7,0.8,1.3,1.7,1.7,2.6C182.5,62.5,180.5,58.8,177.3,56.4z"/>
<path class="st16" d="M178.1,50.2c-1.9-2-4.3-3.5-6.9-4.3c-2.7-0.8-5.4-1.4-8.2-1.7c-0.5-0.1-1-0.1-1.3,0.3
	c-0.1,0.3-0.1,0.6,0.1,0.9c0.3,0.8,0.7,1.5,1.2,2.2l-0.1-0.6c2.5,3,6.7,4.2,10.7,5.3c3.5,1,7.3,2.4,9.3,5.1l-3.1-4.8
	C179.2,51.8,178.7,50.9,178.1,50.2z"/>
<path class="st16" d="M163.4,37.7c-1.8-0.2-3.9,0-5.3-1.1l-0.2,0.3c2.1,4.5,6.4,7.5,11.4,7.8c1.9,0.1,3.9-0.2,5.7,0.6
	c0.7,0.4,1.4,0.8,2,1.3c1.4,1.1,2.8,2.3,4.1,3.5c-0.3-0.6-0.7-1.1-1.1-1.6c-2.1-2.6-4.5-5-7.1-7C170.1,39.4,166.9,38.1,163.4,37.7z"
	/>
<path class="st16" d="M156.7,34c1.1,0.6,2.3,0.9,3.5,0.8c1.2-0.1,2.5-0.1,3.7,0c1.2,0.2,2.4,0.6,3.5,1.1c2.3,1,4.6,2,6.2,3.8
	c-2.5-2.9-5.2-6-9-7.3c-1.2-0.4-2.4-0.6-3.6-1c-0.8-0.3-1.6-0.6-2.4-0.8c-0.8-0.2-1.7,0-2.4,0.6l-0.4-0.2
	C155.3,32.1,155.7,33.4,156.7,34z"/>
<path class="st16" d="M155.8,31.7l-0.1-0.1c-3.6,1.3-6.3,4-7,7C151.8,37.3,154.4,34.8,155.8,31.7z"/>
<path class="st16" d="M161.5,46.2l0.1,0.2c0.1,0.1,0.1,0.2,0.1,0.3c0.7,1.8,1.5,3.6,2.3,5.5s1.8,3.6,2.9,5.3s2,3.4,2.9,5.2
	c0.2,0.5,1.5,3,2.6,5.9c0.6,1.4,1.1,2.9,1.6,4.2s0.9,2.4,1.2,3.1c0.1,0.2,0.3,0.3,0.4,0.4c0.2,0.1,0.6,0.5,0.6,0.1
	c-0.1-1.1-0.4-2.1-0.7-3.1c-0.2-0.8-0.5-1.7-0.8-2.6c-0.7-2-1.6-3.9-2.5-5.8c-0.8-1.7-1.6-3.3-2.5-5c-0.8-1.4-1.6-2.8-2.4-4.2
	c-0.3-0.5-0.5-1-0.8-1.4c-1.1-2.3-2.1-4.7-3.2-7c-0.6-1.2-1.2-2.5-1.8-3.7c-1.6-3.5-3-7.4-5-10.9l-0.6-1.2c-0.1-0.1-0.2-0.3-0.3-0.4
	c-0.2-0.2-0.3-0.3-0.3-0.1c0.1,1,0.4,2.1,0.9,3c0.5,1.2,1,2.4,1.5,3.6s1,2.4,1.6,3.7c0.7,1.4,1.3,2.9,1.9,4.3L161.5,46.2z"/>
<path class="st15" d="M121.7,48.2c-1.9-6.7-4.9-10.8-11.5-15.2h0.1c-6.1-3.2-13.9-1.5-19.8,1.4c-11.9,6-19.9,16.6-21.3,28.2
	c-0.6,3.8-0.1,7.7,1.5,11.2c1.8,3.9,5.2,6.9,9.2,8.3c6.3,2.2,13.4-0.8,19.5-2.8c9.4-3,16.1-7.2,19-15.2
	C120.2,59.6,123.1,53,121.7,48.2z"/>
<path class="st16" d="M117.3,62.6c0.1,0.5,0.2,1,0.3,1.4C117.4,63.6,117.3,63.1,117.3,62.6z"/>
<path class="st16" d="M106.8,39.3c0.2-0.6,0.9-1.4,1.7-1.1l0.2,0.4c2.3,3.2,4.7,6.4,7,9.6c1.1,1.3,1.9,2.8,2.5,4.4
	c0.9,3.3-1.2,6.6-0.9,9.9c-1-3.8-4-7.3-6.6-10.8C107.9,47.9,105.3,43.4,106.8,39.3z"/>
<path class="st16" d="M103.1,45l0.6,0.2c0.2,1.7,1.7,3.2,2.8,4.7c2,2.8,3.5,6,4.3,9.4c0.6,1.7,0.9,3.5,0.8,5.3
	c-0.4,1.8-1.1,3.6-2.1,5.1l-3.8,6.6c2.2-3.6,1-8.1-0.2-12.2c-1-3.4-2-6.7-3-10.1C101.6,50.9,100.8,47.5,103.1,45z"/>
<path class="st16" d="M97.3,53.6l0.3,0.1c5.3,8.7,3.5,19.9-4.1,26.6C97.6,72,92.2,61.4,97.3,53.6z"/>
<path class="st16" d="M84.5,71.1c0.7-2.9,2.2-5.6,4.4-7.6l0.3,0.7c0.5,0.8,0.9,1.7,1.2,2.6c0.2,0.9,0.3,1.9,0.2,2.8
	c0.1,2.1-0.5,4.1-1.7,5.8c-1.1,1.1-2.4,1.9-3.7,2.6L81,80.2c1.4-1,2.3-2.5,2.6-4.2C84,74.3,84.1,72.7,84.5,71.1z"/>
<path class="st16" d="M78.7,68.3c1.8-0.3,3.8,0.3,5.5-0.1l0.2-0.2c-1.3,1.8-2.6,3.6-4.9,4.5c-0.9,0.3-1.8,0.5-2.7,0.8
	c-1.3,0.5-2.5,1.4-3.2,2.6c0-1.6,0.3-3.2,1-4.6C75.5,69.6,77,68.6,78.7,68.3z"/>
<path class="st16" d="M79.6,57.5c4.6-2,9.8-2.7,14.8-2.1l-0.1,0.4c-2,3.5-6.1,6.1-10.8,6.9c-3.4,0.6-7.2,0.3-9.8,2
	c-1,0.7-1.8,1.5-2.5,2.5C71.9,63,75.2,59.5,79.6,57.5z"/>
<path class="st16" d="M79.8,50.6c2.7-1.8,5.9-2.9,9.1-3.2c3.4-0.3,6.8-0.4,10.2-0.2c0.6,0,1.3,0.1,1.5,0.6s-0.1,0.6-0.3,0.9
	c-0.6,0.8-1.2,1.5-1.9,2.1l0.3-0.6c-3.5,2.8-8.9,3.2-13.9,3.6c-4.4,0.4-9.2,1.2-12.2,3.7l4.6-4.6C78,52.1,78.9,51.3,79.8,50.6z"/>
<path class="st16" d="M99.8,40.1c2.3,0.2,4.7,0.8,6.7-0.1l0.2,0.4c-2.9,4.3-9.1,6.8-15.2,6.1c-2.3-0.3-4.8-0.9-7-0.5
	c-0.9,0.2-1.8,0.6-2.7,1c-1.9,0.9-3.8,1.9-5.6,3c0.5-0.6,1.1-1.1,1.7-1.5c3-2.4,6.4-4.5,9.9-6.1C91.5,40.6,95.6,39.8,99.8,40.1z"/>
<path class="st16" d="M108.6,37.4c-1.4,0.4-3,0.5-4.4,0.2c-1.5-0.3-3-0.6-4.5-0.7c-1.5,0-3,0.2-4.4,0.5c-3,0.6-6,1.3-8.3,2.9
	c3.6-2.7,7.4-5.4,12.3-6.1c1.5-0.2,3.1-0.2,4.6-0.4c1-0.2,2.1-0.3,3.1-0.4c1,0,2.1,0.4,2.8,1.1l0.5-0.1
	C110.8,35.5,109.9,36.9,108.6,37.4z"/>
<path class="st16" d="M110.2,35.2l0.2-0.1c4.1,2.1,6.9,5.5,7.2,8.8C113.7,41.6,111,38.4,110.2,35.2z"/>
<path class="st16" d="M99.3,48.8l-0.1,0.2c-0.1,0.1-0.1,0.2-0.2,0.3c-1.3,1.7-2.6,3.5-3.9,5.3s-2.6,3.6-4.1,5.3s-3,3.3-4.4,5
	c-0.2,0.2-0.8,1-1.7,2s-1.9,2.4-2.8,3.8c-1,1.4-1.8,2.9-2.6,4.4c-0.6,1.1-1.1,2.2-1.5,3.4c0,0.2,0,0.4,0.1,0.7
	c0.1,0.2,0.1,0.9,0.4,0.4c0.5-0.7,1.2-2.1,1.8-3l1.5-2.5c1.2-2,2.4-3.9,3.8-5.8c1.2-1.6,2.6-3.1,4-4.6c1.2-1.3,2.4-2.7,3.5-4.1
	l1.1-1.5c1.8-2.3,3.5-4.6,5.2-7c0.9-1.3,1.7-2.6,2.6-3.8c2.4-3.6,5.4-7.1,7.6-11c0.3-0.4,0.5-0.8,0.8-1.3c0.1-0.2,0.2-0.3,0.2-0.5
	c0.1-0.3,0.1-0.4-0.1-0.4c-1,0.7-1.8,1.6-2.4,2.5c-0.9,1.2-1.7,2.3-2.6,3.5s-1.7,2.4-2.6,3.6l-3,4.3L99.3,48.8z"/>
<path class="st15" d="M123.6,4.6L123.6,4.6c-3.9-3.9-10.6-4.6-16-3.8c-11,1.4-20.1,7.4-24.2,15.6c-1.4,2.6-2,5.7-1.8,8.7
	c0.5,3.4,2.4,6.5,5.2,8.5c4.4,3.2,10.8,2.7,16.2,2.8c8.2,0.2,14.6-1.3,19-6.5c2.6-3,6.6-7.2,6.8-11.1C129,13.4,127.6,9.6,123.6,4.6z
	"/>
<path class="st16" d="M121.4,28.4c0,0.4-0.1,0.8-0.2,1.1C121.3,29.2,121.3,28.8,121.4,28.4z"/>
<path class="st16" d="M119.1,8.5c0.4-0.5,1.1-0.7,1.7-0.4c1.1,4.4,3.6,8.7,3.9,13.2c-0.2,2.7-2.7,4.6-3.3,7.1
	C121.9,22.3,114.9,14.1,119.1,8.5z"/>
<path class="st16" d="M114.7,11.8l0.4,0.3c-0.3,1.3,0.5,2.8,1,4.2c0.9,2.6,1.2,5.4,1,8.1c0.5,5.5-5,8.1-8.5,11.4
	C114.9,30.9,108.6,15.4,114.7,11.8z"/>
<path class="st16" d="M107.9,16.7l0.2,0.2c1.9,7.8-2.3,15.6-10.1,18.8C103.3,30.5,101.8,21.2,107.9,16.7z"/>
<path class="st16" d="M93.2,26.5c1.3-2,3.3-3.6,5.5-4.5c0.2,0.9,0.3,1.9,0.3,2.8c-0.4,2.3-1.2,4.8-3.4,6c-2.2,1.1-5,1.1-7.5,1.6
	C90.9,31.5,91.8,28.7,93.2,26.5z"/>
<path class="st16" d="M89.8,22.7c1.8,0.2,3.4,1.2,5.2,1.3l0.2-0.1c-5.3,3.7-8.4,0.7-12.6,3.1C83.7,24.6,86.1,22.2,89.8,22.7z"/>
<path class="st16" d="M92.8,15.1c4.2-0.3,8.4,0.4,12.3,2.2c-7.8,6.9-15.4-1.4-21.6,2.9C85.3,17.4,88.8,15.6,92.8,15.1z"/>
<path class="st16" d="M94.8,10.1c5.2-1.5,11.2,0.5,16.2,2.3c2.5,0.8-0.4,2-1.5,2.5l0.3-0.4c-6.7,2.2-15.9-3.6-22.6-1.1
	C89.8,12.3,92.2,11,94.8,10.1z"/>
<path class="st16" d="M113.4,7.3c1.8,0.7,3.6,1.7,5.3,1.6v0.3c-3.4,2.5-9,2.8-13.7,0.7c-1.8-0.8-3.5-1.9-5.4-2.1
	C97,7.9,94.5,8.2,92,8.7C98.6,6,106.4,4.5,113.4,7.3z"/>
<path class="st16" d="M121.1,7.5c-2.5,0.1-4.7-1.8-6.9-2.7c-3.6-1.1-7.3-1.3-11-0.7c4.8-1.9,10.1-2.1,15.1-0.6
	c1.6,0.3,3.8,0.5,4.5,2h0.4C123.3,6.7,122.3,7.4,121.1,7.5z"/>
<path class="st16" d="M122.9,6.2h0.2c2.7,2.6,4,5.8,3.4,8.4C124,11.9,122.7,8.8,122.9,6.2z"/>
<path class="st16" d="M110.8,13.6c-3.2,1.9-6.2,4.3-9.5,6.1c-5.1,2.8-11.4,6-15.2,10.6c-0.2,0.4-0.3,1.2,0.1,1
	c1.3-0.9,2.8-2.3,4.1-3.3c2.7-2.3,5.7-4.2,8.9-5.7c4.9-2.6,9.7-5.7,14.1-9c3.2-2.2,6.8-4.5,9.9-7.1c0.2-0.1,0.6-0.6,0.3-0.6
	C119.2,7.3,114.9,11.1,110.8,13.6z"/>
<path class="st15" d="M146.8,38.2c-3.2-3.8-8.2-7.2-13.7-6.3h0.1c-6.3,1.6-10,3.9-13.7,8.4c-2.7,3.2-3,9-3.4,12.9
	c-0.7,7,2.7,12.4,8.5,18c3.8,3.7,8,8.6,13.3,9.1c3.6,0.2,7.1-1.2,9.6-3.7c2.4-2.5,4-5.6,4.9-8.9C155.4,57.5,153.3,46.6,146.8,38.2z"
	/>
<path class="st16" d="M117.5,52.5c-0.3,0.3-0.5,0.7-0.7,1C117,53.2,117.3,52.8,117.5,52.5z"/>
<path class="st16" d="M133.4,37.8c0.1-0.5-0.2-1.3-0.9-1.3l-0.3,0.2c-2.8,1.8-5.6,3.6-8.4,5.4c-1.3,0.7-2.4,1.6-3.4,2.6
	c-1.8,2.2-1.5,5.3-2.9,7.7c2.1-2.5,5.5-4.3,8.6-6.2C129.6,44.1,133,41.3,133.4,37.8z"/>
<path class="st16" d="M134.1,43.2h-0.5c-0.7,1.3-2.3,2-3.7,2.8c-2.5,1.6-4.7,3.6-6.5,6c-1,1.1-1.9,2.4-2.4,3.8
	c-0.4,1.5-0.5,3.1-0.3,4.6c0.1,2.1,0.3,4.2,0.4,6.3c-0.3-3.5,2.1-6.6,4.4-9.4c1.9-2.3,3.8-4.7,5.7-7C133,48.3,134.9,45.8,134.1,43.2
	z"/>
<path class="st16" d="M135.2,51.6h-0.2c-6.9,5.2-9.5,14.4-6.4,22.5C128.5,66.1,136.2,59.5,135.2,51.6z"/>
<path class="st16" d="M138.4,69.7c0.5-2.5,0.3-5.2-0.6-7.6l-0.4,0.5c-0.7,0.5-1.3,1.1-1.8,1.7c-0.5,0.7-0.9,1.4-1.2,2.2
	c-0.8,1.6-1.1,3.5-0.7,5.2c0.4,1.2,1,2.4,1.8,3.4l2.3,3.2c-0.6-1.4-0.8-2.9-0.5-4.4C137.6,72.6,138.2,71.2,138.4,69.7z"/>
<path class="st16" d="M144.2,69.6c-1.2-0.8-2.9-1-4-1.8l-0.1-0.2c0.3,1.9,0.7,3.8,2,5.3c0.5,0.6,1.1,1,1.7,1.6
	c0.8,0.9,1.4,2,1.5,3.2c0.6-1.3,0.9-2.8,0.9-4.2C146.2,71.9,145.5,70.5,144.2,69.6z"/>
<path class="st16" d="M146.7,60.1c-2.6-3-6.1-5.2-10-6.2v0.4c0.4,3.6,2.4,6.9,5.4,8.9c2.3,1.5,5.1,2.5,6.5,4.8
	c0.5,0.9,0.8,1.9,1,2.9C150.3,67.1,149.3,63.1,146.7,60.1z"/>
<path class="st16" d="M149,54.4c-1.3-2.2-3.2-4.1-5.5-5.3c-2.4-1.3-4.8-2.3-7.4-3.1c-0.4-0.2-1-0.3-1.3,0c-0.2,0.2-0.2,0.5-0.1,0.8
	c0.2,0.8,0.4,1.5,0.6,2.2v-0.5c1.6,3.2,5.4,5.2,8.8,7c3.1,1.7,6.3,3.8,7.6,6.8c-0.6-1.7-1.2-3.5-1.8-5.2
	C149.7,56.1,149.4,55.3,149,54.4z"/>
<path class="st16" d="M138.2,40.3c-1.7-0.5-3.7-0.7-4.8-1.9l-0.2,0.2c0.6,4.1,4.2,7.9,8.8,9.1c1.8,0.5,3.8,0.6,5.2,1.6
	c0.6,0.5,1.1,1,1.6,1.6c1.1,1.3,2.1,2.7,3,4.1c-0.1-0.6-0.4-1.2-0.7-1.8c-1.3-2.8-3-5.4-5-7.8C144,42.9,141.3,41.2,138.2,40.3z"/>
<path class="st16" d="M132.8,35.8c0.9,0.7,2,1.2,3.1,1.3c1.2,0.1,2.3,0.3,3.5,0.6c1.1,0.4,2.1,0.9,3,1.6c1.9,1.3,3.9,2.6,4.9,4.5
	c-1.6-3.1-3.4-6.3-6.7-8.1c-1-0.5-2.2-1-3.2-1.5c-0.7-0.4-1.4-0.8-2.1-1.1c-0.8-0.3-1.7-0.3-2.4,0.1l-0.3-0.2
	C131.9,33.8,132,35,132.8,35.8C132.8,35.8,132.8,35.8,132.8,35.8z"/>
<path class="st16" d="M132.5,33.7l-0.1-0.1c-3.7,0.5-6.9,2.4-8.3,4.8C127.3,37.8,130.3,36.2,132.5,33.7z"/>
<path class="st16" d="M134.3,47.7v0.2c0,0.1,0,0.2,0,0.3c0.2,1.8,0.5,3.6,0.9,5.4s0.9,3.6,1.4,5.4s1.1,3.5,1.5,5.3
	c0,0.1,0.1,0.4,0.2,0.8l0.1,0.6l0.2,0.8c0.2,1.1,0.5,2.5,0.7,4s0.4,3,0.5,4.4s0.2,2.6,0.4,3.3c0.1,0.2,0.2,0.3,0.3,0.4
	c0.1,0.1,0.4,0.6,0.5,0.1c0.1-1.1,0.1-2.2,0.1-3.4c0-0.9-0.1-1.8-0.2-2.7s-0.3-2.1-0.4-3.1s-0.4-2-0.6-3c-0.4-1.8-0.7-3.5-1.1-5.1
	c-0.4-1.4-0.9-2.8-1.3-4.2c-0.1-0.5-0.3-1-0.4-1.5c-0.5-2.3-0.9-4.7-1.3-7c-0.2-1.2-0.5-2.4-0.7-3.7c-0.7-3.4-1-7.2-2-10.5l-0.3-1.1
	c0-0.1-0.1-0.3-0.2-0.4c-0.1-0.2-0.2-0.2-0.2-0.1c-0.1,1-0.1,1.9,0.1,2.9c0.2,1.1,0.4,2.3,0.5,3.5s0.4,2.3,0.6,3.6
	c0.2,1.4,0.5,2.8,0.8,4.2L134.3,47.7z"/>
<path class="st15" d="M158.8,17c-2.8-7.8-9.1-13.9-17-16.3c-3.8-1.1-8.5-1.1-11.5,1.9l0,0c-3.2,3.7-4.5,6.8-4.8,11.2
	c-0.2,3.2,2.2,7,3.8,9.7c2.8,4.7,7.4,6.8,13.6,7.8c4.1,0.7,8.9,2.1,12.5,0c2.4-1.4,4-3.8,4.4-6.5C160.2,22.2,159.8,19.5,158.8,17z"
	/>
<path class="st16" d="M129.9,22.3c0,0.3,0,0.6,0,0.9C129.9,22.9,129.9,22.6,129.9,22.3z"/>
<path class="st16" d="M133.2,6.1c-0.2-0.4-0.7-0.8-1.1-0.5c-1.1,3.5-3.2,6.9-3.9,10.5c-0.1,2.2,1.5,4.1,1.7,6.2
	C130.2,17.2,135.8,11.2,133.2,6.1z"/>
<path class="st16" d="M136.1,9.3l-0.3,0.2c0.1,1.1-0.6,2.3-1,3.4c-0.8,2.1-1.3,4.3-1.3,6.6c-0.9,4.4,2.9,7.2,5.3,10.4
	C134.4,25,140.4,13.5,136.1,9.3z"/>
<path class="st16" d="M140.6,14.2l-0.1,0.1c-1.9,6.4,0.6,13.4,6.3,17.1C143.1,26.3,144.9,18.7,140.6,14.2z"/>
<path class="st16" d="M151,24.3c-0.8-1.9-2.2-3.4-3.9-4.6c-0.8,2.7-0.3,5.9,1.8,7.9c1.6,1.2,3.8,1.7,5.6,2.5
	C152.3,28.9,151.9,26.4,151,24.3z"/>
<path class="st16" d="M154.6,21.8c-1.1,0-2.2,0.6-3.4,0.5l-0.1-0.1c2.9,3.6,5.4,1.7,7.9,4.2C158.4,24.3,157.1,21.8,154.6,21.8z"/>
<path class="st16" d="M151.8,14.6c-3-0.8-6.2-0.7-9.1,0.4c5.3,6.8,11.6,0.7,15.9,5.3C157.2,17.5,154.7,15.5,151.8,14.6z"/>
<path class="st16" d="M150.6,10c-3.7-1.9-8.1-0.8-11.9,0.1c-1.9,0.4,0.2,1.7,0.9,2.3l-0.2-0.4c4.8,2.6,11.8-1.2,16.6,1.8
	C154.2,12.6,152.5,11.1,150.6,10z"/>
<path class="st16" d="M137.3,5.7c-1.3,0.4-2.6,1.1-3.9,0.8v0.2c2.6,2.5,6.4,3.2,9.7,2c1.3-0.5,2.6-1.2,4-1.2
	c1.9,0.3,3.7,0.9,5.5,1.6C148.2,6.2,142.6,3.9,137.3,5.7z"/>
<path class="st16" d="M131.9,5.1c1.8,0.3,3.4-1.1,5.1-1.6c2.6-0.6,5.3-0.4,7.8,0.5c-3.2-1.9-6.9-2.9-10.6-1.9
	c-1.2,0.1-2.7,0.1-3.3,1.3h-0.3C130.4,4.3,131,5,131.9,5.1C131.9,5.1,131.9,5.1,131.9,5.1z"/>
<path class="st16" d="M130.7,3.9h-0.1c-2.1,1.9-3.3,4.5-3.1,6.6C129.4,8.8,130.5,6.4,130.7,3.9z"/>
<path class="st16" d="M138.3,12c2.9,3.4,6.6,6.1,9.9,8.9c2.7,2.5,5.2,5.2,7.6,7.9c2.2,1.2-1.8-3.4-2.2-3.8c-2-2.2-4.2-4.3-6.5-6.2
	c-3.6-2.6-6.6-5.8-9.8-8.8c-2.3-2-4.7-5.3-7.2-6.6C132.2,6.5,135.7,9.3,138.3,12z"/>
<path class="st17" d="M0,121c3.4,0.7,11.1,1.1,19,1.3c9.4-0.2,18.6-0.8,20.4-1.7c2-1.1,3.6-2.7,4.6-4.8c3.8-6.4,7.5-12.8,9.1-19.4
	c1.5-5.5,0.8-11.4-1.9-16.4c-1.1-2-4.2-3.3-7.9-3.3H0"/>
<path class="st18" d="M10.6,91.2c-1.9-1.4-3.6-3-5.2-4.8l-4,4.6c-0.1,0.1-0.2,0.3-0.3,0.5c0,0.2,0.1,0.4,0.3,0.6
	c1.3,1.4,2.7,2.7,4.2,3.9l5-4.2c0.1-0.1,0.2-0.2,0.2-0.3S10.8,91.3,10.6,91.2z"/>
<path class="st18" d="M41.2,91l5.2-5.1c0.3,0.3,0.5,0.5,0.8,0.8l3.2,4c0.1,0.1,0.2,0.2,0.2,0.4c0,0.2-0.1,0.3-0.2,0.4l-4,4.2
	l-5.3-4.2c-0.1,0-0.1-0.1-0.2-0.2C41,91.2,41.1,91.1,41.2,91z"/>
<path class="st18" d="M27.9,91.1c1.9-1.4,3.7-3,5.3-4.8l4,4.6c0.1,0.1,0.3,0.3,0.3,0.5c0,0.2-0.1,0.4-0.3,0.6
	c-1.3,1.4-2.8,2.7-4.3,3.9l-5-4.2c-0.1-0.1-0.2-0.2-0.2-0.3S27.8,91.2,27.9,91.1z"/>
<path class="st18" d="M23.9,91.3c-2-1.4-3.9-3.1-5.5-5c-1.3,1.7-2.7,3.3-4.4,4.7c-0.2,0.2-0.5,0.4-0.4,0.6c0.1,0.2,0.2,0.3,0.4,0.4
	c1.6,1.4,3.3,2.7,5.1,4c1.8-1.1,3.5-2.5,5-4c0.1-0.1,0.2-0.2,0.2-0.3S24.1,91.4,23.9,91.3z"/>
<g>
	<defs>
		<polyline id="SVGID_00000097501658364460031390000005624072053341504700_" points="0,32.6 8.6,49.6 20.3,62.9 23.7,46.1 
			37.8,39.5 47.7,34.3 60.3,34.1 72.1,30.8 76.6,32.4 54.2,50.2 43.4,57 53.3,58.8 64.5,69.2 65,83.9 62.4,89.8 59.6,83.2 
			56.8,80.3 62.7,95.3 49.6,90.8 33.9,88.6 28.7,76.7 7.4,76.7 0,74 		"/>
	</defs>
	<clipPath id="SVGID_00000180363352043723754800000005151162395754901411_">
		<use xlink:href="#SVGID_00000097501658364460031390000005624072053341504700_"  style="overflow:visible;"/>
	</clipPath>
	<g style="clip-path:url(#SVGID_00000180363352043723754800000005151162395754901411_);">
		<path class="st20" d="M18.6,81c0,0.6,0,1.3-0.1,1.9c-0.2,1.7-0.7,3.4-1.4,4.9c-0.1-0.5-0.2-1-0.3-1.5c-0.2-0.9-0.3-1.8-0.5-2.7
			c-0.1-0.3-0.1-0.7-0.2-1c-0.1-0.9-0.3-1.7-0.4-2.6c-0.3-1.7-0.6-3.3-0.9-4.9s-0.6-3.5-0.9-5.2c-0.2-1.9-0.8-3.8-1.9-5.3
			c-1.5-1.8-3.8-2.4-6.2-2.8c-1.5-0.2-3.1-0.4-4.6-0.7C0.8,61,0.4,61,0,60.8V50.3c2,0.7,4,1.6,5.8,2.7c1.7,1,3.3,2.4,4.6,3.9
			c0.8,1.2,1.4,2.5,1.9,3.9l0.5,1.3c1.2,3.1,2.8,6.3,3.9,9.6c0.5,1.4,1,2.9,1.3,4.4c0.3,1.3,0.5,2.5,0.6,3.8
			C18.6,80.3,18.6,80.7,18.6,81z"/>
		<path class="st21" d="M17.6,83.3c0,0.1,0,0.2-0.1,0.3L17,83.9c-0.2-0.1-0.5-0.2-0.7-0.2L16,83.5c-0.9-0.4-1.7-0.9-2.4-1.5
			c-2.9-2.5-4.7-6.6-6.6-9.5c-0.2-0.3-0.4-0.6-0.6-0.9c-0.8-1.3-2-2.3-3.4-2.8c-1.1,0.3-2.1,0.6-3,0.9V57.2c0.5,0.1,1,0.3,1.5,0.5
			c2.7,1.5,3.8,2.9,4.3,4.2c1.1,2.8-1.2,5.3,1.9,7.5c2.5,1.8,4.9,3.7,7.1,5.8c0.9,0.9,1.7,2,2.3,3.2l0,0l0,0
			c0.1,0.2,0.2,0.4,0.3,0.7C17.9,80.4,18,81.9,17.6,83.3z"/>
		<path class="st20" d="M17.6,83.7c0.1,1-0.2,1.9-0.8,2.7c-0.2,0.3-0.5,0.4-0.9,0.5c-0.2,0-0.5-0.1-0.7-0.2
			c-0.7-0.6-1.1-1.4-1.2-2.2c-0.2-0.8-0.3-1.6-0.3-2.4c0-0.5-0.1-1-0.1-1.5c-0.4-3.3-2.4-6.2-5.3-7.7c-0.4-0.2-0.7-0.3-1.1-0.4
			c-2.2-0.5-4.6-0.4-6.8,0.4L0,73v-2c1,0,2,0.1,3.1,0.2s2.3,0.2,3.4,0.3c1.4,0.2,2.8,0.6,4,1.3c2.7,1.6,4.5,4.2,5.1,7.3l0.2-0.1
			l0.4-0.2c0.2,0.2,0.3,0.5,0.5,0.7c0.5,0.9,0.9,1.8,1,2.8L17.6,83.7z"/>
		<path class="st21" d="M20.7,77.2c-0.3,1.6-0.9,3.1-1.6,4.5c-0.2-0.2-0.4-0.4-0.5-0.7s-0.3-0.4-0.4-0.6c-0.3-0.4-0.5-0.8-0.7-1.3
			c-0.1-0.2-0.2-0.5-0.3-0.7l0,0c-0.6-2.1-0.8-4.4-0.5-6.6c0.1-1.1,0.2-2.2,0.2-3.4c-0.3-3-2.6-5.3-4.6-7.5
			c-0.1-0.1-0.2-0.2-0.3-0.3c-2.2-2.4-4.2-4.9-6.1-7.5c-2-2.7-3.8-5.4-5.8-8v-3.4c3.2,3.8,6.1,8.1,9.4,11.7
			C15,58.3,19.9,64.3,20.9,71C21.2,73,21.1,75.1,20.7,77.2z"/>
		<path class="st21" d="M60.8,69.6c-4.2-11.2-17.5-13.5-27.1-6.9c-6.2,4.1-10.4,10.4-14.5,16.6l-1.4,1.4c0.5,2.3,1.4,4.5,2.8,6.5
			c5.1-4,1.2-14.2,7.9-17c3.5-1.3,7.2,1.6,11,1.3c1.5-0.1,3-0.8,4.5-0.8c2,0.1,3.7,1.4,5.4,2.3c8.5,3.4,12.5,4.6,12.9,14.7
			C64.6,81.9,63.5,75.2,60.8,69.6z"/>
		<path class="st20" d="M59.2,36.5c-4,0.7-8.4-1.3-12.3,0.1c-2.2,0.8-3.8,2.5-5.8,3.7c-3.8,2.3-8.7,2.5-12.5,4.9
			c-5.4,3.4-7,10.5-6.5,16.8c0.2,2.2,0.5,4.4,0,6.5c-0.7,1.8-1.5,3.5-2.6,5c-2.1,3.5-3.3,7.5-3.5,11.6H16c-1.8,2-2.1,13.4,2.3,8
			c4.9-9.8,0.1-22.4,10.5-30.3c4.4-3.5,10.2-4.8,15.1-7.7c9.9-6.9,17.7-16.3,28.2-22.5C67.6,31.5,63.7,35.7,59.2,36.5z"/>
		<path class="st20" d="M53.7,79.1c-1.6-1.1-3.2-0.6-4.9-1.1c-3.7-0.9-7.3-5.7-10.9-6.9c-3.7-1-7.4,1.1-11.1,3.2
			c-1.9,0.9-3.5,2.3-4.6,4c-0.5,0.7-0.9,1.5-1.2,2.3h1.1c0.4-1,0.9-1.9,1.5-2.8c1.6-2.1,3.3-2.3,4.9-1.8c2.1,0.8,4.1,2.8,6.2,4.6
			c1,0.9,2.1,1.8,3.2,2.6c3.9,3,7.7,2.7,11.6,3c3.1,0.1,6.2,1.2,8.6,3.2C57.1,83.3,55.3,80.2,53.7,79.1z"/>
		<path class="st21" d="M50.3,40c-2.7,0.7-4.9,2.4-7.1,3.8c-2.1,1.3-4.4,2.4-6.6,3.6c-3.1,1.6-5.8,3.8-8,6.5
			c-3.3,4-5.8,9.2-5.8,14.3c0.1,2,0.6-3.1,0.9-3.6c2-8.5,8.6-15.1,16.6-18.6c2.9-1.4,5.5-3.5,8.4-4.9c2.7-1.3,5.8-1,8.6-2.1
			c4.1-1.4,7.5-4.5,11.7-5.7c1.7-0.5,0.4-0.4-0.7-0.1c-3.8,1.1-6.9,3.7-10.5,5.1C55.3,39.4,52.8,39.4,50.3,40z"/>
		<path class="st21" d="M47.7,82.1C41,81.1,35.2,71,28,74.6c-0.7,0.7,1.1-0.1,1.4-0.1c2.1-0.2,4.2,0.2,6,1.2c3,1.7,5.5,4.2,8.7,5.7
			c6.4,2.6,6.6,0.3,12.5,6.2c0.6,0.4-0.5-1.1-1-1.6C53.6,83.8,50.7,82.4,47.7,82.1z"/>
		<path class="st21" d="M9.5,60.8c-0.2-0.1-0.3-0.3-0.5-0.4c-2.1-2.4-4.7-4.5-7.5-6C1,54,0.5,53.8,0,53.5V53
			c2.6,1.2,5.1,2.8,7.2,4.8c1,0.9,1.8,1.9,2.6,3C10.1,61.3,9.6,60.9,9.5,60.8z"/>
		<path class="st20" d="M4.4,67.8c-1.2-1.6-2.7-3-4.4-4.1v-0.6c1.3,0.7,2.4,1.7,3.4,2.8C3.7,66.1,5.5,68.8,4.4,67.8z"/>
		<path class="st20" d="M56.2,69.4c-3.2-2.3-6.7-4.4-10.6-5.2C39.4,63,32,64.6,27.4,69c-0.2,0.2-0.7,1-0.2,0.7
			c2.9-2.5,6.3-4.2,10-4.9c6.2-1.1,12.5,0.4,17.5,4.2c1.7,1,3.2,2.2,4.4,3.8c2.1,3,2.5,6.7,3.2,10.2c0.1,0.3,0.1,0.3,0.1,0.2
			c0-2.2-0.4-4.4-1-6.5C60.6,73.7,58.7,71.1,56.2,69.4z"/>
	</g>
</g>
</svg>
