<svg xmlns="http://www.w3.org/2000/svg" viewBox="0 0 224.59 215.92"><defs><style>.cls-1{fill:#c29869;}.cls-2{fill:#4f4f4f;}.cls-3{fill:#496037;}.cls-4{fill:#688955;}.cls-5{fill:#668a52;}.cls-6{fill:#8cb975;}.cls-7{fill:#283e17;}</style></defs><g id="Livello_2" data-name="Livello 2"><g id="Livello_1-2" data-name="Livello 1"><path class="cls-1" d="M125.68,125.56a.87.87,0,0,1-.82-.59L100.77,53.39,77.19,124.53a.87.87,0,0,1-1.1.55.85.85,0,0,1-.54-1.09L99.94,50.38a.87.87,0,0,1,.82-.59h0a.87.87,0,0,1,.82.59l24.92,74a.87.87,0,0,1-.54,1.1A1,1,0,0,1,125.68,125.56Z"/><path class="cls-2" d="M129,123.67c-.92-2-3.68-3.38-6.82-3.38H79.8c-3.14,0-5.9,1.38-6.82,3.38a27.4,27.4,0,0,0-1.57,17c1.38,6.87,4.65,13.51,7.9,20.09a10.9,10.9,0,0,0,3.92,4.94c1.6,1,9.63,1.53,17.76,1.78,8.14-.25,16.17-.79,17.77-1.78a10.9,10.9,0,0,0,3.92-4.94c3.25-6.58,6.52-13.22,7.9-20.09A27.4,27.4,0,0,0,129,123.67Z"/><path class="cls-3" d="M98.45,115.92c-.52-5.65-2.56-11-6.29-14.06,7.47-3,6.82-12.67,5-19.2C97,81.92,96.7,81,96,80.92c-8,3.35-10.6,12.2-5.59,19.74a13.19,13.19,0,0,0-10.48-.47c-3-5.85-10.15-12.23-17-10.28A1.08,1.08,0,0,0,62,91.12c.4,6.47,8.33,11.47,14.63,10.69-3.47,2.28-5.88,5.74-8.17,9.35a23.83,23.83,0,0,0-16-4.19c-6,.56,4.54,14.42,13.76,7.77-2.42,3.53-4.87,7.57-8.82,9.2a11.74,11.74,0,0,0-3.73,1.74,36.66,36.66,0,0,1-7.32.83c1.24-8.18-4.47-17.58-13.41-16.87-2.22,5.72,5.7,14,11.77,17A15.56,15.56,0,0,0,32.22,133c.07-4.94-2.75-9.52-7.88-10.47-2.28-.33-7.27-1.4-9,0-.5,8.14,8.62,13.52,16.05,11.86C27,142.1,26,155,17,154.21a23.1,23.1,0,0,0-8.41-16c-3.6,6.52.83,14.64,7.33,16.92l-.33.11A12.67,12.67,0,0,0,0,162.08c5.47,3.31,14.13-1.63,17.15-6.75a9.22,9.22,0,0,0,4.22-.71,13,13,0,0,0-1.17,14.54c7.79-4.67,6.35-9.83,4.83-17.42l-.11.4-.43.18c4.29-4.45,4.93-11.52,7.76-16.92-1.55,4.93-.1,11.31,2.64,15.47,6.33-4.18,6.53-14.9,2-20.73,4.35-3,10-2.13,15-2.68-2.66,3.55-2.24,8.8-1.8,13.86,6.95-1.7,8.4-9.66,8-16a21.53,21.53,0,0,0,6.56-6c-1.08,5.41,2.88,13.29,6.64,15.83,5.13-5.35,4.54-18.09-3.51-20.43C72,106.2,83.21,95.58,91.3,102.59c-10.51-3.9-17.41,9.35-10.16,16.68,5.73-1.51,12.8-9.83,10.82-16,3.47,3.68,5.13,10.43,5.88,17.19H99C98.86,118.18,98.45,116.57,98.45,115.92Z"/><path class="cls-3" d="M121.19,107.07a15.26,15.26,0,0,1-5.08-12.62c0-1.44,1.09-2.84,2.51-2,4.43,2.4,6.58,9.86,3.89,14.21,3.12-.72,7.37.65,10.83,3.15-1.17-7.24,3-15.86,11.12-10.38a1.23,1.23,0,0,1,.55,1.76c-1.41,4.88-6,7.38-10.25,9.64a52.84,52.84,0,0,1,8.84,9.21c3.25-3.9,10.79-5.64,15-2.64-1.56,5.35-9,7.23-13.56,4.41a115.53,115.53,0,0,0,9.1,10.91l.13-.07a15.1,15.1,0,0,0,2.66,2.75l-.06-.14c3.51-4,9.74-7.22,14.68-3.93-2.77,4.19-8.77,6.67-13.49,5a37.27,37.27,0,0,0,18.35,8.85c.69-4.34,3.67-8.63,7.84-10.15.61,0,.89.76,1,1.36a8.8,8.8,0,0,1-6,9.21c6,.71,12,.42,18.31,1.27.58-4.18,3.57-11.24,8.11-11,1.47,4.35-1.64,9.42-5.78,11.34a43.65,43.65,0,0,1,14.84,5.55l0-.1c3.55-4.06,11.33-.28,9.69,5-3.14,1.4-8.83-.13-9.65-3.87a24.12,24.12,0,0,0-3.84-2.25,7.13,7.13,0,0,1,.28,7.73c-.42.3-1-.07-1.35-.43-2.48-2-5.25-6-2.94-8.84a41,41,0,0,0-14.17-1.73c2.86,2.45,4.6,7.86,3,10.36-3.5-.59-9.63-6.63-7.94-10.46a60.21,60.21,0,0,1-13.52-2c2.11,2.83,2,7.76.65,10.9-1.61,0-4.13-4.53-5.33-5.84-1.49-1.92-2.84-5.07-.93-7.05a45.07,45.07,0,0,1-13.7-9.69c.95,3.53,2.66,12.35.32,13.08-6.24-1.92-7-11.09-1.76-14.53-3.41-3.52-6.77-7.49-10.69-11.75.73,4.06-1.77,9.19-6,9.78-3.76-3.58-1.87-12.05,3.53-12.35-4-3.84-10.41-12-16.73-11.25,3.82,1.35,6.2,6.29,5.82,10.16-4.92,1.4-8.74-4.35-9-8.94-2,1.57-3,4.48-2.87,7.8L116.46,115C116.69,110.73,118.54,108.14,121.19,107.07Z"/><path class="cls-4" d="M105,144.71l-.21-.18c-.3-6.47-1.74-11.29-3.88-17,2.46,3.29,7.17,5.21,10.83,3.34-.43-5.39-7.4-8.53-12.09-6.16-2.13-4.57-4.61-9.29-5.07-13.47,2.5,3.23,10.27,3.48,13.09,1.49.5-6.29-8.21-8.3-12.71-5.54,3.87-10.34,9.42-7.61,13.56-1.75a1.2,1.2,0,0,1,.3-.38l.13-.18c-3.91-9-13.64-6.27-15.49,4-5.45.25-11.12,6-8.49,11.4,4.1.66,7.73-2.8,8.86-6.76,1.47,5.63,4.93,10.65,6.77,16.17-5.43,1.28-10.28,7.55-5,12.05,3-2.27,4.82-6.05,5.84-9.75a49.94,49.94,0,0,1,2.39,16.14c-12.74,2.79-9.65,17.41-.58,6a31.09,31.09,0,0,1-6.6,14.76h0l-.28.23.07,0a28.61,28.61,0,0,1-5,4.57h0c-2.09,1.75-3.13,5.52-1.21,7.44a8,8,0,0,0,2.72-8h-.08a16.91,16.91,0,0,0,6.39-5.73c-.21,3.59,1,7.91,3.7,8.88,2.86-3.42,1.52-9.37-1.75-12.27a41.21,41.21,0,0,0,3.59-17c.89,4.51,4.13,9.1,9,8.2C114.49,150.13,110,145.13,105,144.71Z"/><path class="cls-4" d="M83.64,170.82c2.23-4.4,8.7-3.59,12.65-1.7a13.39,13.39,0,0,1-11.51,2.69C84.24,171.69,83.6,171.37,83.64,170.82Z"/><path class="cls-5" d="M175.29,176.33a32.18,32.18,0,0,1-12.16-5.15c5.65.31,12.69-1.82,15.24-6.81-5.52-5.16-13.76-.32-17.18,5.36a44.52,44.52,0,0,1-10.66-13.12c6.33,2.69,15.17,1.7,19.5-3.72-4.85-6.77-16.45-5.54-20.76,1.36a113,113,0,0,1-7.63-20.62c6,5.37,16.43,1.61,21.61-3.36-2.84-10.31-18.9-8-22.32.78-2.11-7.37-3.47-14.53-5.26-21.93,4.8,3,16-2.46,18.29-7.2.53-.79-.09-1.5-.9-1.76C148,98,141.54,97,137,100.72c-2.3,1.81-3.11,2.35-3.26,3.7-2-3.69-5.88-6-9.91-6.86,7.18-2.79,10.51-6.7,11.55-14.53a38.19,38.19,0,0,0-15.17,2.68c-5.06,1.26-4.79,8.39-1.75,11.58-10.8,1.26-13.69,12.61-13.49,23.15h1.27c.27-9.65,2.46-20.78,11.38-22.06-8.78,4.46-1.3,14.23,3.57,18.82,4.15-3.58,7.37-13.45,3.77-18,5.7,1.9,8.53,7.81,11,15.59-9.44-1-16.19,6.06-11.83,15.27,6.68-.17,12.09-6.74,12.4-13.3,1.83,6.5,3.33,14.1,5.4,21.71-10.41-1.49-13.82,17.17-8.3,15.33,4.3-1.7,8.83-6.05,9.61-10.81a71.6,71.6,0,0,0,7.59,17.31A14.45,14.45,0,0,0,148,179c.39.61,1,1.26,1.69,1.19,4.65-3.45,5.53-10.65,3.74-16.26a36.76,36.76,0,0,0,14.83,11.43c-.36,4.82,1.58,13.3,7.66,12,.08-3.7-1.56-8.35-4.63-10.87a14.55,14.55,0,0,0,4.7.74c4,4,10.62,1.7,14.72-1.25C192.29,171.54,177.48,169.85,175.29,176.33Z"/><path class="cls-5" d="M37.09,173.13a28.46,28.46,0,0,0,10.84-4.59c-5,.28-11.31-1.62-13.59-6.07,4.92-4.6,12.27-.28,15.32,4.78a39.88,39.88,0,0,0,9.5-11.69c-5.64,2.4-13.52,1.51-17.38-3.31,4.32-6,14.66-4.94,18.5,1.2a100.88,100.88,0,0,0,6.8-18.37c-5.34,4.78-14.65,1.43-19.26-3,2.53-9.18,16.84-7.11,19.89.7,1.89-6.57,3.1-13,4.69-19.54-4.28,2.69-14.28-2.2-16.3-6.42-.47-.7.08-1.34.8-1.57,4.5-1.9,10.27-2.8,14.32.5,2.06,1.62,2.78,2.09,2.91,3.3,1.75-3.29,5.24-5.33,8.83-6.11-6.34-2.43-9.41-6-10.29-13a34.17,34.17,0,0,1,13.52,2.39c4.5,1.13,4.26,7.48,1.55,10.32,8.68,1,11.54,9.25,11.88,17.73H98.35c-.56-7.82-2.75-15.73-9.85-16.76,7.82,4,1.15,15.09-3.19,19.17-3.69-3.18-6.56-14.38-3.36-18.46-5.08,1.69-7.6,7-9.77,13.89,8.41-.86,14.43,5.4,10.54,13.61-6-.15-10.77-6-11.06-11.85-1.62,5.79-3,12.56-4.8,19.35C76.09,138,79.2,154.64,74.26,153c-3.84-1.51-7.88-5.4-8.57-9.63a64.35,64.35,0,0,1-6.76,15.42c4.93,3.46,6.67,14.63,1,17.79-4.15-3.07-4.94-9.49-3.34-14.5A32.69,32.69,0,0,1,43.39,172.3c.32,4.3-1.41,11.86-6.83,10.71-.06-3.3,1.39-7.44,4.13-9.69a13.24,13.24,0,0,1-4.19.66c-3.58,3.6-9.46,1.51-13.11-1.12C21.94,168.86,35.14,167.36,37.09,173.13Z"/><path class="cls-6" d="M159.29,181.08c-4.3-4.41-11.71-1-15.71,2.71a16.8,16.8,0,0,0,14.73-1.1C158.9,182.33,159.55,181.71,159.29,181.08Z"/><path class="cls-6" d="M143.16,183.63a39.1,39.1,0,0,1-13.4-15.13c15.09,10.2,13.3-8.39-2.94-6.95a62.3,62.3,0,0,1-3.19-20.13c2.6,4,6.22,7.85,10.61,9.43,4.55-7.33-3.58-13-10.53-12.47.13-7.27,2.38-14.56,2-21.82,2.83,4.3,8.46,7.06,13.09,4.75,1.12-7.45-7.8-12.16-14.39-10.41-10.33-16-20.48-7.7-21.77,8.32-1.17-5.84-7.64-12.7-12.64-10.77a16,16,0,0,0-3.71-13.76c-.93-1.19-2.7-1.69-3.36-.08-2.18,4.8.73,12.4,5.72,14.34-3.06,1.36-5.76,5.19-7.07,9.46C78,111.62,69.11,107,65.74,116.75a1.31,1.31,0,0,0,.65,1.82c4.27,3.2,9.69,2.38,14.67,1.6a55.79,55.79,0,0,0-1.59,13.28c-5.18-1.22-12.58,2.09-14.18,7.24,4.68,3.48,12.06.38,14.12-4.87a121.84,121.84,0,0,1-.72,14.86l-.16,0a15.5,15.5,0,0,1-.49,4l0-.16c-5.45-1.13-12.7.11-14.75,6,5,1.76,11.55.05,14.47-4.28a39.14,39.14,0,0,1-9.76,19c-3.32-3.2-8.52-4.9-13-3.54-.49.4-.27,1.2.06,1.74a9.22,9.22,0,0,0,10.82,3.92c-4.58,4.39-9.74,7.91-14.5,12.61-3.12-3.12-10.08-7.14-13.71-4.05,1.52,4.56,7.32,6.84,12,5.84a46.12,46.12,0,0,0-8.9,14l-.08-.08c-5.53-1.15-9.65,6.91-5,10.27,3.51-.81,7.3-5.68,5.63-9.32a24.82,24.82,0,0,1,1.79-4.31,7.46,7.46,0,0,0,4.64,6.65c.54,0,.77-.68.86-1.22.82-3.22.58-8.36-3.12-9.24a42.76,42.76,0,0,1,10.75-10.39c-.84,3.85,1.12,9.47,4,10.57,2.56-2.71,3.87-11.62.05-13.76a63.5,63.5,0,0,0,10-10.21c0,3.69,3.22,7.75,6.33,9.51,1.37-1,.6-6.39.77-8.24,0-2.55-.81-6-3.66-6.49a47.1,47.1,0,0,0,5.34-16.74c1.43,3.54,5.57,12,8,11.14,4-5.55-1.15-13.7-7.7-13.27.63-5.1.94-10.54,1.53-16.57,1.95,3.86,7.27,6.57,11.15,4.43.88-5.38-6-11.26-10.76-8.11.91-5.71,1.16-16.57,6.91-20-2.35,3.54-1.23,9.16,1.53,12.17,5-1.94,4.57-9.15,1.9-13.17,4.33.07,8.6,4.77,10.09,11,.59,0,1.18,0,1.77,0,1.38-12,7.52-25.05,18.5-11-6.4-1.6-16,4-13.08,11.36,4.11,1.31,13.27-1.89,15-6.68,1,5.16-.17,11.72-1,18-6.49-1.06-13.62,5.29-12.12,11.88,5.08.86,10-3.2,11.67-8-.42,7.6-.34,13.88,1.73,21.71l-.18.29c-5.89,2.4-9.32,10-6.59,15.86,6.15-.75,8.29-7.44,7.67-13.14a51.53,51.53,0,0,0,10.61,18.86c-2.8,4.69-2.17,12.27,2.51,15.28,2.92-2.18,2.69-7.76,1.09-12a21.11,21.11,0,0,0,9.77,4.44l-.09,0c.27,3.64,2.74,7.41,6.25,8.59,1.57-3-1.08-7.13-4.23-8.43h0a35.58,35.58,0,0,1-7.62-3.59l.07-.07-.42-.18Z"/><path class="cls-3" d="M101.16,168.8c.17,1.16.7,2.31.86,3.46a12.72,12.72,0,0,0,.58,2.75c1.14.75-.13-2.84,0-3.36-.53-1.48-1-5.16-2.16-6C100.23,166.66,101,167.8,101.16,168.8Z"/><path class="cls-3" d="M91.25,168.94c-1.29,0-5.61.84-6.06,2-.14.81,2.55-1,3.18-.84,1.94-.73,4-.47,6-.65C94.48,168.71,91.82,169,91.25,168.94Z"/><path class="cls-3" d="M90.93,176.7a13.34,13.34,0,0,0-.44,2c0,.19-.67,1.8.19,1.74a11.67,11.67,0,0,0,.59-2.38,17.14,17.14,0,0,0,.48-2.76C91.44,174.21,91,176.43,90.93,176.7Z"/><path class="cls-3" d="M100.3,151.48c-.85.8-4.1,4.65-3.82,5.68.34.79,1.71-2.49,2.25-2.76,1.15-1.89,2.92-3.21,4.27-4.94C102.56,148.88,100.77,151.12,100.3,151.48Z"/><path class="cls-3" d="M108.09,148.41c.77,1,1.82,1.89,2.49,3,.31.34,1.27,2.49,1.86,2.56s-.15-1-.25-1.25a22.3,22.3,0,0,0-4.06-5.06c-.7-.55-1.56-1.77-2.49-1.71C106.1,146.9,107.41,147.53,108.09,148.41Z"/><path class="cls-3" d="M97.24,132.58c-1.11.59-3.56,6.4-1.77,6.59a9.57,9.57,0,0,1,1.31-5,11.75,11.75,0,0,1,3.48-3.29C99.89,130.14,97.64,132.12,97.24,132.58Z"/><path class="cls-3" d="M104,126.15a12.11,12.11,0,0,1,3.65,1.9c.64.41,1.41,1.57,2,1.57,1-.29-2.8-3.05-3.33-3.19-1.35-.63-4.31-1.85-5.58-1C101.66,125.9,103,125.7,104,126.15Z"/><path class="cls-3" d="M61.2,131.11c-2.68-1-8.41-1.75-10.62.56,0,.1-.08.29.07.27A12,12,0,0,1,56,130.85a19.21,19.21,0,0,1,5.75,1.06c1.35.33,3,1.5,4.35,1.39C64.88,132.19,62.78,131.73,61.2,131.11Z"/><path class="cls-3" d="M71.21,146.28c.43,1.08,1.22,2.07,1.66,3.14.22.37.82,2.47,1.41,2.54.88.1-1-2.74-1-3.26-.86-1.28-2.25-4.77-3.51-5.28C69.8,144.42,70.81,145.34,71.21,146.28Z"/><path class="cls-3" d="M77.28,123.53a23.13,23.13,0,0,0,1.21,2.25c.12.15.75,2.23,1.45,1.62a33.73,33.73,0,0,0-3.19-5.87C75.69,120.74,77.15,123.27,77.28,123.53Z"/><path class="cls-3" d="M62.85,106.85a43.74,43.74,0,0,1,5.47,1.51c1.15.36,3.29,1.78,4.3,1.72,1-.46-5-2.65-5.54-2.83-2.59-.66-6.85-2-9.3-1.17C59.26,106.62,61.27,106.41,62.85,106.85Z"/><path class="cls-3" d="M48.59,151.9a29,29,0,0,1,5.82.86c1.41.31,3.11,1.46,4.55,1.55,1.22-.7-7.16-3-7.91-2.85-2-.21-6.17-.44-7.76.7C44.91,152.33,46.9,151.72,48.59,151.9Z"/><path class="cls-3" d="M59.42,164.11a10.86,10.86,0,0,1,.63,3.57c0,.45-.4,2.7.1,3,.74.53.39-3.08.56-3.57-.05-1.58-1.17-5.43-2.43-6.23C58.21,162,59.15,163.07,59.42,164.11Z"/><path class="cls-3" d="M40.46,163.69a22.67,22.67,0,0,1,4.73,1.81c1,.48,2.59,2.1,3.51,2.23,1.12-.46-4.81-3.81-5.54-3.85-1.7-.66-5.67-1.75-7.22-.89C37.27,163.46,39.07,163.22,40.46,163.69Z"/><path class="cls-3" d="M39.82,180.16a18,18,0,0,0,1.54-2.83c.15-.38,1.52-2.44.56-2.63A79.93,79.93,0,0,1,38,182C37.58,183.59,39.72,180.44,39.82,180.16Z"/><path class="cls-3" d="M28.23,171.63c2.14-.15,3.63-.48,5.81.37.63.14,1.34.75,1.91.62s-.22-.54-.44-.7a9.62,9.62,0,0,0-5.07-1.11c-1.73.12-4.75.34-6.07,1.46,0,.2.2.09.32.1C25.85,172.19,27.05,171.79,28.23,171.63Z"/><path class="cls-3" d="M76.64,92.55c.79.68,1.83,1.14,2.57,1.87.33.21,1.53,1.78,2.05,1.62.86-.27-1.71-2-2-2.41-1.56-1-3.1-2.42-5-2.75C74,91.44,76.25,92.11,76.64,92.55Z"/><path class="cls-3" d="M98.46,109.07c.93.3,2,.26,2.91.57.42,0,2.41,1.1,2.52.2a18.07,18.07,0,0,0-7.72-1.47C94.76,108.82,98.17,109,98.46,109.07Z"/><path class="cls-3" d="M106.11,111.94h0c0,.24.38.2.51.36s.26.33.48.15.32-.35.19-.48-.29-.07-.35-.25c-.2,0-.3-.23-.5-.26s-.09-.24-.34-.18c-.45,0-.32.5,0,.62Z"/><path class="cls-3" d="M124.39,91.72a31.49,31.49,0,0,1,4.46-3.88c1.17-.88,3.14-1.37,4.22-2.33.22-1.2-5.45,2.23-5.89,2.75a26.17,26.17,0,0,0-3.77,3.67c-.84,1.11-2.41,2.41-2.63,3.77C122.14,94.74,123.12,92.87,124.39,91.72Z"/><path class="cls-3" d="M119.78,100.38c-.12.62-.37,4.3.3,4.41s.17-1.22.22-1.58a10,10,0,0,0,0-1.55c.06-1,.16-1.89.27-2.84,0-.09.05-.23.16-.24s0-.21,0-.24C119.78,98.12,120,99.83,119.78,100.38Z"/><path class="cls-3" d="M119.56,108.23h0c-.14.18.13.34.1.51s0,.36.24.35.53-.08.46-.29a.2.2,0,0,1-.06-.25,1,1,0,0,0-.09-.13.54.54,0,0,1,0-.18c-.19-.13.07-.22-.19-.38s-.59,0-.44.34Z"/><path class="cls-3" d="M140.75,104.49a47.08,47.08,0,0,1,6.36-2c1.6-.43,3.85-.22,5.39-.77.69-1-6.63.27-7.29.57a38.25,38.25,0,0,0-5.53,2.07c-1.41.73-3.56,1.29-4.54,2.48C137,106.46,138.92,105.1,140.75,104.49Z"/><path class="cls-3" d="M128.23,123.62c-.39.47-3.56,5.4-2.29,5.39,1-1.79,1.86-3.7,3-5.42C131.46,120.39,129.66,121.23,128.23,123.62Z"/><path class="cls-3" d="M148.56,130.64a55.12,55.12,0,0,1,7.08-1.11c1.56-.19,4.64.22,5.84-.24.08-.07.28-.2.1-.26a32.29,32.29,0,0,0-7.92,0,38.53,38.53,0,0,0-6.2,1.27c-1.6.55-4,.91-5.12,2.1C144.31,132.16,146.52,131,148.56,130.64Z"/><path class="cls-3" d="M155.85,153.92a41.16,41.16,0,0,1,6.3-1c1.57-.16,3.64.43,5.18.19.83-.94-6.25-.91-7-.69a33.29,33.29,0,0,0-5.52,1.19c-1.43.51-3.56.72-4.63,1.73C152,155.29,154,154.24,155.85,153.92Z"/><path class="cls-3" d="M149.71,168a56.92,56.92,0,0,0-1,9.31c.79,1.24.65-2.77.81-3.19.46-3.54.92-7.08,1.59-10.59C150.25,163.29,149.93,167.17,149.71,168Z"/><path class="cls-3" d="M167.12,168a31.75,31.75,0,0,1,4.5-1.93c.55-.26,3.44-.55,3.86-1.1.52-1.3-7.73,1.72-8.28,2.26-.85.69-3.79,1.94-3.71,3.05.17.09.17-.1.31-.13C164.9,169.47,166,168.63,167.12,168Z"/><path class="cls-3" d="M181.25,175.58a31.88,31.88,0,0,1,5-.64c.86-.09,2.57.23,3.08-.23.57-.81-3.76-.28-4.3-.38-2.12.36-6.24.72-7.68,2.18C178.56,176.58,180,175.73,181.25,175.58Z"/><path class="cls-3" d="M171.1,180.45c.36,1.05,1.05,2,1.37,3.1.22.36.56,2.94,1.37,2.51a21,21,0,0,0-3.65-8.19C168.93,176.84,171,180.13,171.1,180.45Z"/><path class="cls-5" d="M37.79,208.92c-.73.83-2.8,4.43-2.23,5.34.53.61.9-2.29,1.39-2.65.64-1.76,2-3,3-4.56C39.47,206.51,38.18,208.53,37.79,208.92Z"/><path class="cls-5" d="M46.58,189.07c-2.09-1-4.75-2.81-7.09-2.53-.09.08-.28.31-.16.41A11.78,11.78,0,0,1,43,188.06c2.26.83,4.42,2.67,6.92,2.48C50.38,190.15,47,189.51,46.58,189.07Z"/><path class="cls-5" d="M46,202.87c.29,1,.92,1.94,1.17,2.94.21.38.39,2.77,1.23,2.39a19.13,19.13,0,0,0-3.13-7.78C44.1,199.42,45.93,202.56,46,202.87Z"/><path class="cls-5" d="M59,189.89a27.21,27.21,0,0,1,.47,4.69c0,.8-.33,2.4.1,2.9.78.65.51-4.08.5-4.6-.28-1.77-.58-5.57-1.89-6.69C58.06,187.36,58.87,188.68,59,189.89Z"/><path class="cls-5" d="M74.13,175.32a27.34,27.34,0,0,1,1.43,5c.22.85.15,2.63.67,3.1.89.46-.25-3.88-.25-4.44-.67-2.1-1.75-6.22-3.48-7.44C72.67,172.77,73.76,174,74.13,175.32Z"/><path class="cls-5" d="M58.86,174.61c1.48.86,5.81,2,7.14.72.33-.66-2.12.1-2.55-.09-2.77-.14-5-1.65-7.46-2.77C55.57,173.09,58.33,174.25,58.86,174.61Z"/><path class="cls-5" d="M68.62,158.35c1.41-.32,2.81-1,4.22-1.29.49-.18,3.13-.45,3.43-1,.36-.89-3.62.6-4.19.56-2.43.85-5.07,1.38-7.25,2.83C65,160.06,68,158.4,68.62,158.35Z"/><path class="cls-5" d="M82.37,154.89c.8,1.32,1.91,2.54,2.62,3.9.34.45,1.33,3.08,2,3.28,1.07.27-2.14-4.77-2.44-5.22-1-1.18-3.43-5.57-5.07-4.73A9.15,9.15,0,0,1,82.37,154.89Z"/><path class="cls-5" d="M71.06,139.69c2-.41,6.54-2.62,7.15-4.53-.08-.67-1,.56-1.29.7a12,12,0,0,1-2.91,2c-2.17,1.33-4.72,1.58-7.15,2C66.87,140.66,70.37,139.85,71.06,139.69Z"/><path class="cls-5" d="M85.51,133.54a14.57,14.57,0,0,1,3,2.07c.37.26,1.71,2.11,2.3,2,1-.1-2.66-3.2-3-3.45-1.24-.85-4-2.42-5.39-1.74C83.23,133,84.6,133,85.51,133.54Z"/><path class="cls-5" d="M76.44,116.28c-2-1-7.58-2.38-8.94,0,0,.57.58-.06.86-.11a6.13,6.13,0,0,1,2.23-.54,15,15,0,0,1,9.34,3.56C80.55,118.5,77.17,116.55,76.44,116.28Z"/><path class="cls-5" d="M85.65,98.72c.35,1.51,1,3,1.32,4.54.19.53.4,3.35,1,3.73.89.43-.54-3.95-.5-4.52A44.73,44.73,0,0,0,86,97.92c-.46-1-.71-2.68-1.64-3.26C84.36,96,85.34,97.4,85.65,98.72Z"/><path class="cls-5" d="M90.39,114.49a17.87,17.87,0,0,1-.46,4.38c-.12.75-.86,2.11-.57,2.66.62.8,1.45-3.59,1.52-4.08.11-1.73.44-5.24-.74-6.49C89.89,112,90.49,113.36,90.39,114.49Z"/><path class="cls-5" d="M113.5,116a25,25,0,0,1,4.8-2.7c1.24-.57,3.18-.63,4.3-1.39.53-1.28-7.11,1.69-7.56,2.31-1.61,1-4.86,3.3-5.27,5.09C111.07,118.49,112.14,116.85,113.5,116Z"/><path class="cls-5" d="M129.06,114.39a15.29,15.29,0,0,1,4.09,2.37c.5.32,2.18,2.64,2.88,2.67,1-.12-2.61-3.2-3-3.6-1.93-1.38-5.84-3.21-8.1-2.92C126.05,113.72,127.82,113.78,129.06,114.39Z"/><path class="cls-5" d="M118,135.11a18.22,18.22,0,0,0-6.21,7c.16.86.55,0,.81-.34a16.91,16.91,0,0,1,2.45-3.19c2-2.38,4.63-3.8,7.21-5.4C121.88,132.45,118.63,134.7,118,135.11Z"/><path class="cls-5" d="M128.73,142.33a12.48,12.48,0,0,1,3.11,3.45c.54.75.69,2,1.41,2.53,1.28.18-2.15-5.08-2.81-5.32-1-1-3.57-3-4.93-2.58C126.35,141.2,127.84,141.5,128.73,142.33Z"/><path class="cls-5" d="M120.93,163.29c-1,1.73-3,7.11-2.33,9,.52.61.57-2,.7-2.35a28.42,28.42,0,0,1,4.16-9.78.8.8,0,0,1,.31-.32c.08,0,.12,0,.08-.1C122.86,159.21,121.45,162.57,120.93,163.29Z"/><path class="cls-5" d="M131.59,165.24c2.12.94,3.66,1.48,5.25,3.44.49.38,1.12,2,1.72,1.54-1.2-3-4.41-4.91-7.41-5.74-.37-.12-4-1.19-3.42-.24A29.6,29.6,0,0,1,131.59,165.24Z"/><path class="cls-5" d="M136.64,184.68c0,1.33.05,7.32.89,8,.79.49-.32-3.63-.09-4.21-.2-1.47-.13-2.95-.22-4.42-.1-1,.39-2.54-.15-3.4C136.46,181.77,136.76,183.42,136.64,184.68Z"/><path class="cls-5" d="M151.87,190.45c.46.66,1.2,1.12,1.63,1.79.27.28,1,2,1.59,1.37a11.77,11.77,0,0,0-4.38-4.77C149.5,188.6,151.69,190.2,151.87,190.45Z"/><path class="cls-5" d="M149.86,182.25a30,30,0,0,1,4.76-.81c1-.13,3.2.31,4-.13.69-.88-5.39-.47-6-.3-1.9.38-5.78,1.11-6.9,2.59C147.06,183.49,148.49,182.49,149.86,182.25Z"/><path class="cls-3" d="M137.71,143.66c-2.44,2.93-2.33,6.3-5.33,9.23,0,.09-.09.3.08.27,1.9-.7,2.66-3,3.45-4.65,1-3.37,3.32-6,6-8.14C141.53,139.55,138.08,143,137.71,143.66Z"/><path class="cls-7" d="M68.12,93.88c1.37,1.24,3,2.3,4.32,3.6.54.4,2.64,3,3.43,3,.95-.06-2.07-2.51-2.34-2.86A41.22,41.22,0,0,0,67.85,93c-1.12-.69-2.46-2.1-3.75-2.17C65.07,92,66.92,92.8,68.12,93.88Z"/><path class="cls-7" d="M56.2,110.76c1.42.86,6.55,3.32,7.93,2.86.81-.48-3.59-1.24-4-1.73-2.59-.85-4.74-2.49-7.16-3.69C52.48,108.79,55.64,110.34,56.2,110.76Z"/><path class="cls-7" d="M68.69,121.83c0,.5.39.91.47,1.37,0,.24.25,1.4.88,1,.13-.47-.32-.88-.31-1.36a14.47,14.47,0,0,0-1-2.21C68,120.15,68.6,121.55,68.69,121.83Z"/><path class="cls-7" d="M70.69,128.63c0,.91.29,1.83.32,2.72.06.16-.06,2,.51,2.19.78.25-.06-2.14.11-2.63-.37-1.56-.19-3.26-.84-4.74C70.11,126.23,70.77,128.1,70.69,128.63Z"/><path class="cls-7" d="M51.73,137.55c-.4.57-.51,1.33-.93,1.88-.19.33-1.35,1.43-.6,1.76a9.11,9.11,0,0,0,2.5-5.08C52.43,135,51.89,137.31,51.73,137.55Z"/><path class="cls-7" d="M38.1,115.18c1.26,1.78,2.79,3.48,3.89,5.35.81,1.14,1.92,3.87,2.89,4.55,1.11.26-2.59-5.06-2.83-5.67A51.31,51.31,0,0,0,38,114.12c-1.09-1.12-2.27-3-3.71-3.51C35.16,112.22,37,113.62,38.1,115.18Z"/><path class="cls-7" d="M34.61,137.39a43.64,43.64,0,0,0,.4,11.55c.71.78.42-.48.42-.92a38.63,38.63,0,0,1-.3-5,62.53,62.53,0,0,1,.13-6.42c0-1.52.71-3.52.32-4.93C34.76,133.25,34.86,135.57,34.61,137.39Z"/><path class="cls-7" d="M21.94,158.4c-.66,2-2,8.14-1.27,9.89.63.84.46-4.56.87-5.12a40.25,40.25,0,0,1,1.17-5.31c.27-1.27,1.32-2.79,1.19-4C22.83,155,22.5,156.94,21.94,158.4Z"/><path class="cls-7" d="M20.57,126.94c2,1.56,7.87,5.44,10.12,5.53,1.17-.19-4.78-2.45-5.18-3.05A52.68,52.68,0,0,1,20.23,126c-1.26-.81-2.51-2.48-3.89-2.92C17.22,124.6,19.19,125.77,20.57,126.94Z"/><path class="cls-7" d="M10.76,144.7c.53,1.72,1.51,3.37,2.2,5,.3.56,1.44,3.61,2.21,3.85,1,.34-1.91-4.17-1.92-4.81-.84-1.6-1.45-3.32-2.23-5-.57-1.13-.81-3-1.75-3.79C9.25,141.53,10.3,143.22,10.76,144.7Z"/><path class="cls-7" d="M6.34,159.88a29.66,29.66,0,0,1,4.94-1.6c.32-.15,3.54-.53,4.09-1.26s-3,.45-3.4.47a31.65,31.65,0,0,0-10.12,4C3.42,161.68,4.92,160.43,6.34,159.88Z"/><path class="cls-7" d="M93.18,94c.7-3.89,2.21-8,3.18-11.84-.42-2-2.1,5.46-2.43,5.9a52,52,0,0,0-1.47,6.77c-.16,1.6-.79,3.81-.18,5.28C92.83,98.3,92.69,95.92,93.18,94Z"/><path class="cls-7" d="M140.54,121c-.43.39-.48,1-.76,1.49-.19.3-.76,1.42,0,1.45.29-.22.28-.65.42-1,.32-.61.62-1.24.91-1.86C142.32,119.51,141.22,119.56,140.54,121Z"/><path class="cls-7" d="M137.32,127.4c-.29.48-.16,1.08-.31,1.59,0,.09-.28,1,0,1.27.24.12.51.2.54-.16.07-1.3.5-2.5.59-3.78C137.8,125.41,137.37,127.13,137.32,127.4Z"/><path class="cls-7" d="M149.17,119.23a35,35,0,0,1,4.18-1.23c.53-.2,3.07,0,3.53-.41s-.43-.37-.7-.42a21.34,21.34,0,0,0-10.49,3l.06.18c.47-.1.44-.4-.08-.37l.17.54C147,120.19,148.05,119.61,149.17,119.23Z"/><path class="cls-7" d="M152.78,139.77c.06,1,.79,5.75,1.63,6s-.63-2.64-.48-3.21a21.5,21.5,0,0,1-.68-5.86C152.39,136.55,152.75,139.18,152.78,139.77Z"/><path class="cls-7" d="M162.28,134.4a19,19,0,0,1,4.55-1.21c.8-.17,2.43,0,2.89-.43.5-.88-4.13,0-4.65.06-1.73.52-5.44,1.59-6.23,3.18C160,135.81,161.11,134.74,162.28,134.4Z"/><path class="cls-7" d="M171.9,148.59c1.25,2.31,1.24,4.67,2.27,7.26.86.53.28-.9.24-1.3-.59-2-.82-4.06-1.77-5.92a25.57,25.57,0,0,1-1.78-3.3c-.25-.87-.55-.19-.35.35A13,13,0,0,0,171.9,148.59Z"/><path class="cls-7" d="M180.81,142.83c1.22-1.37,4.47-4.71,3.46-6.69-.79-.44-.29.74-.49,1.15-1,3.21-4,5.33-6,7.9C178.28,145.77,180.29,143.24,180.81,142.83Z"/><path class="cls-7" d="M191.6,151.05a37.07,37.07,0,0,1,2.31,3.59c.36.44.69,2.85,1.1,3.25,1.07.39-.51-3.65-.78-4.08-1.36-2.15-2.86-4.18-4.39-6.21C189.15,148,191.26,150.42,191.6,151.05Z"/><path class="cls-7" d="M203,140.26a41,41,0,0,1-2.65,3.59c-.58.75-2.29,1.94-2.42,2.76.11,1,3.33-2.88,3.69-3.26,1.09-1.61,3.57-4.71,3.47-6.55C204.14,137.64,203.76,139.24,203,140.26Z"/><path class="cls-7" d="M209.4,153.73c.46,1.38,1.12,2.24.95,3.84,0,.57-.27,1.07,0,1.37.83.67.68-2.5.57-2.93-.56-1.69-1.16-3.63-2.6-4.77C207.78,151.54,209.32,153.16,209.4,153.73Z"/><path class="cls-7" d="M218.65,153.74c3.42.87,2.84,1.08,5.19,3,1.15-.32-2.33-3-3-3-1.15-.42-4.29-1.27-5.26-.6C216.39,153.69,217.71,153.43,218.65,153.74Z"/><path class="cls-6" d="M107.1,92a11.59,11.59,0,0,0-3.22-5.81.75.75,0,0,0-.49-.23.71.71,0,0,0-.43.29,15.18,15.18,0,0,0-3.79,9.66,12.13,12.13,0,0,0,.78,4.7,10.3,10.3,0,0,0,6.32,5.94l.12.77A25.23,25.23,0,0,0,107.1,92Z"/><path class="cls-5" d="M102.39,93.21c0,3.37,1.34,9.73,3.79,12.05.68.21-.16-.88-.24-1.17a25.05,25.05,0,0,1-2.7-8.1,33.9,33.9,0,0,1,.16-8.94c0-.12-.05-.16-.1-.12C102.34,88.67,102.44,91.22,102.39,93.21Z"/><path class="cls-1" d="M101.63,0V50.66a.87.87,0,0,1-1.74,0V0"/><path class="cls-1" d="M102.27,50.66a1.51,1.51,0,1,1-1.51-1.52A1.51,1.51,0,0,1,102.27,50.66Z"/><path class="cls-3" d="M85.92,108.64h0a.84.84,0,0,0,0,.27,1.38,1.38,0,0,1,.09.55s-.13.53.12.67l.14,0a.84.84,0,0,0,.27,0c.07,0,.07-.1.09-.15a.45.45,0,0,0,0-.12,2.74,2.74,0,0,1,0-.28,1.19,1.19,0,0,1,0-.26,2.25,2.25,0,0,0,0-.22.19.19,0,0,0,0-.07c0-.12,0-.24,0-.36l-.07-.19c0-.18.1-.36-.12-.55l0-.06,0,0a.3.3,0,0,0-.12,0c-.14,0-.19.08-.2.15l0,.18a1.08,1.08,0,0,0,0,.18l0,.22Z"/><path class="cls-3" d="M85.63,115.88v0a.13.13,0,0,1,0,.06c-.06.37-.1.76-.13,1.15a22.53,22.53,0,0,1-.1,2.34,10.44,10.44,0,0,0-.1,2.82.69.69,0,0,0,.13.11c.08,0,.21.14.26,0a1.82,1.82,0,0,0,.14-.61,4.35,4.35,0,0,0,.06-.52c0-.4,0-.82,0-1.22s.09-.71.13-1.07,0-.63,0-.94c0-.11,0-.22,0-.33,0-.5.09-1,.13-1.51,0-.27,0-.54,0-.81a11.37,11.37,0,0,0,.07-2.34l0-.27a.21.21,0,0,0,0-.1s-.08-.07-.12,0a.79.79,0,0,0-.24.59c0,.25-.06.51-.09.76s-.06.52-.07.79,0,.61,0,.91Z"/></g></g></svg>