<svg xmlns="http://www.w3.org/2000/svg" viewBox="0 0 211.58 351.76"><defs><style>.cls-1{fill:#728144;}.cls-2{fill:#a16d4e;}.cls-3{fill:#b5987c;}.cls-4{fill:#496037;}.cls-5{fill:#976b4c;}.cls-6{fill:#637950;}.cls-7{fill:#477419;}.cls-8{fill:#83585a;}.cls-9{fill:#7c9926;}</style></defs><g id="Livello_2" data-name="Livello 2"><g id="Livello_1-2" data-name="Livello 1"><path class="cls-1" d="M171.68,128.64a1.51,1.51,0,1,1-1.5-1.61A1.56,1.56,0,0,1,171.68,128.64Z"/><circle class="cls-1" cx="166.78" cy="127.13" r="1.51"/><path class="cls-1" d="M165.72,129.81a1.68,1.68,0,1,1-1.68-1.69A1.68,1.68,0,0,1,165.72,129.81Z"/><path class="cls-1" d="M162,128.51a2,2,0,1,1-2-2A2,2,0,0,1,162,128.51Z"/><path class="cls-1" d="M159.38,125.78a1.47,1.47,0,1,1-1.46-1.46A1.47,1.47,0,0,1,159.38,125.78Z"/><circle class="cls-1" cx="151.1" cy="127.19" r="1.57"/><path class="cls-1" d="M158.83,130a2.08,2.08,0,1,1-2.07-2.08A2.07,2.07,0,0,1,158.83,130Z"/><circle class="cls-1" cx="147.05" cy="127.8" r="2.02"/><path class="cls-1" d="M147.05,130.69a1.74,1.74,0,1,1-1.74-1.74A1.74,1.74,0,0,1,147.05,130.69Z"/><path class="cls-1" d="M143.11,129.69a2.12,2.12,0,1,1-2.12-2.12A2.12,2.12,0,0,1,143.11,129.69Z"/><path class="cls-1" d="M146.1,126.39a1.58,1.58,0,1,1-1.58-1.57A1.57,1.57,0,0,1,146.1,126.39Z"/><path class="cls-1" d="M174.64,130.35a2,2,0,1,1-2-2A2,2,0,0,1,174.64,130.35Z"/><path class="cls-1" d="M182.14,127.25a1.87,1.87,0,1,1-1.87-1.87A1.87,1.87,0,0,1,182.14,127.25Z"/><path class="cls-1" d="M174.31,126.7a1.89,1.89,0,1,1-1.88-1.67A1.78,1.78,0,0,1,174.31,126.7Z"/><circle class="cls-1" cx="185.83" cy="130.46" r="1.82"/><path class="cls-1" d="M191.65,127.17a1.79,1.79,0,1,1-1.78-1.79A1.78,1.78,0,0,1,191.65,127.17Z"/><path class="cls-1" d="M195.09,129.7a1.79,1.79,0,1,1-1.79-1.79A1.79,1.79,0,0,1,195.09,129.7Z"/><path class="cls-1" d="M199.14,126.35a2,2,0,1,1-2-2A2,2,0,0,1,199.14,126.35Z"/><path class="cls-1" d="M201.72,130.12a1.75,1.75,0,1,1-1.75-1.75A1.75,1.75,0,0,1,201.72,130.12Z"/><path class="cls-1" d="M153,130.25a1.53,1.53,0,1,1-1-1.91A1.53,1.53,0,0,1,153,130.25Z"/><path class="cls-1" d="M168.29,130.06a1.75,1.75,0,1,1-1.71-1.42A1.59,1.59,0,0,1,168.29,130.06Z"/><path class="cls-1" d="M180.27,130a2.18,2.18,0,1,1-2.14-1.76A2,2,0,0,1,180.27,130Z"/><path class="cls-1" d="M188.71,128a1.5,1.5,0,1,1-1.5-1.67A1.6,1.6,0,0,1,188.71,128Z"/><circle class="cls-1" cx="191.44" cy="128.64" r="1.43"/><path class="cls-1" d="M198.88,128.51a1.32,1.32,0,1,1-1.32-1.32A1.32,1.32,0,0,1,198.88,128.51Z"/><path class="cls-1" d="M202.8,128.36a1.3,1.3,0,1,1-1.3-1.46A1.39,1.39,0,0,1,202.8,128.36Z"/><polygon class="cls-2" points="202.98 134.06 172.55 32.5 171.9 32.69 171.25 32.5 140.83 134.06 142.12 134.44 171.9 35.05 201.68 134.44 202.98 134.06"/><path class="cls-3" d="M206.53,132.34c-.12-1.17-1.73-2.07-3.69-2.07H139.51c-2,0-3.57.9-3.69,2.07-.62,6.06-1.08,24.65,12.93,44.65.87,1.24,2.92,2,5.19,2h34.47c2.27,0,4.32-.81,5.19-2C207.61,157,207.15,138.4,206.53,132.34Z"/><rect class="cls-2" x="169.91" y="31.16" width="3.91" height="2.32" rx="1.16"/><rect class="cls-2" x="169.91" y="26.52" width="3.91" height="2.32" rx="1.16"/><rect class="cls-2" x="169.91" y="28.84" width="3.91" height="2.32" rx="1.16"/><polyline class="cls-2" points="171.12 0 171.12 29.61 172.61 29.61 172.61 0"/><path class="cls-4" d="M149.6,132.39a4,4,0,0,0-1.58-4.85,5.54,5.54,0,0,0-5.75-.61,10,10,0,0,0-4.34,5.16,48.1,48.1,0,0,0-2.46,7.95c-2.88,11.9-3.13,24.24-2.67,36.43.48,12.43,1.69,24.84,1.72,37.3,0,13.08-2,26.07-1.59,39.15.19,6.52.78,13,1.37,19.52l1.8,19.69.45,4.84c.07.82,1.37.83,1.29,0-1.14-12.45-2.5-24.9-3.3-37.37a158.91,158.91,0,0,1-.14-18.9c.34-6.26,1-12.5,1.24-18.77.55-11.89-.35-23.77-1-35.63s-1.2-23.63.23-35.36a79.51,79.51,0,0,1,3.71-16.85c.75-2.13,1.82-4.43,3.78-5.69a4.3,4.3,0,0,1,5.6.77,2.4,2.4,0,0,1,.57,2.56c-.33.76.79,1.42,1.12.66Z"/><circle class="cls-1" cx="141.47" cy="126.05" r="1.73"/><circle class="cls-1" cx="138.56" cy="136.53" r="1.49"/><path class="cls-1" d="M138.93,131.25a1.58,1.58,0,1,1-1.58-1.58A1.58,1.58,0,0,1,138.93,131.25Z"/><path class="cls-1" d="M135.69,140.77a1.51,1.51,0,1,1-1.49-1.8A1.66,1.66,0,0,1,135.69,140.77Z"/><path class="cls-1" d="M137.82,146.24a1.5,1.5,0,1,1-1.49-1.68A1.6,1.6,0,0,1,137.82,146.24Z"/><path class="cls-1" d="M134.32,150.28a1.61,1.61,0,1,1-1.6-1.6A1.6,1.6,0,0,1,134.32,150.28Z"/><path class="cls-1" d="M146.32,129.07a1.66,1.66,0,1,1-1.66-1.66A1.65,1.65,0,0,1,146.32,129.07Z"/><path class="cls-1" d="M137.16,156.24a1.68,1.68,0,1,1-1.68-1.8A1.74,1.74,0,0,1,137.16,156.24Z"/><path class="cls-1" d="M133.45,160.67a1.5,1.5,0,1,1-1.5-1.6A1.55,1.55,0,0,1,133.45,160.67Z"/><path class="cls-1" d="M136.05,166.73a1.46,1.46,0,1,1-1.45-1.46A1.45,1.45,0,0,1,136.05,166.73Z"/><path class="cls-1" d="M133.39,172.94a1.38,1.38,0,1,1-1.36-1.63A1.51,1.51,0,0,1,133.39,172.94Z"/><circle class="cls-1" cx="132.63" cy="184.76" r="1.38"/><path class="cls-1" d="M136.23,178.9a1.36,1.36,0,0,1-2.71,0,1.36,1.36,0,1,1,2.71,0Z"/><path class="cls-1" d="M134.2,192.41a1.2,1.2,0,1,1-1.2-1.1A1.15,1.15,0,0,1,134.2,192.41Z"/><path class="cls-1" d="M134.71,197.18a1,1,0,1,0,2,0,1,1,0,0,0-2,0Z"/><path class="cls-1" d="M135,203.72a1.31,1.31,0,1,1-1.31-1.3A1.31,1.31,0,0,1,135,203.72Z"/><path class="cls-1" d="M135,208.26a1.21,1.21,0,1,0,1.21-1.21A1.21,1.21,0,0,0,135,208.26Z"/><circle class="cls-1" cx="133.91" cy="212.96" r="0.97"/><path class="cls-1" d="M135.17,218a1.12,1.12,0,1,0,1.1-1.36A1.25,1.25,0,0,0,135.17,218Z"/><circle class="cls-1" cx="133.65" cy="222.58" r="1.4"/><path class="cls-1" d="M135,228.54a1.07,1.07,0,1,0,1.07-1.07A1.07,1.07,0,0,0,135,228.54Z"/><path class="cls-1" d="M133.87,232.75a1.25,1.25,0,1,1-1.25-1.25A1.25,1.25,0,0,1,133.87,232.75Z"/><path class="cls-1" d="M136.49,238.8a1.26,1.26,0,1,1-1.26-1.26A1.25,1.25,0,0,1,136.49,238.8Z"/><path class="cls-1" d="M133.79,244.87a1.46,1.46,0,1,1-1.45-1.23A1.36,1.36,0,0,1,133.79,244.87Z"/><path class="cls-1" d="M136.6,252.23a1.31,1.31,0,1,1-1.31-1.31A1.31,1.31,0,0,1,136.6,252.23Z"/><path class="cls-1" d="M133.78,260.36a1.4,1.4,0,1,1-1.37-1.13A1.26,1.26,0,0,1,133.78,260.36Z"/><path class="cls-1" d="M137,266.66a1.23,1.23,0,1,1-1.23-1.23A1.23,1.23,0,0,1,137,266.66Z"/><path class="cls-1" d="M135.29,274.9a1.44,1.44,0,1,1-1.42-1.23A1.34,1.34,0,0,1,135.29,274.9Z"/><circle class="cls-1" cx="136.69" cy="281.24" r="1.03"/><ellipse class="cls-1" cx="135.19" cy="287.25" rx="1.21" ry="0.98"/><circle class="cls-1" cx="137.88" cy="291.92" r="0.93"/><path class="cls-1" d="M137.73,297.8a1,1,0,1,1-1-1A1,1,0,0,1,137.73,297.8Z"/><path class="cls-4" d="M152.15,130.67c0-.87,1.07-1.15,1.79-1.06,1.17.16,1.71,1.34,1.94,2.37a18.57,18.57,0,0,1,.25,4q0,2.3,0,4.59c-.13,6.13-.56,12.24-.76,18.37a138,138,0,0,0,.56,18.3c.61,6,1.35,12.05,1.49,18.12.28,12-1,24-2.13,36s-1.91,24-1.08,36,2.65,24,2,36.07c-.08,1.5-.19,3-.35,4.49-.08.83,1.22.83,1.3,0,1.29-12.55-.48-25.1-1.48-37.61a168.08,168.08,0,0,1-.53-18.91c.19-6.3.7-12.59,1.28-18.87,1.14-12.48,2.55-25,2.23-37.53-.17-6.36-1-12.66-1.6-19a143.09,143.09,0,0,1-.37-19.2c.26-6.36.69-12.71.72-19.07,0-1.49,0-3-.08-4.48a7.05,7.05,0,0,0-.91-3.37,3.29,3.29,0,0,0-4.5-1.14,2.24,2.24,0,0,0-1.09,1.9.65.65,0,0,0,1.3,0Z"/><circle class="cls-1" cx="151.85" cy="131.75" r="1.58"/><circle class="cls-1" cx="154.86" cy="127.74" r="1.83"/><circle class="cls-1" cx="158.57" cy="134.34" r="1.5"/><circle class="cls-1" cx="154.74" cy="139.55" r="1.71"/><path class="cls-1" d="M156.73,145.86c0,1,.58,1.89,1.31,1.89s1.31-.85,1.31-1.89S158.76,144,158,144,156.73,144.81,156.73,145.86Z"/><path class="cls-1" d="M156.23,151.48a1.6,1.6,0,1,1-1.6-1.6A1.6,1.6,0,0,1,156.23,151.48Z"/><path class="cls-1" d="M156.23,157.69a1.56,1.56,0,1,0,1.56-1.56A1.56,1.56,0,0,0,156.23,157.69Z"/><circle class="cls-1" cx="153.56" cy="163.56" r="2.06"/><circle class="cls-1" cx="157.68" cy="168.95" r="1.69"/><path class="cls-1" d="M156.45,175.26a1.51,1.51,0,1,1-1.51-1.51A1.51,1.51,0,0,1,156.45,175.26Z"/><path class="cls-1" d="M157.26,182.09A1.79,1.79,0,1,0,159,180.3,1.78,1.78,0,0,0,157.26,182.09Z"/><ellipse class="cls-1" cx="155.61" cy="189.37" rx="2.05" ry="1.81"/><circle class="cls-1" cx="159.57" cy="195.08" r="1.47"/><path class="cls-1" d="M161.48,210.66a1.91,1.91,0,1,1-1.91-1.9A1.91,1.91,0,0,1,161.48,210.66Z"/><path class="cls-1" d="M155.34,201.74a1.38,1.38,0,1,0,1.37-1.58A1.49,1.49,0,0,0,155.34,201.74Z"/><ellipse class="cls-1" cx="155.96" cy="218.38" rx="1.43" ry="1.71"/><path class="cls-1" d="M159.08,226.77a1.42,1.42,0,1,1-1.42-1.53A1.47,1.47,0,0,1,159.08,226.77Z"/><path class="cls-1" d="M155.64,233.07a1.32,1.32,0,1,1-1.3-1.58A1.46,1.46,0,0,1,155.64,233.07Z"/><circle class="cls-1" cx="156.41" cy="240.55" r="1.25"/><circle class="cls-1" cx="153.53" cy="247.44" r="1.26"/><path class="cls-1" d="M157,254.27a1.24,1.24,0,1,1-1.24-1.23A1.24,1.24,0,0,1,157,254.27Z"/><ellipse class="cls-1" cx="153.41" cy="260.79" rx="1.13" ry="1.2"/><circle class="cls-1" cx="156.03" cy="267.31" r="1.24"/><path class="cls-1" d="M155.52,274.48a1.5,1.5,0,1,1-1.48-1.3A1.4,1.4,0,0,1,155.52,274.48Z"/><circle class="cls-1" cx="157.19" cy="280.95" r="1.16"/><path class="cls-1" d="M155.79,288.82c-.64.11-1.27-.49-1.41-1.32a1.39,1.39,0,0,1,.88-1.72c.64-.11,1.27.48,1.41,1.32A1.4,1.4,0,0,1,155.79,288.82Z"/><circle class="cls-1" cx="157.92" cy="293.06" r="1.29"/><ellipse class="cls-1" cx="155.92" cy="299.06" rx="1.14" ry="1.02"/><path class="cls-1" d="M157,304.5a.9.9,0,1,0,.89-.9A.89.89,0,0,0,157,304.5Z"/><circle class="cls-1" cx="155.98" cy="308.3" r="0.9"/><path class="cls-4" d="M148.23,128.84c-3.65,4-3.57,10-3.9,15.09q-.65,9.93-.87,19.89-.45,19.91.78,39.81c.41,6.59,1.11,13.16,1.43,19.75A136.34,136.34,0,0,1,145,243c-.62,6.52-1.47,13-2.06,19.54a172.31,172.31,0,0,0-.61,19.68c.35,13.15,1.77,26.3.9,39.46-.12,1.67-.27,3.34-.46,5-.09.83,1.21.82,1.3,0,1.47-13,.32-26-.25-39a187.1,187.1,0,0,1,0-19.53c.39-6.48,1.18-12.92,1.88-19.36a189.17,189.17,0,0,0,1.36-19.18c.05-6.51-.63-13-1.12-19.48q-1.48-19.67-1.33-39.41.07-9.85.57-19.71c.16-3.25.36-6.49.59-9.74a29.37,29.37,0,0,1,1.3-8,10.21,10.21,0,0,1,2-3.43c.56-.61-.35-1.53-.92-.91Z"/><path class="cls-1" d="M149.06,134.39a1.55,1.55,0,1,1-1.55-1.55A1.54,1.54,0,0,1,149.06,134.39Z"/><path class="cls-1" d="M145.26,138.69a1.69,1.69,0,1,1-1.69-1.69A1.68,1.68,0,0,1,145.26,138.69Z"/><path class="cls-1" d="M144.72,144.34a1.75,1.75,0,1,0,1.74-1.75A1.74,1.74,0,0,0,144.72,144.34Z"/><path class="cls-1" d="M144.26,150.08a1.65,1.65,0,1,1-1.65-1.65A1.65,1.65,0,0,1,144.26,150.08Z"/><path class="cls-1" d="M144.11,154.64a1.71,1.71,0,1,0,3.41,0,1.71,1.71,0,0,0-3.41,0Z"/><circle class="cls-1" cx="149.13" cy="130.95" r="1.92"/><path class="cls-1" d="M144.26,160.21a1.42,1.42,0,1,1-1.41-1.42A1.41,1.41,0,0,1,144.26,160.21Z"/><path class="cls-1" d="M144.09,167.88a1.53,1.53,0,1,0,1.53-1.44A1.49,1.49,0,0,0,144.09,167.88Z"/><ellipse class="cls-1" cx="142.27" cy="173.62" rx="1.61" ry="1.45"/><circle class="cls-1" cx="145.62" cy="180.6" r="1.67"/><path class="cls-1" d="M144.42,189.85a1.81,1.81,0,1,1-1.81-1.81A1.81,1.81,0,0,1,144.42,189.85Z"/><path class="cls-1" d="M144.27,197.68a1.55,1.55,0,1,0,1.55-1.54A1.55,1.55,0,0,0,144.27,197.68Z"/><path class="cls-1" d="M145.38,204.22a1.51,1.51,0,1,1-1.5-1.51A1.5,1.5,0,0,1,145.38,204.22Z"/><path class="cls-1" d="M148.84,211.58a1.58,1.58,0,1,1-1.57-1.71A1.65,1.65,0,0,1,148.84,211.58Z"/><path class="cls-1" d="M146.17,219.46a1.93,1.93,0,1,1-1.93-1.82A1.87,1.87,0,0,1,146.17,219.46Z"/><path class="cls-1" d="M149.63,226.92a1.44,1.44,0,1,1-1.42-1.68A1.56,1.56,0,0,1,149.63,226.92Z"/><path class="cls-1" d="M146.6,234a1.35,1.35,0,1,1-1.32-1.65A1.51,1.51,0,0,1,146.6,234Z"/><ellipse class="cls-1" cx="147.51" cy="241.59" rx="1.63" ry="1.77"/><path class="cls-1" d="M144.38,246.76a1.7,1.7,0,1,1-2.06,1A1.62,1.62,0,0,1,144.38,246.76Z"/><path class="cls-1" d="M146.6,256.64a1.13,1.13,0,0,1-2.26,0,1.13,1.13,0,0,1,2.26,0Z"/><path class="cls-1" d="M143.53,262.23a1.24,1.24,0,1,1-1.23-1.44A1.35,1.35,0,0,1,143.53,262.23Z"/><path class="cls-1" d="M146.22,269a1.35,1.35,0,1,1-1.35-1.44A1.39,1.39,0,0,1,146.22,269Z"/><circle class="cls-1" cx="142.34" cy="276.2" r="1.41"/><circle class="cls-1" cx="144.5" cy="283.72" r="1.32"/><path class="cls-1" d="M140.94,289.9a1.17,1.17,0,0,0,2.33,0,1.17,1.17,0,1,0-2.33,0Z"/><path class="cls-1" d="M146.43,296.38a1.46,1.46,0,1,1-1.45-1.65A1.57,1.57,0,0,1,146.43,296.38Z"/><path class="cls-1" d="M141.71,303.63a1,1,0,0,0,2,0,1,1,0,0,0-2,0Z"/><path class="cls-1" d="M146.68,310.29a1.09,1.09,0,1,1-1.09-1.09A1.09,1.09,0,0,1,146.68,310.29Z"/><circle class="cls-1" cx="143.13" cy="316.88" r="1.03"/><path class="cls-1" d="M146.11,321.93a1.08,1.08,0,1,1-1.07-1.08A1.07,1.07,0,0,1,146.11,321.93Z"/><path class="cls-1" d="M142.28,327.08a1,1,0,1,0,1-1A1,1,0,0,0,142.28,327.08Z"/><path class="cls-1" d="M146.81,128.41a1.43,1.43,0,1,0-1.43,1.42A1.42,1.42,0,0,0,146.81,128.41Z"/><path class="cls-4" d="M179.49,131c-.8-1.87,1.35-3.44,3-3.76,2.17-.41,4,1.26,5,3a25.34,25.34,0,0,1,2.49,6.64,81.34,81.34,0,0,1,1.77,8c1.86,11,1.63,22.18,1.06,33.25s-1.56,22.27-1.36,33.43c.11,5.9.63,11.77,1,17.65a159.52,159.52,0,0,1,.37,17.63c-.25,5.87-.8,11.72-1.33,17.57s-1.07,11.71-1.61,17.57c-.13,1.46-.27,2.93-.4,4.39-.07.78,1.15.78,1.22,0q.84-9.25,1.69-18.51c.56-6.16,1.18-12.33,1.52-18.51a152.82,152.82,0,0,0-.12-18.41c-.4-6.16-1-12.31-1.14-18.49-.28-11.71.79-23.38,1.37-35.07.59-11.52.72-23.17-1.45-34.55a78.71,78.71,0,0,0-2-8.28,17.65,17.65,0,0,0-2.84-6.08,5.83,5.83,0,0,0-5.19-2.46,5.22,5.22,0,0,0-4.23,3.14,3.36,3.36,0,0,0,.15,2.47c.3.72,1.35.1,1.05-.62Z"/><circle class="cls-1" cx="186.07" cy="125.62" r="1.63"/><path class="cls-1" d="M187.42,135.47a1.4,1.4,0,1,0,1.4-1.4A1.39,1.39,0,0,0,187.42,135.47Z"/><path class="cls-1" d="M188.46,130.51A1.49,1.49,0,1,0,190,129,1.49,1.49,0,0,0,188.46,130.51Z"/><path class="cls-1" d="M191.51,139.46a1.42,1.42,0,1,0,1.4-1.69A1.57,1.57,0,0,0,191.51,139.46Z"/><path class="cls-1" d="M189.51,144.61a1.41,1.41,0,1,0,1.4-1.58A1.5,1.5,0,0,0,189.51,144.61Z"/><path class="cls-1" d="M192.8,148.41a1.51,1.51,0,1,0,1.51-1.51A1.51,1.51,0,0,0,192.8,148.41Z"/><circle class="cls-1" cx="183.07" cy="128.46" r="1.55"/><ellipse class="cls-1" cx="191.71" cy="154.01" rx="1.58" ry="1.69"/><path class="cls-1" d="M193.62,158.17a1.41,1.41,0,1,0,1.41-1.5A1.46,1.46,0,0,0,193.62,158.17Z"/><path class="cls-1" d="M191.17,163.87a1.37,1.37,0,1,0,1.37-1.37A1.37,1.37,0,0,0,191.17,163.87Z"/><path class="cls-1" d="M193.58,170.9a1.29,1.29,0,1,0,1.27-1.53A1.43,1.43,0,0,0,193.58,170.9Z"/><path class="cls-1" d="M193.09,184.29a1.57,1.57,0,1,0,1.56-1.72A1.65,1.65,0,0,0,193.09,184.29Z"/><path class="cls-1" d="M190.41,176.59A1.57,1.57,0,1,0,192,175,1.57,1.57,0,0,0,190.41,176.59Z"/><path class="cls-1" d="M193,190.71a1.81,1.81,0,1,1-1.81-1.8A1.81,1.81,0,0,1,193,190.71Z"/><path class="cls-1" d="M192.2,198.35a1.24,1.24,0,1,0,1.2-1.53A1.39,1.39,0,0,0,192.2,198.35Z"/><circle class="cls-1" cx="190.82" cy="202.68" r="1.37"/><path class="cls-1" d="M192.28,207.19a1.06,1.06,0,1,0,1.06-1.07A1.06,1.06,0,0,0,192.28,207.19Z"/><path class="cls-1" d="M192,211.86a1.45,1.45,0,1,1-1.45-1.44A1.45,1.45,0,0,1,192,211.86Z"/><path class="cls-1" d="M192.12,216.39a1.31,1.31,0,1,0,1.31-1.31A1.31,1.31,0,0,0,192.12,216.39Z"/><path class="cls-1" d="M192.2,221.3a1.69,1.69,0,1,1-1.69-1.69A1.69,1.69,0,0,1,192.2,221.3Z"/><circle class="cls-1" cx="194.4" cy="225.95" r="1.18"/><path class="cls-1" d="M190,231.23a1.59,1.59,0,1,0,1.59-1.59A1.59,1.59,0,0,0,190,231.23Z"/><path class="cls-1" d="M193.3,237.35a1.38,1.38,0,1,0,1.36-1.16A1.27,1.27,0,0,0,193.3,237.35Z"/><path class="cls-1" d="M190.66,244.27a1.23,1.23,0,1,0,1.23-1.23A1.24,1.24,0,0,0,190.66,244.27Z"/><path class="cls-1" d="M193.31,251.91a1.31,1.31,0,1,0,1.29-1.06A1.2,1.2,0,0,0,193.31,251.91Z"/><circle class="cls-1" cx="191.49" cy="257.83" r="1.16"/><path class="cls-1" d="M191.89,265.59a1.35,1.35,0,1,0,1.34-1.17A1.26,1.26,0,0,0,191.89,265.59Z"/><path class="cls-1" d="M189.61,271.54a1,1,0,1,0,1-1A1,1,0,0,0,189.61,271.54Z"/><path class="cls-1" d="M190.85,277.2a1.16,1.16,0,1,0,1.14-.93A1,1,0,0,0,190.85,277.2Z"/><path class="cls-1" d="M188.57,281.59a.88.88,0,1,0,.88-.88A.88.88,0,0,0,188.57,281.59Z"/><path class="cls-1" d="M189.6,287.11a1,1,0,1,0,1-1A1,1,0,0,0,189.6,287.11Z"/><path class="cls-4" d="M180,130.88c-.06-1.84-2-2.72-3.62-2.41-2.36.44-3.05,3.09-3.19,5.15-.22,3.2-.09,6.47,0,9.68s.27,6.66.43,10a188.15,188.15,0,0,1,.23,20.15c-.38,6.68-1.42,13.29-1.84,20-.83,13.13.43,26.26,1.66,39.32s2.39,26.33,1.59,39.55-2.91,26.24-2.27,39.43c.08,1.63.2,3.26.37,4.89.09.86,1.45.87,1.36,0-1.3-12.61.35-25.22,1.42-37.77a186.46,186.46,0,0,0,.75-18.91c-.11-6.29-.55-12.58-1.1-18.86-1.09-12.54-2.6-25.08-2.69-37.68a166.33,166.33,0,0,1,1.09-18.93,165.26,165.26,0,0,0,1.2-19.13c0-6.42-.49-12.82-.74-19.23-.13-3.21-.22-6.42-.19-9.63,0-1.85-.37-6.32,2.29-6.68.76-.1,1.85.2,1.88,1.11a.68.68,0,0,0,1.36,0Z"/><circle class="cls-1" cx="178.9" cy="132.01" r="1.66"/><circle class="cls-1" cx="175.75" cy="127.81" r="1.92"/><path class="cls-1" d="M170.29,134.73a1.58,1.58,0,1,0,1.57-1.58A1.57,1.57,0,0,0,170.29,134.73Z"/><circle class="cls-1" cx="175.87" cy="140.19" r="1.79"/><path class="cls-1" d="M173.79,146.79c0,1.1-.61,2-1.37,2s-1.37-.88-1.37-2,.61-2,1.37-2S173.79,145.7,173.79,146.79Z"/><path class="cls-1" d="M174.31,152.68A1.68,1.68,0,1,0,176,151,1.68,1.68,0,0,0,174.31,152.68Z"/><path class="cls-1" d="M174.31,159.19a1.63,1.63,0,1,1-1.63-1.63A1.63,1.63,0,0,1,174.31,159.19Z"/><path class="cls-1" d="M175,165.33a2.16,2.16,0,1,0,2.16-2.16A2.16,2.16,0,0,0,175,165.33Z"/><circle class="cls-1" cx="172.79" cy="170.98" r="1.78"/><circle class="cls-1" cx="175.66" cy="177.6" r="1.58"/><path class="cls-1" d="M173.24,184.74a1.87,1.87,0,1,1-1.87-1.87A1.87,1.87,0,0,1,173.24,184.74Z"/><ellipse class="cls-1" cx="174.96" cy="192.38" rx="2.15" ry="1.89"/><path class="cls-1" d="M172.35,198.35a1.54,1.54,0,1,1-1.53-1.53A1.53,1.53,0,0,1,172.35,198.35Z"/><path class="cls-1" d="M168.82,214.68a2,2,0,1,0,2-2A2,2,0,0,0,168.82,214.68Z"/><path class="cls-1" d="M175.25,205.33a1.45,1.45,0,1,1-1.44-1.65A1.56,1.56,0,0,1,175.25,205.33Z"/><path class="cls-1" d="M174.6,224.55a1.82,1.82,0,1,0-1.49-1.79A1.66,1.66,0,0,0,174.6,224.55Z"/><ellipse class="cls-1" cx="172.81" cy="231.56" rx="1.49" ry="1.6"/><path class="cls-1" d="M174.94,238.15a1.38,1.38,0,1,0,1.35-1.65A1.52,1.52,0,0,0,174.94,238.15Z"/><path class="cls-1" d="M172.81,246a1.32,1.32,0,1,0,1.32-1.31A1.32,1.32,0,0,0,172.81,246Z"/><path class="cls-1" d="M175.82,253.21a1.32,1.32,0,1,0,1.32-1.32A1.32,1.32,0,0,0,175.82,253.21Z"/><circle class="cls-1" cx="174.78" cy="260.36" r="1.3"/><path class="cls-1" d="M176.09,267.19a1.19,1.19,0,1,0,1.18-1.26A1.22,1.22,0,0,0,176.09,267.19Z"/><path class="cls-1" d="M175.82,274a1.3,1.3,0,1,1-1.3-1.3A1.3,1.3,0,0,1,175.82,274Z"/><ellipse class="cls-1" cx="176.61" cy="281.53" rx="1.56" ry="1.36"/><circle class="cls-1" cx="173.31" cy="288.31" r="1.21"/><path class="cls-1" d="M174.78,296.55c.66.11,1.32-.51,1.47-1.38a1.45,1.45,0,0,0-.92-1.8c-.66-.12-1.32.5-1.48,1.38A1.46,1.46,0,0,0,174.78,296.55Z"/><path class="cls-1" d="M173.89,301a1.35,1.35,0,1,1-1.35-1.35A1.35,1.35,0,0,1,173.89,301Z"/><ellipse class="cls-1" cx="174.63" cy="307.28" rx="1.19" ry="1.07"/><path class="cls-1" d="M173.48,313a.94.94,0,1,1-.94-.94A.94.94,0,0,1,173.48,313Z"/><circle class="cls-1" cx="174.58" cy="316.96" r="0.94"/><path class="cls-4" d="M195.73,131.25a12.12,12.12,0,0,1,2.69,6.55c.41,2.77.5,5.61.66,8.4q.55,9,.71,18.06.33,18.06-.84,36.12c-.39,5.91-1,11.81-1.27,17.73a128.71,128.71,0,0,0,.72,17.77c.57,5.91,1.34,11.81,1.85,17.73a154.34,154.34,0,0,1,.49,17.86c-.34,11.93-1.61,23.87-.79,35.81.1,1.47.23,2.94.4,4.41.08.75,1.27.76,1.18,0-1.36-12-.27-24.1.25-36.14a170.19,170.19,0,0,0-.05-18.07c-.38-6-1.12-12-1.77-17.91a165.54,165.54,0,0,1-1.17-17.93c0-6,.69-12,1.13-18,.88-12.13,1.25-24.31,1.1-36.47q-.11-9.12-.6-18.24c-.15-2.95-.32-5.9-.57-8.84a21.09,21.09,0,0,0-1.42-6.75,10.31,10.31,0,0,0-1.86-2.88c-.52-.57-1.35.27-.84.84Z"/><path class="cls-1" d="M195.81,135.5a1.42,1.42,0,1,0,1.42-1.42A1.42,1.42,0,0,0,195.81,135.5Z"/><path class="cls-1" d="M199.29,139.44a1.55,1.55,0,1,0,1.55-1.55A1.54,1.54,0,0,0,199.29,139.44Z"/><path class="cls-1" d="M199.79,144.61a1.6,1.6,0,1,1-1.6-1.59A1.6,1.6,0,0,1,199.79,144.61Z"/><circle class="cls-1" cx="201.72" cy="149.88" r="1.51"/><path class="cls-1" d="M200.34,154.06a1.56,1.56,0,1,1-1.56-1.56A1.56,1.56,0,0,1,200.34,154.06Z"/><path class="cls-1" d="M195,130.51a1.76,1.76,0,1,1,1.76,1.76A1.75,1.75,0,0,1,195,130.51Z"/><path class="cls-1" d="M200.21,159.16a1.3,1.3,0,1,0,1.29-1.3A1.29,1.29,0,0,0,200.21,159.16Z"/><ellipse class="cls-1" cx="198.97" cy="166.18" rx="1.4" ry="1.32"/><ellipse class="cls-1" cx="202.04" cy="171.45" rx="1.48" ry="1.33"/><path class="cls-1" d="M200.5,177.84a1.54,1.54,0,1,1-1.53-1.53A1.53,1.53,0,0,1,200.5,177.84Z"/><path class="cls-1" d="M200.06,186.32a1.66,1.66,0,1,0,1.66-1.66A1.66,1.66,0,0,0,200.06,186.32Z"/><circle class="cls-1" cx="198.78" cy="193.5" r="1.42"/><path class="cls-1" d="M199.18,199.49a1.39,1.39,0,1,0,1.38-1.38A1.38,1.38,0,0,0,199.18,199.49Z"/><path class="cls-1" d="M196,206.23a1.44,1.44,0,1,0,1.43-1.57A1.5,1.5,0,0,0,196,206.23Z"/><path class="cls-1" d="M198.46,213.46a1.77,1.77,0,1,0,1.76-1.67A1.72,1.72,0,0,0,198.46,213.46Z"/><path class="cls-1" d="M195.29,220.29a1.32,1.32,0,1,0,1.3-1.53A1.43,1.43,0,0,0,195.29,220.29Z"/><path class="cls-1" d="M198.06,226.76a1.24,1.24,0,1,0,1.21-1.52A1.39,1.39,0,0,0,198.06,226.76Z"/><ellipse class="cls-1" cx="197.23" cy="233.74" rx="1.49" ry="1.62"/><path class="cls-1" d="M200.1,238.47a1.56,1.56,0,1,0,1.89.92A1.48,1.48,0,0,0,200.1,238.47Z"/><path class="cls-1" d="M198.06,247.53a1,1,0,1,0,1-1A1,1,0,0,0,198.06,247.53Z"/><path class="cls-1" d="M200.88,252.65a1.14,1.14,0,1,0,1.12-1.32A1.23,1.23,0,0,0,200.88,252.65Z"/><path class="cls-1" d="M198.42,258.84a1.23,1.23,0,1,0,1.23-1.32A1.28,1.28,0,0,0,198.42,258.84Z"/><circle class="cls-1" cx="201.97" cy="265.46" r="1.29"/><path class="cls-1" d="M198.78,272.34a1.21,1.21,0,1,0,1.21-1.2A1.21,1.21,0,0,0,198.78,272.34Z"/><circle class="cls-1" cx="202.19" cy="278.01" r="1.07"/><path class="cls-1" d="M198.22,284a1.34,1.34,0,1,0,1.33-1.52A1.43,1.43,0,0,0,198.22,284Z"/><path class="cls-1" d="M202.55,290.59a.94.94,0,1,1-.94-.93A.94.94,0,0,1,202.55,290.59Z"/><circle class="cls-1" cx="198.99" cy="296.69" r="1"/><path class="cls-1" d="M202.19,302.73a.95.95,0,1,1-.94-.94A.94.94,0,0,1,202.19,302.73Z"/><path class="cls-1" d="M198.52,307.36a1,1,0,1,0,1-1A1,1,0,0,0,198.52,307.36Z"/><circle class="cls-1" cx="201.12" cy="312.08" r="0.91"/><path class="cls-4" d="M193.73,130.94a4.51,4.51,0,0,1,4.61-3.43c2.38,0,4.35,1.83,5.47,3.78,1.41,2.47,1.63,5.4,1.72,8.18.09,3.07.11,6.15.16,9.22.16,12.37.16,24.74.11,37.11s-.23,24.58-.2,36.87q0,9.17.84,18.29c.55,6.06,1.27,12.12,1.77,18.19a127.18,127.18,0,0,1-1.77,36.17c-.3,1.48-.64,3-1,4.42-.19.81,1.05,1.16,1.25.35a122.86,122.86,0,0,0,3.08-37.4c-.84-12.69-2.76-25.25-2.87-38s.13-25.6.19-38.39c.06-12.95.06-25.89-.13-38.84,0-3.2,0-6.42-.21-9.61a15.84,15.84,0,0,0-2.08-7.66,8.36,8.36,0,0,0-5.26-3.89,6.32,6.32,0,0,0-5.57,1.71,4.89,4.89,0,0,0-1.36,2.56c-.15.82,1.1,1.17,1.25.35Z"/><path class="cls-4" d="M168.83,130.23c.58-2-1.52-3.4-3.35-3.31-2.62.14-3.53,3-3.6,5.2-.11,3.52.61,7.17,1.09,10.65.55,3.93,1.15,7.84,1.55,11.78.79,7.85.21,15.64-.14,23.49s-.36,15.75-.34,23.62q.08,23.75.14,47.48c.07,15.82.22,31.63.78,47.44s1.57,31.55,3.12,47.27c.2,2,.4,3.91.61,5.87.09.82,1.38.83,1.29,0q-2.39-22.43-3.4-45c-.68-15.07-.93-30.15-1.05-45.22s-.11-30.23-.16-45.35c0-7.52-.07-15,0-22.57s.45-15,.77-22.51a120.48,120.48,0,0,0-1.23-22c-.53-3.71-1.09-7.41-1.47-11.14-.2-2-1.12-7.49,2.06-7.76,1-.08,2.44.5,2.1,1.67a.65.65,0,0,0,1.25.34Z"/><path class="cls-4" d="M181.56,130.83c5.69,10.54,3.55,23,2,34.3a160.81,160.81,0,0,0-1.56,19c-.13,6.8,0,13.61.07,20.41q.19,20.43.43,40.84t.54,40.84q.3,20.52.64,41l.09,5a.65.65,0,0,0,1.29,0q-.34-20.62-.65-41.24t-.56-41.24q-.24-20.62-.44-41.24c-.13-13.44-.7-27,1-40.33,1.44-11.2,4.06-23.29,0-34.24a29.73,29.73,0,0,0-1.74-3.81c-.4-.74-1.51-.09-1.12.65Z"/><ellipse class="cls-1" cx="168.06" cy="130.93" rx="1.53" ry="1.63"/><path class="cls-1" d="M164.48,127.57a1.51,1.51,0,1,1-1.51-1.51A1.51,1.51,0,0,1,164.48,127.57Z"/><path class="cls-1" d="M162.47,131.39a1.38,1.38,0,0,1-2.75,0,1.38,1.38,0,1,1,2.75,0Z"/><path class="cls-1" d="M183.75,131.1a1.54,1.54,0,1,1-1.53-1.66A1.6,1.6,0,0,1,183.75,131.1Z"/><path class="cls-1" d="M194.75,131a1.28,1.28,0,1,1-1.28-1.28A1.27,1.27,0,0,1,194.75,131Z"/><ellipse class="cls-1" cx="194.29" cy="126.75" rx="1.18" ry="1.37"/><path class="cls-1" d="M166.07,138a1.51,1.51,0,1,1-1.51-1.52A1.52,1.52,0,0,1,166.07,138Z"/><path class="cls-1" d="M164,144.73a1.64,1.64,0,1,1-1.64-1.7A1.67,1.67,0,0,1,164,144.73Z"/><path class="cls-1" d="M168.21,153.31a1.58,1.58,0,1,1-1.58-1.58A1.58,1.58,0,0,1,168.21,153.31Z"/><path class="cls-1" d="M165.72,161a1.45,1.45,0,1,1-1.44-1.52A1.48,1.48,0,0,1,165.72,161Z"/><path class="cls-1" d="M168.86,167.06a1.58,1.58,0,1,1-1.57-1.44A1.52,1.52,0,0,1,168.86,167.06Z"/><circle class="cls-1" cx="163.47" cy="174.56" r="1.8"/><path class="cls-1" d="M168.29,184.1a1.66,1.66,0,1,1-1.65-1.58A1.62,1.62,0,0,1,168.29,184.1Z"/><circle class="cls-1" cx="163.27" cy="191.75" r="1.59"/><path class="cls-1" d="M168,201.07a1.79,1.79,0,1,1-1.79-1.65A1.72,1.72,0,0,1,168,201.07Z"/><path class="cls-1" d="M165,208.19a1.45,1.45,0,1,1-1.45-1.52A1.48,1.48,0,0,1,165,208.19Z"/><path class="cls-1" d="M168,216.29a1.74,1.74,0,1,1-1.74-1.73A1.74,1.74,0,0,1,168,216.29Z"/><path class="cls-1" d="M164.84,225.23a1.9,1.9,0,1,1-1.9-1.9A1.9,1.9,0,0,1,164.84,225.23Z"/><path class="cls-1" d="M168,233.66a1.63,1.63,0,1,1-1.63-1.78A1.71,1.71,0,0,1,168,233.66Z"/><path class="cls-1" d="M164.78,241.12a1.82,1.82,0,1,1-1.82-1.7A1.77,1.77,0,0,1,164.78,241.12Z"/><path class="cls-1" d="M168.08,250.84a1.59,1.59,0,1,1-1.58-1.46A1.52,1.52,0,0,1,168.08,250.84Z"/><path class="cls-1" d="M165.26,258.73a1.38,1.38,0,1,1-1.37-1.57A1.47,1.47,0,0,1,165.26,258.73Z"/><path class="cls-1" d="M167.69,266.14a1.38,1.38,0,1,1-1.38-1.48A1.43,1.43,0,0,1,167.69,266.14Z"/><ellipse class="cls-1" cx="163.86" cy="274.39" rx="1.48" ry="1.67"/><path class="cls-1" d="M168.33,282.51a1.64,1.64,0,1,1-1.64-1.56A1.6,1.6,0,0,1,168.33,282.51Z"/><ellipse class="cls-1" cx="164.26" cy="291.72" rx="1.5" ry="1.64"/><circle class="cls-1" cx="167.04" cy="301.1" r="1.46"/><circle class="cls-1" cx="164.73" cy="310.78" r="1.58"/><path class="cls-1" d="M170,320.54a1.63,1.63,0,1,1-1.63-1.63A1.63,1.63,0,0,1,170,320.54Z"/><ellipse class="cls-1" cx="165.88" cy="329.35" rx="1.81" ry="1.67"/><path class="cls-1" d="M171.11,337.31a1.57,1.57,0,1,1-1.57-1.57A1.57,1.57,0,0,1,171.11,337.31Z"/><path class="cls-1" d="M169.24,344.23a1.27,1.27,0,1,1-1.27-1.34A1.31,1.31,0,0,1,169.24,344.23Z"/><path class="cls-1" d="M171.5,350.3a1.35,1.35,0,1,1-1.35-1.46A1.41,1.41,0,0,1,171.5,350.3Z"/><path class="cls-1" d="M184.69,137a1.49,1.49,0,1,1-1.49-1.49A1.49,1.49,0,0,1,184.69,137Z"/><path class="cls-1" d="M188.66,143.91a1.42,1.42,0,1,1-1.42-1.42A1.41,1.41,0,0,1,188.66,143.91Z"/><ellipse class="cls-1" cx="183.75" cy="149.2" rx="2.04" ry="1.99"/><circle class="cls-1" cx="186.88" cy="156.93" r="1.44"/><path class="cls-1" d="M184.35,164.29a1.52,1.52,0,1,1-1.52-1.67A1.59,1.59,0,0,1,184.35,164.29Z"/><circle class="cls-1" cx="185.06" cy="174.56" r="1.8"/><path class="cls-1" d="M182.83,184.42a1.78,1.78,0,1,1-1.78-1.9A1.84,1.84,0,0,1,182.83,184.42Z"/><path class="cls-1" d="M186.58,194.15a2,2,0,1,1-2-2A2,2,0,0,1,186.58,194.15Z"/><path class="cls-1" d="M182.9,205.07a1.6,1.6,0,1,1-1.6-1.6A1.59,1.59,0,0,1,182.9,205.07Z"/><path class="cls-1" d="M186.8,213.84a2,2,0,1,1-2-2A2,2,0,0,1,186.8,213.84Z"/><path class="cls-1" d="M183,222.47a1.68,1.68,0,1,1-1.67-1.5A1.58,1.58,0,0,1,183,222.47Z"/><path class="cls-1" d="M185.88,229.76a1.46,1.46,0,1,1-1.46-1.46A1.46,1.46,0,0,1,185.88,229.76Z"/><path class="cls-1" d="M183.15,236.79a1.25,1.25,0,1,1-1.25-1.35A1.31,1.31,0,0,1,183.15,236.79Z"/><ellipse class="cls-1" cx="184.27" cy="246.03" rx="1.13" ry="1.2"/><path class="cls-1" d="M183.36,255.32A1.36,1.36,0,1,1,182,254,1.35,1.35,0,0,1,183.36,255.32Z"/><path class="cls-1" d="M185.93,264.94a1.29,1.29,0,1,1-1.29-1.34A1.32,1.32,0,0,1,185.93,264.94Z"/><path class="cls-1" d="M183.64,274.06a1.51,1.51,0,1,1-1.49-1.27A1.4,1.4,0,0,1,183.64,274.06Z"/><path class="cls-1" d="M185.93,284.82a1.15,1.15,0,1,1-1.14-1.15A1.14,1.14,0,0,1,185.93,284.82Z"/><path class="cls-1" d="M184.07,291.79a1.29,1.29,0,1,1-1.29-1.2A1.25,1.25,0,0,1,184.07,291.79Z"/><circle class="cls-1" cx="185.12" cy="299.22" r="1.35"/><path class="cls-1" d="M183.39,307.78a1.26,1.26,0,1,1,.71-1.43A1.15,1.15,0,0,1,183.39,307.78Z"/><ellipse class="cls-1" cx="184.99" cy="312.54" rx="0.92" ry="1.13"/><path class="cls-1" d="M182.27,317.94a.85.85,0,1,0,.84-1A.92.92,0,0,0,182.27,317.94Z"/><circle class="cls-1" cx="185.09" cy="323.35" r="0.92"/><circle class="cls-1" cx="183.4" cy="327.93" r="0.77"/><circle class="cls-1" cx="184.74" cy="333.04" r="0.89"/><path class="cls-1" d="M201.92,125.72a2,2,0,1,1-1.87-1.85A1.86,1.86,0,0,1,201.92,125.72Z"/><path class="cls-1" d="M205.54,131.07a2.19,2.19,0,1,1-2.14-1.69A1.95,1.95,0,0,1,205.54,131.07Z"/><circle class="cls-1" cx="207.56" cy="135.85" r="1.77"/><path class="cls-1" d="M206.13,142.49a1.56,1.56,0,1,1-3.11,0,1.56,1.56,0,1,1,3.11,0Z"/><circle class="cls-1" cx="208.01" cy="149" r="1.44"/><circle class="cls-1" cx="204.96" cy="156.13" r="1.44"/><circle class="cls-1" cx="208.13" cy="163.4" r="1.57"/><path class="cls-1" d="M204.06,171.36a1.26,1.26,0,1,0,1.25-1.41A1.33,1.33,0,0,0,204.06,171.36Z"/><path class="cls-1" d="M209.24,177.75a1.44,1.44,0,1,1-1.44-1.44A1.44,1.44,0,0,1,209.24,177.75Z"/><ellipse class="cls-1" cx="205.3" cy="185.16" rx="1.48" ry="1.64"/><path class="cls-1" d="M210.05,194.44a1.82,1.82,0,1,1-1.82-1.92A1.88,1.88,0,0,1,210.05,194.44Z"/><path class="cls-1" d="M203,203a1.68,1.68,0,1,0,1.67-1.53A1.6,1.6,0,0,0,203,203Z"/><path class="cls-1" d="M209.64,212.25a1.69,1.69,0,1,1-1.69-1.69A1.69,1.69,0,0,1,209.64,212.25Z"/><circle class="cls-1" cx="204.58" cy="221.85" r="1.56"/><path class="cls-1" d="M210.05,230.09a1.9,1.9,0,1,1-1.89-1.79A1.84,1.84,0,0,1,210.05,230.09Z"/><path class="cls-1" d="M207.25,239.8a1.49,1.49,0,1,1-1.48-1.65A1.57,1.57,0,0,1,207.25,239.8Z"/><circle class="cls-1" cx="209.62" cy="248.93" r="1.63"/><circle class="cls-1" cx="206.9" cy="256.39" r="1.57"/><path class="cls-1" d="M211.58,265.25a1.19,1.19,0,1,1-1.19-1.29A1.24,1.24,0,0,1,211.58,265.25Z"/><circle class="cls-1" cx="208.21" cy="273.75" r="1.24"/><path class="cls-1" d="M211.1,279.51a1.06,1.06,0,1,1-1-1.21A1.13,1.13,0,0,1,211.1,279.51Z"/><path class="cls-1" d="M209,284.48a.93.93,0,1,1-1.85,0,.93.93,0,1,1,1.85,0Z"/><ellipse class="cls-1" cx="209.4" cy="290.15" rx="0.99" ry="1.11"/><path class="cls-1" d="M207.46,293.74a1,1,0,1,1-1-1.11A1.06,1.06,0,0,1,207.46,293.74Z"/><circle class="cls-1" cx="207.7" cy="297.12" r="1.03"/><path class="cls-1" d="M206.34,300.42a1.11,1.11,0,1,1-2.21,0,1.11,1.11,0,1,1,2.21,0Z"/><polyline class="cls-5" points="42.44 0 14.32 72.3 13.24 71.87 41.2 0"/><polyline class="cls-5" points="67.53 0 92.04 69.98 90.95 70.37 66.31 0"/><polyline class="cls-5" points="54.45 0 54.45 70.17 55.61 70.17 55.61 0"/><path class="cls-6" d="M86.33,62.62A4.27,4.27,0,0,0,87.67,60a17.45,17.45,0,0,1-5.1-.33c.38-2.48.77-5,1.15-7.46a23.75,23.75,0,0,0-8.45,8.78,16.56,16.56,0,0,1-1.41-9.69A12,12,0,0,1,65.62,55a21.39,21.39,0,0,1,1.44-12.61,10.87,10.87,0,0,0-8.86,10.1A18.7,18.7,0,0,0,53.57,44,21.79,21.79,0,0,1,50.3,56.36l.25-7.75a10.34,10.34,0,0,0-8,9.09,23.33,23.33,0,0,0-3.66-9.33A7.93,7.93,0,0,1,34,55.2l-1.37-8.42A16.31,16.31,0,0,0,27.8,59.4a13.69,13.69,0,0,0-9.95-4,82.72,82.72,0,0,1,3.56,7.56A14.93,14.93,0,0,0,14.58,69c25.34-2.3,50.82,3.23,76.22,1.86A10.75,10.75,0,0,0,86.33,62.62Z"/><path class="cls-7" d="M14.52,69.13l.06-.1h0Z"/><path class="cls-8" d="M91.82,66.72s-13.16-.43-17.54-.65c-5.74-.29-36.52-.29-42.25,0-4.38.22-17.54.65-17.54.65a2.72,2.72,0,0,0-2.61,3.45A36.24,36.24,0,0,0,23.63,88.49c8.75,7.38,19.12,10.06,29.52,9.76,10.4.3,20.78-2.38,29.52-9.76A36.19,36.19,0,0,0,94.43,70.17,2.72,2.72,0,0,0,91.82,66.72Z"/><path class="cls-9" d="M96.49,147.34c-1.47.31-4.11,4.51-1.41,4.71a2.77,2.77,0,0,0,0,.59l-.13.12-.07,0h0l0,0-.51.33a2.78,2.78,0,0,1-1.07.57,3.86,3.86,0,0,1-.65.09l-.22,0c-.55-.57-1.08-1.15-1.57-1.73a23.57,23.57,0,0,0,.19-7.39A10.31,10.31,0,0,0,94.78,141c.66-1.23,1.14-2.92.41-4.18-1-.27-3.68,1.12-5.59,2.46-.91-2.45-2.12-4.9-3.37-7.7l.16-.08.36-.21c.21-.12.42-.23.62-.36a6,6,0,0,0,.48-.4l.15-.15.74-.65c.12-.13.23-.27.34-.4s.36-.34.54-.53l0,0a32.34,32.34,0,0,1,3.52,5c-.47-1.19.43-2.63,1.12-3.59s1.9-1.93,1.28-3.12c-1-1.44-3-.24-4.32-.73s-1.94-2.28-3.42-2.12a.63.63,0,0,0-.58.83,7.26,7.26,0,0,0,2.09,3.35l0,0-.32.33-.41.43-.08.05,0,0,0,0c-.19.15-.37.31-.56.48a5.28,5.28,0,0,1-1.12,1,7.75,7.75,0,0,1-.7.37l-.1,0c-.69-1.54-1.38-3.19-2-5a72.54,72.54,0,0,1,2.69-13,20.13,20.13,0,0,0,12.36-6.38,17.93,17.93,0,0,1-6.53-1.85,14.34,14.34,0,0,0-3.82-1.66,5,5,0,0,0-.75-.08,25.48,25.48,0,0,0,1.89-4.8A23.27,23.27,0,0,0,90.41,96h.4l.43,0a2.58,2.58,0,0,0,.38,0l.13,0,.6,0,.11,0a.94.94,0,0,0,.81,1.44c2,.34,3.8-1.11,5.71-1.77a10,10,0,0,1,7.23.58,7.3,7.3,0,0,0-6.59-3.6c-2.3.5-4.51,0-6.79-.36s-1.75,2.24-.54,3.27a2,2,0,0,0-.35,0,2.66,2.66,0,0,1-.88.08l-.48-.06H90.5a20.66,20.66,0,0,0-.71-10l.16-.1.34-.25.32-.27.3-.22.28-.23c.15-.15.3-.31.44-.48l.14-.18a9.75,9.75,0,0,0,.64-.8.21.21,0,0,0,0-.06,4.27,4.27,0,0,0,3.5.63,9.7,9.7,0,0,0,3.12-1.43c.6-.31,3.16-2.37,1.34-2.42a12.49,12.49,0,0,1-6-1.29c-.77-.38-1.66-.86-2.44-.51a1.64,1.64,0,0,0,.44,3,1.33,1.33,0,0,0-.27,1.69s0,0,0,0a3.25,3.25,0,0,0-.23.29l-.24.3a5.16,5.16,0,0,1-1,1.13l-.67.49-.34.25a18,18,0,0,0-1.72-3.42c-.82-1.26-1.65-2.52-2.5-3.76.09-.14.16-.28.24-.43s.16-.36.23-.54.15-.37.22-.55.28-.63.4-1c0-.15.09-.29.13-.44s.08-.3.11-.44l.07-.31c.07-.24.11-.48.17-.71s.1-.48.14-.72,0-.52.06-.78c0-.42.09-.87.1-1.32.23,0,.48.11.77.51a1.36,1.36,0,0,0,2.46.46c1.22-1.31,1.18-3.41.55-5.09-.76-2.18-2.51-3.79-3.76-5.68,0,2.55-1.91,4.74-3.1,6.9-1.06,1.33-1.72,4.19.51,4.59,1,.17,1.55-1,2.14-1.48l0,.52c0,.29,0,.58-.06.86l0,.14v0a.42.42,0,0,1,0,.06l-.11.52c0,.18-.07.36-.11.54a10,10,0,0,1-.57,2.12l-.17.39c-.08.2-.2.45-.31.7s-.21.45-.31.66c-1-1.41-2-2.8-3-4.16a31,31,0,0,0-.36-4.51,17.87,17.87,0,0,0-1.09-3.82A6.08,6.08,0,0,0,82,61.58a5,5,0,0,0-1.53-2.74l-.92-1,0-.07.15-.19.16-.18.31-.36.34-.34c.12-.11.23-.23.35-.33l.38-.35,0,0a2.6,2.6,0,0,0-.13,1.95c2.17,3,6.62.39,8.35-1.88,1.61-1.81,4.82-6.53,4-8.8a31.41,31.41,0,0,1-8.27.76,10.92,10.92,0,0,0-3.7.1c-3.85,1.2-1.76,4.8.58,6.33-.12.22-.26.45-.39.69a1.67,1.67,0,0,0-.16.12l-.48.37-.16.12,0,0-.07,0-.29.23a3.45,3.45,0,0,0-.28.26,4.76,4.76,0,0,0-.54.56c-.16.19-.32.39-.46.59L76.41,54.2c-.15-.23-.4-.14-.51.08C74.24,56.73,71,58,69.8,60.66c-1.85,3.56,2,8.14,5.61,6a61.86,61.86,0,0,1,5.87,6.75c0,1.72-.09,3.45-.21,5.18l-.27,0a2.11,2.11,0,0,0-.35,0l-.41,0-.4-.08a3.94,3.94,0,0,1-.68-.25l-.3-.1-.3-.1-.21-.08-.45-.25c-.14-.09-.29-.17-.43-.27s-.32-.17-.47-.28L76.64,77l-.15-.13h0l.18-.2a7.29,7.29,0,0,0,2.08-3.35.63.63,0,0,0-.58-.83c-1.48-.16-2.16,1.67-3.41,2.12s-3.38-.71-4.33.73c-.62,1.18.56,2.28,1.28,3.11s1.59,2.4,1.13,3.6a32,32,0,0,1,3.38-4.86h0c.17.14.35.26.53.39l.08.07,0,0,0,0a2.52,2.52,0,0,0,.33.24,2.67,2.67,0,0,0,.36.22c.51.24,1.05.41,1.56.6l.3.1.27.08L80,79a2.66,2.66,0,0,0,1,0c-.1,1.45-.21,2.91-.28,4.37-3.8.93-9,5.34-11.33,7.06-1.94,1,5.83,4,6.76,4a10.16,10.16,0,0,0,5.71-.39c1.15,3.08,3.24,5.78,4.48,8.83l.15.46A2.94,2.94,0,0,0,85,106.64c-.2.36-.4.72-.59,1.09h-.09l-.26,0a2.19,2.19,0,0,1-.65-.15,3.35,3.35,0,0,1-.53-.28l-.49-.22-.17-.09-.15-.09a2.11,2.11,0,0,0-1-1.5c1.45-1.91-1-3.78-2.92-3.13-2.28.73-4,2.59-6,3.88,2.37,2.26,6.43,3.64,9.49,2.13a1.42,1.42,0,0,0,.45-.85c.29.14.59.27.86.42a3.39,3.39,0,0,0,.72.3,1.88,1.88,0,0,0,.52.08,20.15,20.15,0,0,0-2.49,7.22A23.47,23.47,0,0,0,83,126.17c-.13,1.24-.21,2.49-.24,3.74l-.13,0a3.86,3.86,0,0,1-.49.1,3.23,3.23,0,0,1-.44,0l-.38,0-.14,0c-.2,0-.41,0-.62,0l-.33,0c-.24,0-.46-.1-.71-.11l-.19-.13c4.81-1.46-1.23-5.74-6.32-1.37-.91.68-1.93,1.26-2.78,2-.09.78,3.45,2.65,4.22,2.94a5.94,5.94,0,0,0,4.48.11,2,2,0,0,0,1.11-3.05l.28,0,.07,0h0a2.07,2.07,0,0,0,.5.06c.34,0,.68-.09,1-.09a3.77,3.77,0,0,0,.55,0l.26-.05a39.31,39.31,0,0,0,1,9.63,35.24,35.24,0,0,0,2.46,6.73l-.14.08-.22.13a4.17,4.17,0,0,1-.54.31l-.26.08-.27.06-.45.14-.11,0a3.07,3.07,0,0,0-.31-.32c-2.16-1.06-4.58-1.7-6.38-3.43-.25,2.27.59,6.81,3.75,5.65l-.76-1.72c1.58,3.42,5,2.15,4,.22l.67-.2a2.77,2.77,0,0,0,.67-.25,1.92,1.92,0,0,0,.56-.4,29.35,29.35,0,0,0,3.29,5.14c-.33,1.55-.74,3.1-1.15,4.63l-.07.05-.2.17a3.05,3.05,0,0,1-.49.38,3.33,3.33,0,0,1-.52.21l-.19.09a1.68,1.68,0,0,0-.49-.83.92.92,0,0,0-.4-.11c-1.12-2.63-3.21-2-4.56.16-.72,1.24-1.84,2.35-2.33,3.69.52,1.51,3.71,1.15,4.93.7s2.79-1.79,2.89-3.12l.59-.26a2.71,2.71,0,0,0,.62-.33c-1.39,5.17-2.62,10.08-.38,14,.13.17.2.15.07-.38a16.64,16.64,0,0,1-.47-3.49c-.08-3.5.9-6.73,1.82-10.14a44.38,44.38,0,0,0,1.22-4.39,19.46,19.46,0,0,0,7.27,5.21c1.83.48.32-.29-.37-.69a27.48,27.48,0,0,1-4.65-3.59l.22,0a6,6,0,0,0,.61-.13,2.87,2.87,0,0,0,.49-.26l.16-.1c.25-.14.49-.3.72-.46l.2-.2c.85,1.91,4.67,1.27,5.94-.26a9.67,9.67,0,0,0,2.38-4.58C101.22,148,98.84,147.14,96.49,147.34ZM79.33,69.73c-.73-.85-1.49-1.67-2.3-2.46a4.32,4.32,0,0,0,3.07-1.69l0,.08a23.34,23.34,0,0,1,1.12,6.42C80.62,71.29,80,70.5,79.33,69.73ZM83,94.33c-.09-.23-.18-.46-.26-.69a7.39,7.39,0,0,0,.66-.42,3,3,0,0,0-.54-5.54c1.7-1,2-3.5.1-4.36a3.8,3.8,0,0,0-1.4-.09c.13-2.87.44-5.77.51-8.66.8,1.1,1.58,2.21,2.33,3.33,3.8,5.2,6.38,9.69,5.33,16.38A29.17,29.17,0,0,1,87.39,102l-.15.32-.15-.35C86,99.29,84.09,97,83,94.33Zm2.71,14.23a3.1,3.1,0,0,0-1.16.85c.25-.5.51-1,.77-1.48A4.67,4.67,0,0,0,85.75,108.56ZM83.81,111c.06-.12.12-.24.17-.36a2,2,0,0,0,1.85,2.41c-.4,1.39-.83,2.76-1.17,4.12A66.72,66.72,0,0,0,83.29,124C82.13,119.71,81.94,115.09,83.81,111Zm0,17.28c.44,1.11.93,2.21,1.42,3.31v0c0,.06,0,.17,0,.19h.08c1.21,2.65,2.49,5.29,3.51,8A5.06,5.06,0,0,0,87.68,141a1.47,1.47,0,0,0,1.52,2.26c.14,1.07.54,1.53,1,1.6A21.35,21.35,0,0,1,90,151C84.82,144.3,83.32,136.39,83.82,128.29Z"/><path class="cls-9" d="M70,134.07c-.38-.21-2-1-1.81.19a1.07,1.07,0,0,0-.36,1.51c.19.44.36.91.53,1.37l-.05.05c-.24.28-.44.6-.67.87a4,4,0,0,0-.3.43c-1.56-4.25-3.52-8.37-4.65-12.72a45.82,45.82,0,0,1-1.21-12l.63.6c0,.06,0,.12.06.19a1.73,1.73,0,0,0,1.19,1L64,116c-1.75,3.76.85,3.92,3.59,2.63a36.43,36.43,0,0,0,3.75,2.12c2.48,1.15,6.7,1.36,7.91-1.52.08-.23.17-.66-.21-.21-2.18,2.41-5.87,1.8-8.43.3-.7-.38-1.38-.78-2-1.2a12,12,0,0,0,1.49-1c5.74-4.83-.37-9.34-5.81-7.14a4.49,4.49,0,0,0-2.2,3l-.52-.52c.06-1.7.17-3.4.31-5.09.13-1.37.29-2.74.47-4.13l.28-.11.29-.13.53-.22.21-.14.12-.09a6,6,0,0,0,5.11,1.06c2.06-.65,2,0,3.28,1.23a9.84,9.84,0,0,0-.78-4,10.3,10.3,0,0,0-6.55-4.44,2.4,2.4,0,0,0-1.54.3c.48-3.21,1-6.45,1.31-9.69.65,1.9,3.28,1,4-.67,1.76-3.06,1.39-6.88,1.1-10.29A25,25,0,0,1,65,80.87a47,47,0,0,0-.73-10.21,8.52,8.52,0,0,0,1.57-7.09A6.15,6.15,0,0,0,61.09,59V59c0-.4.06-.81.12-1.21l.06-.41a9.86,9.86,0,0,1,.59-1.84,8.78,8.78,0,0,1,.41-1,7,7,0,0,1,.84-1.22c.24-.29.49-.57.75-.85a1.52,1.52,0,0,0,.28.09c-4.82,8.2,9.33,5.93,11.43-.19a12,12,0,0,0,1-5.34c-2.45-1.12-6.48-.56-9.17-.2-2.43.23-7.63,2.56-4.31,5.26.13.08.26.16.4.23-.18.16-.36.34-.53.52a7.68,7.68,0,0,0-.65.83,11.4,11.4,0,0,0-.6,1.08l-.1.17,0,0,0,.07A7,7,0,0,0,61,56.48,13.87,13.87,0,0,0,60.63,59a3,3,0,0,0-2.54,1.37,2.87,2.87,0,0,0-3.74.92C53,63.81,56,65.78,57.7,67.13c3.22,2.46,2.61,6.2,4.76,5.07a5.62,5.62,0,0,0,1-.76,57.71,57.71,0,0,1,.6,10.26c-.28.27-.55.56-.81.85-1.48,1.44-1.52,3.77.48,4-.09.81-.2,1.61-.32,2.4-1.06,7.37-2.51,15-2.83,22.54a35.32,35.32,0,0,1-5.78-8.49,57.77,57.77,0,0,0,1.8-6c.54-1.39-.29-3-1.92-2.49a1.74,1.74,0,0,0-.81.63,1.6,1.6,0,0,0-1.7-.41,27.17,27.17,0,0,1-.14-8l.15-1.6c1.86,2.28,4.28,4.2,6.47,4.6-.3-3.56,1.18-7,1.94-10.49C62.16,74,57.37,71,54.53,76.35A12,12,0,0,0,52.66,76a37.57,37.57,0,0,0-1.91-11.84c-.14-.43-.3-.86-.47-1.29l.1-.1a4.83,4.83,0,0,0,.42-.47c.3-.38.58-.8.84-1.2s.48-.71.7-1.08.33-.68.47-1c0-.12.09-.24.14-.37a14.37,14.37,0,0,0,.59-1.71c.08-.31.13-.63.19-.94.15-.72.38-1.47.48-2.23,2.23,6.4,5.61,1.78,5.8-2.68a23.76,23.76,0,0,0,0-2.53l.45-.37.73-.7.24-.25A11.63,11.63,0,0,0,62.53,46c.18-.24.33-.49.49-.74s.41-.66.6-1c.17,3.26,4.68.9,5.57-1.08.89-1.4,1.45-3,2.42-4.33-2.09-1-4.74-1-7-.74-4,.78-6.35,4.56-1,5.26-.07.15-.13.29-.21.43s-.25.48-.39.72a7.93,7.93,0,0,1-.51.82l-.1.12,0,0,0,0q-.39.45-.81.9A17.54,17.54,0,0,1,59.93,48c-.21-2.37-.67-4.73-.94-7.08-2.73,2.34-6.46,3.79-8.22,7.08-1.09,2-1.19,5.31,1.12,6.38A2.15,2.15,0,0,0,53.77,54l-.08.35q-.12.44-.21.9c-.07.35-.15.7-.23,1l0,.17,0,0a.14.14,0,0,1,0,.07c-.14.42-.27.85-.42,1.27a10.24,10.24,0,0,1-1.1,2.48c-.06.11-.42.65-.85,1.21-.23.32-.48.63-.69.9-.18-.44-.38-.87-.59-1.3a9.12,9.12,0,0,0,.59-2.31c.08-3-2.39-4.45-5.09-3.74a2.84,2.84,0,0,0-.33-.91c0-.28-.08-.55-.12-.83s-.09-.56-.15-.84-.17-.59-.26-.88L44,51c8.14,3.15,1.63-10.9-2.22-12.41a68.73,68.73,0,0,0-6.85-2.87,21,21,0,0,1,1.9,7.41,29.77,29.77,0,0,0,.2,5.43c.49,3,4.33,5.16,6.22,2.12l.25.11c0,.11.06.22.1.33.11.32.2.65.29,1l0,.17v0a.17.17,0,0,1,0,.07c.06.38.13.78.2,1.18-1.35-.9-3.61.41-3.86,2.48-.66,4.28,3.14,8.44,1.77,12.88.47-.28,1-.58,1.42-.89.28,2.08.77,4.17,1,6.18a3.19,3.19,0,0,0-.91.22c-2.08.62-3.63,2.32-5.07,4-.75,1.06-2.25,1.94-2.35,3.31,1.35,2.83,6.18,3.35,9.62,2.2.11,1.07.2,2.14.26,3.22A118.14,118.14,0,0,1,46,102.77l-.12.08-.27.19a2.61,2.61,0,0,1-.28.17,4,4,0,0,1-.54.21l-.24.1-.23.1-.17.06c-.13,0-.27.06-.4.09s-.27,0-.41.06l-.3.07c-.75-1.82-2.2-2.82-4-.27a1.29,1.29,0,0,0-2.25,1c.23,2.24,1.64,4.25,2.37,6.37,1.33,2.82,4.49-1.67,4.4-3.4a7.64,7.64,0,0,0-.37-3.24h0s0,0,0,0l.34,0,.34-.06c.44-.13.86-.33,1.27-.48l.25-.1c.12-.06.27-.13.42-.22l0,0c-.76,8.34-2.91,16.61-8,22.21-.09-1.41-.2-2.82-.33-4.22a7.27,7.27,0,0,0,.79-.66c1.51-1.28.24-3.19-1.27-3.87-.2-1.6-.42-3.2-.68-4.81-.67-5.91-2.43-11.79-3.75-17.7l.16,0H33a5.91,5.91,0,0,0,1-.19c.3-.07.59-.14.87-.23a5.85,5.85,0,0,0,.71-.35l.24-.13c.37-.19.73-.4,1.08-.61l.38-.27a22.37,22.37,0,0,1,4.27,4.93c-.61-1.42.64-3.23,1.59-4.53s2.57-2.93,1.73-4.33c-1.24-1.54-4,.65-5.72.54s-2.45-1.67-4.4-.85c-.57.23-.94.7-.81,1,.21,1.15,1.46,1.82,2.59,2.59l.41.33-.06,0,0,0-.05,0q-.4.21-.81.45a6.26,6.26,0,0,1-1.66.82,7.87,7.87,0,0,1-1,.2c-.3,0-.62,0-.87.07-1.21-5.51-2-11-1.12-16.59a12.24,12.24,0,0,0,4.39-4c1.17-1.63-.66-3.13-2.32-3.32.77-2.14,1.6-4.27,2.34-6.43a1.78,1.78,0,0,0,1.32-.65c2.33,2,2.31-3.43,2.22-4.71-.16-2.54-.83-5.18-2.63-7-4.05-3.09-8.89-5.12-12.82-8.44,1.63,3.23,2,6.71,3,10.1a26.33,26.33,0,0,0,3.91,5.83c-.24.25-.47.5-.7.76l-.15,0a2.39,2.39,0,0,1-.32-.11l-.48-.21a5,5,0,0,1-1.08-.67,6.79,6.79,0,0,1-.79-.82c-.22-.24-.45-.5-.66-.76l-.22-.27c-.32-.45-.62-.9-.9-1.37-.15-.24-.33-.48-.47-.73-.35-.57-.59-1.22-.92-1.83a2.35,2.35,0,0,0-.13-.71,1,1,0,0,0,.57-1.68c-1.31-1.55-3.62-1.61-5.51-2.34a10,10,0,0,1-5.14-5.12,7.3,7.3,0,0,0,2.7,7c2.08,1.11,3.41,3,4.95,4.66,1.21,1.24,2.21.23,2.48-1a6.77,6.77,0,0,0,.33.66c.16.3.32.6.5.88l.07.16,0,0,0,.06a9.7,9.7,0,0,0,.66,1.1,19.86,19.86,0,0,0,1.67,2,6,6,0,0,0,1.09.93,4.21,4.21,0,0,0,.91.44,1.81,1.81,0,0,0,.42.1h.08a50.73,50.73,0,0,0-3.38,4.43.76.76,0,0,1,0-.15c0-.21,0-.41-.05-.61a2.33,2.33,0,0,0-.07-.25l-.09-.26-.07-.17c0-.13-.1-.26-.15-.4s-.11-.26-.18-.38a3.27,3.27,0,0,0-.28-.37l-.09-.12-.09-.13-.2-.27a1.75,1.75,0,0,0-.24-.23h0c2.53-2.24-1.7-4.94-4.27-4A28.29,28.29,0,0,0,15.93,59a15.45,15.45,0,0,1-4.71,1.27c-.25,0-.55.08-.67.3,0,1.52,2.76,2.45,4,3,3.22,1.4,12,4.37,9.93-2.34l.11-.08a1.54,1.54,0,0,1,.17.19,3.76,3.76,0,0,1,.25.31c.11.12.19.25.29.38l0,.07v0a0,0,0,0,1,0,0l.11.27c0,.09.09.18.12.27A3,3,0,0,1,26,63.78V64s0,.12,0,.19a1.77,1.77,0,0,0,0,.23v.42c-.86,1.23-1.69,2.47-2.53,3.64a72.37,72.37,0,0,0-5.14,8.77h0a.88.88,0,0,0-.21-.12L17.68,77a9.79,9.79,0,0,0,.24-1.42c.24-3-1.8-3.22-4-2.16a1.75,1.75,0,0,0-2.31-.19c-3.51,3.11-1.13,8.39-1.72,12.55a13.69,13.69,0,0,0,7.68-8.32l.07,0a2.26,2.26,0,0,0,.49.21,50.49,50.49,0,0,0-5,16.8c-.16,1.61-.3,3.23-.42,4.85-.08,0-.13.1-.19.13l-.13.12a1.31,1.31,0,0,1-.37.24,1.29,1.29,0,0,1-.39,0l-.26,0C11,98,9.77,96.14,8,97.58c-1.17-3.14-5.4-1.27-3.94,1.8C5.44,101.8,7.2,104.1,7.48,107c1.44,0,3.29-3.49,3.7-4.77a4,4,0,0,0,.23-1.89l.46,0a1.51,1.51,0,0,0,.59-.19.94.94,0,0,0,.18-.12q-.45,6.19-.52,12.44c-.24-1.35-1.34-2.57-2.58-1.2-1.47,1.77-2.73,3.67-4.76,4.85a7.3,7.3,0,0,0-2.45,7.11,10,10,0,0,1,5-5.31c1.59-.69,3.52-.9,4.83-2q0,3.22.14,6.45c.09,2.6.42,5.21.73,7.81l-.15-.05c-.11-2.25-2.67-3.55-4.74-3.29C1.19,128.13.89,136.63,0,142.29a15,15,0,0,0,6-.53,15.84,15.84,0,0,0,6.54-2.85,5.72,5.72,0,0,0,1.06-1c0,.7,0,1.39,0,2.09-.2,3.14-.74,5.69-1.16,8.66-3.62.06-5.16,3.67-.91,6.33-1,3-.59,4.63.62,5.24,0,.35,0,.7,0,1.05a34.77,34.77,0,0,1-2,12.88h-.14a2.17,2.17,0,0,1-.51,0,1.6,1.6,0,0,1-.42-.14l-.21-.07a1.73,1.73,0,0,0-.84-2.14l-.72-1.57c-.42-1.4-1.92-1.89-2.84-.62-1.14,2.68-1.81,7.22-.28,9.75.66-1.66,2.16-2.65,3.52-3.7a3.22,3.22,0,0,0,1-1.29l.44.15a2.14,2.14,0,0,0,.62.12H10c-1.72,5.75-4.22,12.93-.54,18.08.17.2.23.17,0-.45-2.11-5.44-.49-11.17,1.23-16.54a37.1,37.1,0,0,0,2.34-15.25c3.68.45,11-4.4,12.1-8.76-3.57.07-6.9-1.65-10.33-2.64a7.77,7.77,0,0,0-1.51-.38c.53-3.63,1.31-7.25,1.23-11,0-.43,0-.85,0-1.27.93-2,1-4.38-.52-5.69-.26-2.27-.55-4.54-.71-6.82l.16,0c.19,0,.39-.09.58-.15s.39-.12.58-.2.44-.18.66-.27l.12,0h0a4.46,4.46,0,0,0,2.52,2,12.61,12.61,0,0,0,6,.28c-.56-2.3-.43-4.9-1.48-7-.87-1.25-6.55-1.93-5.82.68-2,.65-2.15,2.28-1.44,3.69l-.3.14c-.51.24-1.1.33-1.61.62,0-.49-.06-1-.08-1.48-.25-5.71,0-11.43.18-17.14a71.82,71.82,0,0,1,1.7-16.31l.16.09.3.18c.18.11.34.23.52.33l.24.11.26.09.17.06c.13.06.27.1.4.15l.41.13c.15,0,.3,0,.46.06l.56.1c-1.26.32-2.49,1.39-2.17,2.67,2.27,4,11.14.6,13.14-2.65a18.51,18.51,0,0,1-6.25-3c-1.1-.81-2.37-1.81-3.69-1.44a2.4,2.4,0,0,0-.77,4h0l-.41-.06-.49-.08-.07,0h0l0,0-.58-.2A4.2,4.2,0,0,1,16,88.77l-.2-.13-.36-.25-.27-.19a51.57,51.57,0,0,1,7.31-16.66c2.8-4.08,5.36-8.64,8.76-12.32C32,60.13,32.74,61,33.43,62a3.41,3.41,0,0,0,1.79,1.45c-1,2.39-1.89,4.52-2.62,6.51-.29-2.07-3.42-1.7-4.75-.82-1.48,1.06-1.53,3.19-1.9,5a15.9,15.9,0,0,1-1.79,4.24c1.86.8,4.2.42,6.33-.58-.66,4.39-.38,9,1,15.62.45,1.86.89,3.73,1.3,5.6l-.2.16a3.5,3.5,0,0,0-.3.24c-.23.19-.46.41-.71.58a7.76,7.76,0,0,1-.69.4l-.29.19-.3.19-.21.12c-.32.16-.65.3-1,.43a4.43,4.43,0,0,0-1.55-.34c.06-1.83-2.32-2.43-3.67-1.42A5.69,5.69,0,0,0,22,103.1a19.81,19.81,0,0,0-.3,6c.21,2.07.7,4.36-.46,6.08a17.46,17.46,0,0,0,8.52-6.65c1.74-2.18,2-5.53-.1-6.93l.24-.11c.54-.29,1-.63,1.56-.93a6.7,6.7,0,0,0,.82-.54,5,5,0,0,0,.62-.56c1.12,5.1,2.09,10.23,2.84,15.39a2.38,2.38,0,0,0-2.61,1.28c-.69,1.26-.33,2.85-.83,4.2-1.46,2.46-1.91,3.84-1.21,6.74.39-2.82,3.24-3.77,5.52-5.12.15,1.49.28,3,.39,4.49a20.79,20.79,0,0,1-10.19,5.44c-.27.13-1.07.37-.29.4a15.7,15.7,0,0,0,10.57-4.53c.15,2.5.24,5,.26,7.52,0,1,0,2.07,0,3.21l-.1.07a1.27,1.27,0,0,0-.22.13l-.25.17a1.82,1.82,0,0,1-.27.15h0c-.16-.86-1-1.43-2.86-1.12a2.23,2.23,0,0,0,1-1,1.65,1.65,0,0,0-.63-2c-.89-1.78-4-.15-4.9,1-.94,2.28-1.71,4.7-3.44,6.56a25.61,25.61,0,0,0,5.6.88c3,.12,5.11-2.1,5.24-3.73l.12,0,.2-.08a1.13,1.13,0,0,0,.22-.11,2,2,0,0,0,.34-.22c.19,3.87.53,8.3-.27,11.82-.61,1.94-1.93,3.63-2.68,5.46a17.32,17.32,0,0,0-1,2.75,4.82,4.82,0,0,0-.09,1.05c0,.37,0,1.38.28.47a31.14,31.14,0,0,1,1.78-4.44c.66-1.25,1.46-2.44,2.07-3.7.22,0,.45-.11.68-.15l.6-.1a4.51,4.51,0,0,0,.52-.17l.17-.06.42-.12a2.42,2.42,0,0,0,.58.76A7.06,7.06,0,0,0,42.91,154c.47.26,3.08,1,2.4-.23a8.43,8.43,0,0,1-1.38-4.56c0-.69,0-1.49-.57-1.85A1.58,1.58,0,0,0,41.23,149c-1.6-.13-1.81,1.23-1.43,2.36l-.06,0a5.49,5.49,0,0,1-1.23.39l-.67.11a8.59,8.59,0,0,0,.66-2.37c.42-4.29-.14-8.65-.17-12.93-.08-3.24-.2-6.44-.39-9.63a22.37,22.37,0,0,0,2.87-3.68c5.88-9.56,6.62-21.16,6.39-32.1-.13-2.57-.35-5.12-.63-7.65a5.81,5.81,0,0,0,2.06-1.45c1.69-2.21,0-4.74-2.67-4.27l1.57-.23c.91-1.77-.56-3.15-2.23-3.4l-.3-2c-.23-1.55-.59-3.13-.85-4.71A16.22,16.22,0,0,0,49.09,62,36.2,36.2,0,0,1,51.84,76c-4,.1-3.1,4.23-.52,8a46.27,46.27,0,0,0,0,11.34,3,3,0,0,0-1,1.46c-1.32,3.61.93,7.25,3,10.12.37-.86.72-1.73,1.06-2.6a38.51,38.51,0,0,0,6.16,8.59c0,.73,0,1.47,0,2.21,0,1.39.07,2.78.18,4.16l-.13,0-.15,0-.16,0a2.69,2.69,0,0,1-.75.06,3.48,3.48,0,0,1-.64-.14q-.28-.06-.57-.15l-.2-.07a5.21,5.21,0,0,1-.83-.47l-.05,0c1.74-1,2-3.39,0-4.31a3.5,3.5,0,0,0-.76-.23c1.09-2-1.11-3.48-3-2.55-2.15.44-10.19,7.56-5.37,8.72a11.2,11.2,0,0,0,8.71-1.37l0,0v0l0,0a3.16,3.16,0,0,0,.66.44,7.71,7.71,0,0,0,1.53.47,2.77,2.77,0,0,0,.88.09,1.9,1.9,0,0,0,.78-.17,40.4,40.4,0,0,0,1.66,8.55c.28.82.58,1.66.89,2.52l0,0-.16.1a1.34,1.34,0,0,1-.47.2h-.76a6.59,6.59,0,0,0-1.63-1.51,2.91,2.91,0,0,0,.43-.43c1.81-3.19-3.52-3.3-5.28-2-1.45.8-2.7,1.94-4.19,2.66,1.34,1.9,3.69,3.14,5.81,4,3.06.95,6.12-.21,5.13-2.31h.26a2,2,0,0,0,.67-.1,1.28,1.28,0,0,0,.38-.21c1.77,4.82,3.93,10.15,5.36,14.32.75,1.44.39-.22.27-.93a38.6,38.6,0,0,0-1.56-5.46.75.75,0,0,0,.07-.12l.1-.24c0-.08.08-.16.13-.24a3.26,3.26,0,0,1,.29-.36l.24-.33.08-.11.08-.08a7.23,7.23,0,0,0,.93,1.84A16,16,0,0,1,72,142c-.34-1.94-.12-4-.37-6A3.15,3.15,0,0,0,70,134.07Zm-5.48-19-.09.16,0,0A.76.76,0,0,0,64.53,115ZM63.66,99.8a1.62,1.62,0,0,0-.49.61,2.15,2.15,0,0,0,.27,1.82,2.31,2.31,0,0,1-.48.28l-.21.08-.38.14c.15-1.08.3-2.16.46-3.24A2.25,2.25,0,0,0,63.66,99.8ZM12.11,113.49v.18h0S12.1,113.55,12.11,113.49Z"/><path class="cls-6" d="M67.74,51.2c-.14,0-.3.06-.47.1l-.52.1a18.56,18.56,0,0,0-1.85.4.29.29,0,0,0-.1.12c0,.06-.15.17,0,.2a5.27,5.27,0,0,0,.78,0l.64-.09c.25,0,.5-.1.75-.16l.74-.17c.44-.11.87-.19,1.3-.31a5.22,5.22,0,0,0,.56-.18l.55-.2.38-.15.88-.34c.29-.13.58-.24.87-.38s.59-.32.87-.48a11,11,0,0,0,2.45-1.57l.25-.21.07-.1c0-.06,0-.1,0-.1a1.37,1.37,0,0,0-.69.3c-.27.16-.53.34-.8.49l-.41.24-.42.24c-.32.19-.65.36-1,.54l-.18.07,0,0-.07,0-1.3.54a15.66,15.66,0,0,1-2.69.95Z"/><path class="cls-6" d="M82.49,54.69a1.36,1.36,0,0,0,.21-.28c.08-.1.15-.22.23-.3l.19-.23.2-.23a6.25,6.25,0,0,1,1.09-1,9.45,9.45,0,0,1,1.13-.61c.33-.17.67-.34,1-.49l.36-.16,1.75-.65c.31-.12.61-.27.91-.41s.87-.4,1.29-.64A4.14,4.14,0,0,0,92,48.81l.21-.25a.21.21,0,0,0,.06-.1c0-.07,0-.11,0-.1a.74.74,0,0,0-.29.12,4.06,4.06,0,0,0-.35.25,7.89,7.89,0,0,1-.77.51c-.26.16-.54.3-.82.45s-.67.32-1,.47l-.17.05-.05,0-.07,0c-.43.14-.88.3-1.33.47A28.72,28.72,0,0,0,84.79,52a7.64,7.64,0,0,0-1.34.89,4.57,4.57,0,0,0-.77.83l-.14.21-.11.2-.08.17,0,.15a.27.27,0,0,0,0,.16C82.37,54.63,82.4,54.77,82.49,54.69Z"/><path class="cls-6" d="M64.29,42.1a3.61,3.61,0,0,1,.55-.79,4.23,4.23,0,0,1,.68-.52,4.54,4.54,0,0,1,.63-.41,1.71,1.71,0,0,1,.23-.13,6.67,6.67,0,0,1,1.17-.38c.21-.06.42-.13.64-.18.61-.14,1.29-.09,1.93-.29l.22,0s0,0,.07,0,.06-.07,0-.09a.71.71,0,0,0-.51-.12l-.66,0c-.22,0-.43,0-.66.06s-.52.09-.77.15l-.13,0h-.09a4.3,4.3,0,0,0-1,.24,7.57,7.57,0,0,0-1.74,1,4,4,0,0,0-.8.8,2.93,2.93,0,0,0-.38.69,1.54,1.54,0,0,0,0,.17.83.83,0,0,0,0,.15.72.72,0,0,0,0,.25.44.44,0,0,0,.08.11s.13.13.18.07a.6.6,0,0,0,.11-.21,2.51,2.51,0,0,1,.11-.23l.09-.18Z"/><path class="cls-6" d="M54.2,52.52a1.46,1.46,0,0,0,0,.22,1.87,1.87,0,0,0,.07.33.29.29,0,0,0,.11.11c.06,0,.17.15.2,0a3.52,3.52,0,0,0,0-.74c0-.2,0-.41,0-.62l0-.73c0-.24,0-.49.06-.73A10.26,10.26,0,0,1,55,49.14l.06-.27.07-.27a5.54,5.54,0,0,1,.14-.55l.1-.37c.05-.15.1-.29.16-.43l.17-.42.18-.41c.07-.14.13-.28.2-.41s.13-.29.2-.44.14-.29.21-.43l.17-.3.19-.29.2-.29a2.92,2.92,0,0,1,.21-.28c.14-.19.27-.39.42-.58s.26-.39.39-.59l.19-.25a.27.27,0,0,0,.05-.11c0-.07,0-.11,0-.1a1.38,1.38,0,0,0-.62.45l-.3.36a3.47,3.47,0,0,0-.3.37l-.29.38c-.1.13-.18.27-.27.41-.21.31-.38.65-.57,1l-.09.16,0,0s0,0,0,.06c-.11.2-.23.41-.33.63s-.2.43-.29.66a21.54,21.54,0,0,0-.74,2.78l-.11.55c0,.13,0,.3-.06.47s0,.35-.06.53,0,.38,0,.57,0,.36,0,.53Z"/><path class="cls-6" d="M38.59,39.78a11.93,11.93,0,0,1,.84,1l.12.19,0,0a.35.35,0,0,1,.05.08c.28.47.57,1,.85,1.46a16.43,16.43,0,0,1,1.39,3.13c.05.16.28,1,.5,1.82s.45,1.8.62,2.19a.71.71,0,0,0,.13.12c.07,0,.2.16.21,0a6.65,6.65,0,0,0-.12-.92c0-.25-.1-.51-.16-.77-.15-.59-.34-1.18-.51-1.76s-.29-1-.47-1.54a13.4,13.4,0,0,0-.56-1.3c-.07-.15-.14-.3-.22-.44a16.82,16.82,0,0,0-1.09-2c-.23-.33-.49-.65-.74-1s-.73-.9-1.15-1.32a6.14,6.14,0,0,0-1.4-1.09,3.7,3.7,0,0,0-.33-.21l-.14-.05c-.08,0-.12,0-.1,0a.85.85,0,0,0,.22.29c.11.1.25.23.41.35s.56.49.83.76S38.32,39.49,38.59,39.78Z"/><path class="cls-6" d="M43.25,60.42c0,.39,0,.79.11,1.19l0,.41c.07.64.15,1.26.19,1.89,0,.33.07.66.08,1a5.61,5.61,0,0,1-.17,1.41,9.59,9.59,0,0,1-.46,1.37c0,.1-.1.19-.15.29a.49.49,0,0,0,0,.11c0,.08,0,.11,0,.1a1.16,1.16,0,0,0,.56-.57,4.58,4.58,0,0,0,.4-.94,4.92,4.92,0,0,0,.2-1,9.51,9.51,0,0,0,0-1.19v-.33a12.07,12.07,0,0,0-.1-1.46c-.08-.49-.16-1-.21-1.46a10,10,0,0,1-.06-1.44c0-.14,0-.84.08-1.59l0-.56c0-.19,0-.36.06-.52a2.83,2.83,0,0,1,.11-.4,1.09,1.09,0,0,1,.15-.25s0-.1,0-.15a.69.69,0,0,1,.05-.13s0-.08-.07-.07a.71.71,0,0,0-.42.24,1.63,1.63,0,0,0-.25.43,2.59,2.59,0,0,0-.15.7c-.05.52-.05,1-.07,1.56S43.24,60,43.25,60.42Z"/><path class="cls-6" d="M36.72,60.17c0-.17-.08-.36-.13-.54l-.17-.54a15.21,15.21,0,0,0-1.09-2.39c-.38-.69-.76-1.33-1.19-2s-.82-1.06-1.25-1.57l-.45-.53c-.7-.82-1.42-1.61-2.14-2.4L29.12,49C28,47.84,27,46.47,26,45.18c-.11-.14-.21-.3-.32-.45a.93.93,0,0,0-.13-.15c-.09-.08-.13-.09-.13,0a2.4,2.4,0,0,0,.17.49,7.84,7.84,0,0,0,.4.68c.3.45.61.9,1,1.34s.68.86,1,1.29L29.3,49.8l.21.24,0,.06.09.1c.51.61,1.06,1.21,1.62,1.83a25.7,25.7,0,0,1,3.06,3.83,19.42,19.42,0,0,1,1.23,2.36A15.35,15.35,0,0,1,36.19,60l.12.39.09.36.08.3a1.26,1.26,0,0,0,.07.25.57.57,0,0,0,.13.19c.06.07.19.26.2.06a3.79,3.79,0,0,0,0-.64C36.81,60.63,36.77,60.37,36.72,60.17Z"/><path class="cls-6" d="M12.48,61.42c.3.11.61.23.93.32a7.25,7.25,0,0,0,1,.26,6.8,6.8,0,0,0,1.19.15l.19,0h.13a7.44,7.44,0,0,0,1.49,0c1-.13,2-.38,2.93-.5.14,0,.84-.11,1.59-.17s1.54-.05,1.9-.08a.34.34,0,0,0,.14-.09s.19-.14.08-.19a3.16,3.16,0,0,0-.8-.15,5.1,5.1,0,0,0-.68,0c-.52,0-1.05.09-1.56.16s-.91.11-1.36.18l-1.17.22-.4.07a13.08,13.08,0,0,1-1.87.14c-.17,0-.34,0-.5,0h-.5a8.12,8.12,0,0,1-1.41-.31c-.47-.13-.95-.28-1.44-.37L12,61h-.12q-.12,0-.09.06A1.5,1.5,0,0,0,12.48,61.42Z"/><path class="cls-6" d="M15.66,47a4.88,4.88,0,0,0,.54.68,9.76,9.76,0,0,0,.73.71l.12.13,0,0,.05,0a6.71,6.71,0,0,0,1,.8c.75.45,1.57.75,2.29,1.14.11,0,.65.33,1.19.66s1.08.75,1.35.91h.15c.06,0,.21,0,.17-.1a1.26,1.26,0,0,0-.19-.28l-.26-.27-.22-.19-.24-.18a11.66,11.66,0,0,0-1.19-.67l-1-.55-.92-.42-.31-.15a9.36,9.36,0,0,1-1.32-.91c-.22-.18-.46-.34-.67-.54a7.27,7.27,0,0,1-.82-.92c-.25-.34-.5-.68-.77-1-.06-.08-.12-.15-.17-.23a.25.25,0,0,0-.08-.07c-.06,0-.09,0-.1,0a1,1,0,0,0,.19.66C15.34,46.56,15.49,46.8,15.66,47Z"/><path class="cls-6" d="M26.53,77.27a6.12,6.12,0,0,0,.64-.5,4.6,4.6,0,0,0,.61-.56q.33-.36.63-.75l.1-.12,0,0,0,0a5.66,5.66,0,0,0,.7-1c.39-.74.61-1.55,1-2.23A5.5,5.5,0,0,1,30.93,71a3.87,3.87,0,0,1,.62-.6c.2-.16.4-.27.52-.36a.52.52,0,0,0,.06-.13c0-.06.1-.19,0-.2a1.53,1.53,0,0,0-.68.21,2.62,2.62,0,0,0-.48.34,4.33,4.33,0,0,0-.81,1.06c-.2.34-.38.67-.54,1s-.24.6-.36.9l-.12.31a10.35,10.35,0,0,1-.79,1.31c-.15.22-.3.45-.46.67a7.3,7.3,0,0,1-.83.84c-.29.27-.6.53-.88.82l-.2.18a.21.21,0,0,0-.06.08c0,.06,0,.1,0,.1A1,1,0,0,0,26.53,77.27Z"/><path class="cls-6" d="M10.7,84.74a1.24,1.24,0,0,0,.34-.62c.09-.29.18-.57.26-.86s.16-.57.23-.88.15-.69.21-1l0-.17v0a.64.64,0,0,1,0-.07,13.19,13.19,0,0,0,.28-1.31c.06-.46.1-.91.15-1.36s.09-.9.17-1.32c0-.07.05-.25.1-.51s.13-.57.24-.89a5.64,5.64,0,0,1,.37-.9c.14-.26.29-.47.36-.61a.45.45,0,0,0,0-.16c0-.06,0-.22-.1-.17a2,2,0,0,0-.56.54,2.33,2.33,0,0,0-.17.26,2.64,2.64,0,0,0-.15.29,6.48,6.48,0,0,0-.41,1.41c-.09.42-.17.82-.23,1.23l-.11,1.08,0,.37c-.09.57-.2,1.14-.32,1.71,0,.3-.08.61-.14.91-.15.86-.49,1.72-.59,2.63l0,.3a.21.21,0,0,0,0,.11C10.64,84.74,10.67,84.77,10.7,84.74Z"/><path class="cls-6" d="M44.46,77.11a2.28,2.28,0,0,0-.52,0,4.58,4.58,0,0,0-1.1.43,6.3,6.3,0,0,0-.87.53c-.23.18-.44.38-.65.58l-.22.2a11.83,11.83,0,0,1-1.05.85c-.19.14-.38.29-.58.41a4.71,4.71,0,0,1-.94.42c-.33.11-.66.22-1,.36l-.23.07-.07,0q-.08.06,0,.09a.74.74,0,0,0,.58,0,5.88,5.88,0,0,0,.7-.16,6.46,6.46,0,0,0,.69-.26c.26-.13.51-.27.76-.42l.12-.07,0,0,.06,0A5.41,5.41,0,0,0,41,79.6a10.61,10.61,0,0,1,1.59-1.37,4.82,4.82,0,0,1,1-.47,3.53,3.53,0,0,1,.73-.18l.55-.06a.31.31,0,0,0,.11-.09c0-.05.16-.13.08-.18A1.31,1.31,0,0,0,44.46,77.11Z"/><path class="cls-6" d="M57,82.12c0,.68-.15,1.37-.22,2.06,0,.37,0,.75,0,1.13a11.31,11.31,0,0,0,.11,1.62,4.63,4.63,0,0,0,.22.81,3.23,3.23,0,0,0,.4.73,3.15,3.15,0,0,0,.22.29l.1.09c.07,0,.11,0,.11,0a2.92,2.92,0,0,0-.28-.76,5.1,5.1,0,0,1-.3-1,8.25,8.25,0,0,1-.14-1,10.1,10.1,0,0,1,0-1.23l0-.2v0s0-.06,0-.09c.07-.5.14-1,.2-1.57a13.17,13.17,0,0,0-.08-3.26A5,5,0,0,0,56.67,78a3.63,3.63,0,0,0-.86-1,2.24,2.24,0,0,0-.85-.4l-.16,0c-.07,0-.21.1-.11.17s.48.27.66.42l.13.1.12.11a2.61,2.61,0,0,1,.24.23,4.36,4.36,0,0,1,.48.63,3.61,3.61,0,0,1,.35.71,5,5,0,0,1,.27,1.38,10.48,10.48,0,0,1,0,1.26C57,81.82,57,82,57,82.12Z"/><path class="cls-6" d="M62.86,63.78a7.66,7.66,0,0,0-.85-1.3s-.19-.23-.42-.45a3.51,3.51,0,0,0-.39-.34c-.07-.06-.16-.11-.24-.17a1.13,1.13,0,0,0-.26-.16,3.36,3.36,0,0,0-1.13-.44l-.26-.05h-.45l-.16,0a.36.36,0,0,0-.13.11c0,.06-.16.16,0,.19a1.68,1.68,0,0,0,.36.06c.14,0,.28,0,.39.07l.3.08.31.11a4.16,4.16,0,0,1,1.29.74,4.85,4.85,0,0,1,.85,1l.32.49a5,5,0,0,1,.26.52l.08.19.07.19a5.93,5.93,0,0,1,.2.93,7.45,7.45,0,0,1,.07,1,8.68,8.68,0,0,1,0,1A8.46,8.46,0,0,1,62.76,69c-.12.49-.26,1-.35,1.48l-.08.33a.62.62,0,0,0,0,.13q0,.12.06.09a1.5,1.5,0,0,0,.41-.7c.11-.32.22-.64.31-1a8.24,8.24,0,0,0,.23-1c.06-.4.11-.81.13-1.21l0-.2v0a.28.28,0,0,1,0-.09,6.19,6.19,0,0,0-.09-1.54A5.73,5.73,0,0,0,62.86,63.78Z"/><path class="cls-6" d="M75.48,56.91c-.14.25-.3.5-.46.77a8.74,8.74,0,0,0-.48,1l-.09.17,0,0,0,.07a4.54,4.54,0,0,0-.23.65,3.37,3.37,0,0,0-.09.34l-.06.34c0,.12,0,.24,0,.36s0,.23,0,.35,0,.47,0,.7A10.14,10.14,0,0,0,74.21,63c0,.06.06.26.14.52l.14.43c.07.15.14.32.22.48a3.66,3.66,0,0,0,1.13,1.42.3.3,0,0,0,.16,0c.06,0,.21,0,.16-.1a5.48,5.48,0,0,0-.4-.57L75.6,65c0-.08-.1-.17-.16-.25a5.68,5.68,0,0,1-.62-1.2,6.73,6.73,0,0,1-.27-1.16c0-.17,0-.34-.07-.51s0-.35,0-.53V61a6.62,6.62,0,0,1,.33-1.65,9.16,9.16,0,0,1,.3-.85c.18-.38.44-.75.67-1.15a3.31,3.31,0,0,0,.49-1.3,1.54,1.54,0,0,0,0-.3.24.24,0,0,0,0-.12c0-.06,0-.09-.08-.06a1.69,1.69,0,0,0-.31.61A7.69,7.69,0,0,1,75.48,56.91Z"/><path class="cls-6" d="M87.71,67.87a2.63,2.63,0,0,1-.1.3c0,.11-.07.23-.12.35a10.57,10.57,0,0,0-.42,1.21.5.5,0,0,0,.05.13s.09.17.16.12a2,2,0,0,0,.31-.45c.07-.13.14-.27.2-.41s.12-.34.18-.51.09-.34.14-.51.19-.6.26-.9c0-.14,0-.27,0-.41s0-.27,0-.41V66.1c0-.11,0-.22,0-.33v-.33c0-.22,0-.44,0-.66s-.08-.47-.13-.69,0-.16,0-.25l-.05-.24,0-.25a2.27,2.27,0,0,0-.06-.25,3.11,3.11,0,0,0-.16-.49,2.23,2.23,0,0,0-.25-.45L87.6,62a.17.17,0,0,0-.06-.06q-.08,0-.09,0a.73.73,0,0,0,0,.53l.09.3a2.8,2.8,0,0,1,.09.31l.08.31c0,.1,0,.21.07.32s.1.49.15.74v.21c0,.16,0,.31,0,.47v.49a6.17,6.17,0,0,1-.17,1.92Z"/><path class="cls-6" d="M73.18,79.84a4.64,4.64,0,0,0-.12.9.3.3,0,0,0,.07.1c.05,0,.12.13.17.09a.93.93,0,0,0,.21-.35,1.68,1.68,0,0,0,.09-.32,7.06,7.06,0,0,0,.1-.77c0-.23.07-.44.1-.66v-.78c0-.3.06-.6.11-.9a3.75,3.75,0,0,1,0-.47,2.85,2.85,0,0,1,.22-.64,4.55,4.55,0,0,0,.27-.64.64.64,0,0,1,.08-.14v-.07s0-.08,0-.08a.4.4,0,0,0-.36.21,2.09,2.09,0,0,0-.27.43,2.67,2.67,0,0,0-.2.46c-.06.2-.1.39-.14.58l0,.09v0s0,0,0,0a2.85,2.85,0,0,0-.12.72,13.38,13.38,0,0,1,0,1.43C73.29,79.15,73.24,79.49,73.18,79.84Z"/><path class="cls-6" d="M69.12,77.61a1,1,0,0,0-.39.58,7.76,7.76,0,0,0-.25.82l-.22.82a5.77,5.77,0,0,1-.32.91l-.08.13,0,0,0,0c-.21.33-.45.66-.7,1-.49.68-1,1.34-1.58,2a6.48,6.48,0,0,0-.81,1.18,4.5,4.5,0,0,0-.37.93,2.2,2.2,0,0,0-.11.72.35.35,0,0,0,.08.13s.12.17.18.08a4,4,0,0,0,.23-.62l.2-.51a6.53,6.53,0,0,1,.58-1.15,7.58,7.58,0,0,1,.72-.89l.64-.8c.07-.09.15-.18.22-.28a10.55,10.55,0,0,0,1-1.35c.07-.13.13-.28.19-.41s.12-.29.16-.43c.14-.4.27-.82.38-1.23s.19-.83.27-1.25c0-.09.05-.19.07-.28a.34.34,0,0,0,0-.1Q69.18,77.6,69.12,77.61Z"/><path class="cls-6" d="M73.22,89.42l-.53.14-.45.11-.52.13c-.71.18-1.47.31-1.8.43a.45.45,0,0,0-.11.13c0,.06-.14.17,0,.2a4.23,4.23,0,0,0,.78,0l.64-.11.73-.18.73-.21,1.27-.34L75,89.3l.37-.13c.59-.19,1.18-.38,1.76-.54.31-.1.62-.22.93-.3l.34-.09.34-.06c.23-.05.46-.09.7-.12l.7-.1c.24,0,.47-.08.7-.12l.32,0,.12,0c.06,0,.08-.07,0-.09a1.35,1.35,0,0,0-.75-.14l-.48,0h-.24l-.24,0-.47.06-.48.1-.56.13-.54.14-.19,0h0l-.08,0c-.22,0-.45.1-.68.17s-.46.13-.68.21C75,88.81,74.11,89.18,73.22,89.42Z"/><path class="cls-6" d="M92.81,81c.1,0,.25-.06.36-.07l.33,0,.84-.06.76,0c.22,0,.44,0,.66,0l.23,0h1.07l.57,0a7.74,7.74,0,0,0,1.65-.12l.18,0a.13.13,0,0,0,.07,0s0-.06,0-.09a.61.61,0,0,0-.43-.14H98l-.64,0h-.18a5.58,5.58,0,0,0-.82,0,15.3,15.3,0,0,1-1.64.09c-.08,0-.48,0-.91,0a2.81,2.81,0,0,0-.65.07.86.86,0,0,0-.45.24.3.3,0,0,0,0,.13C92.74,80.89,92.74,81,92.81,81Z"/><path class="cls-6" d="M104.54,95a1.18,1.18,0,0,0-.58-.55,6.24,6.24,0,0,0-.91-.42c-.32-.11-.64-.21-1-.29s-.76-.17-1.15-.23l-.19-.05h-.12a5.39,5.39,0,0,0-1.51-.11,7.88,7.88,0,0,0-1.49.33c-.48.14-1,.29-1.41.41a22.92,22.92,0,0,0-3.37,1.09.55.55,0,0,0-.09.14c0,.07-.11.2,0,.2a4.07,4.07,0,0,0,.77-.16c.21,0,.42-.11.63-.17.49-.15,1-.33,1.47-.47s.87-.23,1.31-.35.74-.24,1.12-.34l.39-.1a5.62,5.62,0,0,1,1.83,0c.32,0,.66.06,1,.12a10.74,10.74,0,0,1,1.4.37c.46.15.91.32,1.37.5l.29.15.11,0C104.52,95.08,104.55,95.07,104.54,95Z"/><path class="cls-6" d="M97.3,107.48l.28-.15a.6.6,0,0,0,.08-.08c0-.06.06-.09,0-.1a1.58,1.58,0,0,0-.72.13q-.43.14-.87.24c-.3.07-.6.11-.91.17a9.45,9.45,0,0,1-1.07.1h-.29l-1.37-.14c-.93-.08-1.89-.18-2.82-.23a6.32,6.32,0,0,0-1.58.1,4.12,4.12,0,0,0-1.06.35,2.33,2.33,0,0,0-.66.48.34.34,0,0,0,0,.16c0,.07,0,.22.09.18s.43-.23.63-.31.36-.15.55-.22a5.3,5.3,0,0,1,1.38-.29,7.47,7.47,0,0,1,1.25.05c.37,0,.75,0,1.12.09l.39,0c.61.09,1.22.17,1.84.2a8.21,8.21,0,0,0,1,0,11.62,11.62,0,0,0,1.41-.19A4.46,4.46,0,0,0,97.3,107.48Z"/><path class="cls-6" d="M79.83,105.3l-.19-.06-.21,0a7.57,7.57,0,0,0-1,0c-.28,0-.56,0-.83,0s-.47.09-.7.14l-.24.06-1.11.23-.57.17a5.86,5.86,0,0,1-.84.12,5.11,5.11,0,0,0-.86.13l-.19,0a.11.11,0,0,0-.07,0s-.06.06,0,.09a.6.6,0,0,0,.46.17,5.76,5.76,0,0,0,.59,0q.3,0,.6-.06l.68-.15h.19a8.41,8.41,0,0,0,.85-.15,7.18,7.18,0,0,1,1.67-.34,8,8,0,0,1,.92,0c.43,0,.88.11,1.1.1a.39.39,0,0,0,.1-.08s.15-.11.1-.17a.63.63,0,0,0-.2-.13Z"/><path class="cls-6" d="M64.76,99.72l.45-.15a3.49,3.49,0,0,1,1-.24,2,2,0,0,1,.87.2,3.9,3.9,0,0,1,.72.39l.25.17c.37.29.72.59,1.06.91l.57.48c.52.48.94,1.11,1.51,1.58l.17.17.09,0c.05,0,.09,0,.09,0a.87.87,0,0,0-.23-.55q-.21-.28-.45-.57c-.16-.19-.31-.37-.49-.56l-.63-.6-.1-.11,0,0,0,0a8.22,8.22,0,0,0-.8-.75c-.3-.22-.6-.44-.93-.64A3.71,3.71,0,0,0,66.83,99a2.62,2.62,0,0,0-.46-.07,3.07,3.07,0,0,0-.82.08,3.36,3.36,0,0,0-1.35.6.74.74,0,0,0,0,.14c0,.06,0,.19,0,.19A2,2,0,0,0,64.76,99.72Z"/><path class="cls-6" d="M51.75,101.93c.08.28.19.56.28.84a16.83,16.83,0,0,0,.79,2.4c0,.09.07.18.11.27a.24.24,0,0,0,.06.08s.09.06.1,0a1.06,1.06,0,0,0,0-.67l-.21-.8c-.08-.27-.14-.54-.23-.81l-.3-1,0-.16v0a.14.14,0,0,1,0-.06c-.07-.39-.14-.79-.19-1.19a5.52,5.52,0,0,1,0-1.22,4.81,4.81,0,0,1,.27-1.18l.19-.43c.1-.22.23-.5.38-.78.3-.56.69-1.13.8-1.43a.26.26,0,0,0,0-.15c0-.06,0-.21-.13-.15a1.24,1.24,0,0,0-.23.23l-.23.28a5.78,5.78,0,0,0-.33.48,10.47,10.47,0,0,0-.6,1.21,8.92,8.92,0,0,0-.43,1.12,5.21,5.21,0,0,0-.15,1c0,.12,0,.24,0,.36A6.71,6.71,0,0,0,51.75,101.93Z"/><path class="cls-6" d="M41.07,93.88,41,93.25v-.13a0,0,0,0,1,0-.05,5.6,5.6,0,0,0-.09-.8,15.88,15.88,0,0,0-.44-1.6s-.05-.15-.12-.31a2.33,2.33,0,0,0-.35-.51,1.65,1.65,0,0,0-.54-.42.88.88,0,0,0-.49-.09.26.26,0,0,0-.09.09s-.11.15-.06.19a2.55,2.55,0,0,0,.33.17l.25.17a1.88,1.88,0,0,1,.51.54,2.78,2.78,0,0,1,.23.65c.06.19.12.39.17.59l.06.22c0,.34.1.68.14,1,0,.18.09.37.12.55a8,8,0,0,0,.23,1.59l0,.18,0,.06s.07,0,.09,0a.54.54,0,0,0,.13-.43c0-.18,0-.36,0-.54A5.16,5.16,0,0,0,41.07,93.88Z"/><path class="cls-6" d="M27.92,90.36a.18.18,0,0,0,.08,0s.05-.07,0-.09a.45.45,0,0,0-.23-.07,1.7,1.7,0,0,0-.33,0c-.22,0-.45,0-.68,0L26.09,90c-.28,0-.55-.11-.82-.18l-.13-.06h0l-.06,0c-.32-.12-.65-.25-1-.36-.71-.21-1.44-.38-2.16-.52a4.89,4.89,0,0,0-1.22-.11,3,3,0,0,0-.87.15l-.18.06-.15.08-.13.07-.1.08a.74.74,0,0,0,0,.14c0,.06,0,.19.06.19a.9.9,0,0,0,.25-.06l.28-.08.21,0,.23,0a4.22,4.22,0,0,1,1.07-.07,5.92,5.92,0,0,1,.95.19q.42.08.84.18l.29.08,1.34.46.74.16c.35.08.71.18,1.09.23a2.65,2.65,0,0,0,1.12-.07Z"/><path class="cls-6" d="M7,100.88c.06.27.14.54.22.81l.09.27q.17.66.3,1.29c.06.23.13.45.18.68a5.44,5.44,0,0,1,.08,1c0,.34,0,.67,0,1a1.64,1.64,0,0,1,0,.23s0,.07,0,.09,0,.08.08.06a.69.69,0,0,0,.27-.5,5.59,5.59,0,0,0,.09-.7,4.33,4.33,0,0,0,0-.72,7.39,7.39,0,0,0-.14-.82v-.17a.11.11,0,0,1,0-.05,7,7,0,0,0-.21-1,13.75,13.75,0,0,1-.53-2c0-.1-.08-.58-.1-1.09,0-.26,0-.52,0-.75v-.32a1.77,1.77,0,0,0,0-.24.76.76,0,0,0-.08-.11s-.13-.15-.18-.08a.7.7,0,0,0-.12.26c0,.1,0,.21-.06.29a2,2,0,0,0,0,.24c0,.08,0,.16,0,.24a8.19,8.19,0,0,0,.09,1.12C6.94,100.25,7,100.57,7,100.88Z"/><path class="cls-6" d="M26.26,101.34a1.66,1.66,0,0,0-.25.34l-.22.42a3.45,3.45,0,0,0-.14.34l-.12.36a10.88,10.88,0,0,0-.3,1.69c-.07.5-.13,1-.19,1.47s-.05.86-.09,1.28c0,.15,0,.29-.05.44a12.5,12.5,0,0,1-.47,2c-.09.34-.2.7-.32,1a10.78,10.78,0,0,1-.69,1.41c-.26.46-.54.92-.79,1.39-.06.11-.13.21-.19.31a.61.61,0,0,0-.05.12c0,.08,0,.12,0,.11a1.62,1.62,0,0,0,.63-.59c.2-.28.41-.58.59-.89a9.78,9.78,0,0,0,.52-1c.18-.39.35-.79.49-1.19,0-.06.05-.13.08-.2l0,0,0-.08a8.69,8.69,0,0,0,.46-1.55c.2-1.09.2-2.19.33-3.22,0-.14.11-.91.27-1.7a11.3,11.3,0,0,1,.3-1.15l.08-.25.09-.22c0-.07,0-.14.06-.19a1.38,1.38,0,0,1,.06-.16.47.47,0,0,0,0-.17C26.37,101.42,26.36,101.25,26.26,101.34Z"/><path class="cls-6" d="M40.85,108.42v0s0,0,0,0a3.46,3.46,0,0,0-.12-.89c-.17-.58-.44-1.12-.62-1.65a8,8,0,0,0-.84-1.92.31.31,0,0,0-.13,0c-.06,0-.18,0-.19,0a1.36,1.36,0,0,0,.1.46c0,.12.08.24.13.36.12.28.26.56.37.84s.17.51.25.75.18.43.26.64l.09.22a6.78,6.78,0,0,1,.22,1.07,5.58,5.58,0,0,1,.08.57,3.39,3.39,0,0,1-.05.84,6,6,0,0,0-.08.86l0,.19s0,.06,0,.08.05.07.08.06.21-.19.27-.4a3.77,3.77,0,0,0,.14-.58,3,3,0,0,0,.07-.6,5.56,5.56,0,0,0,0-.71Z"/><path class="cls-6" d="M53.76,114.13c.55-.09,1.19,0,1.48-.07a.48.48,0,0,0,.11-.09s.15-.14.06-.19a2.11,2.11,0,0,0-.61-.14,3.31,3.31,0,0,0-.55,0,3,3,0,0,0-.65.08,3.33,3.33,0,0,0-.63.21,4.78,4.78,0,0,0-1,.58,7.28,7.28,0,0,0-.67.69l-.21.25c-.35.37-.69.73-1,1.08-.18.19-.35.39-.54.58-.53.53-1.22,1-1.75,1.53l-.19.18-.06.08c0,.06,0,.09,0,.1a1,1,0,0,0,.58-.23l.63-.46c.2-.16.41-.32.61-.5l.67-.63.12-.1,0,0,0,0a10.64,10.64,0,0,0,.84-.81c.26-.3.5-.61.76-.89a3.62,3.62,0,0,1,.84-.73A3,3,0,0,1,53.76,114.13Z"/><path class="cls-6" d="M69,112.77a4.43,4.43,0,0,1,1-.09,8,8,0,0,1,1,0l.2.06.09,0s.09,0,.08,0a.32.32,0,0,0-.13-.22.78.78,0,0,0-.33-.16,2.52,2.52,0,0,0-.71-.09h-.35l-.36,0c-.13,0-.27,0-.4.07l-.21,0-.2,0-.13,0h-.09l-.5.12c-.16.06-.33.11-.49.18a10.53,10.53,0,0,0-1.75,1.14l-.11.09-.2.16-.25.23-.27.29a2.86,2.86,0,0,0-.68,1.19.31.31,0,0,0,0,.12c0,.06.08.17.15.12a.64.64,0,0,0,.17-.19,1.25,1.25,0,0,1,.16-.22c.09-.11.16-.23.25-.35a3.9,3.9,0,0,1,.31-.4l.16-.2.18-.18.16-.16.18-.13.18-.14.19-.12a3.55,3.55,0,0,1,.31-.23,3.78,3.78,0,0,1,.33-.22l.23-.14a6.27,6.27,0,0,1,1.18-.46l.16-.06.16,0Z"/><path class="cls-6" d="M36,116.43a.84.84,0,0,0-.3.15l-.28.24a2.09,2.09,0,0,0-.2.22,2,2,0,0,0-.17.23,9,9,0,0,0-.56,1.18c-.15.35-.3.68-.46,1a6.4,6.4,0,0,1-.43.82c-.05.09-.12.17-.18.26s-.34.37-.52.56a7.75,7.75,0,0,0-.52.62,6.79,6.79,0,0,0-.43.74,9.5,9.5,0,0,0-.5,1.12,3,3,0,0,0-.2,1.22,1.31,1.31,0,0,0,0,.28.36.36,0,0,0,0,.1c0,.06.06.07.09,0a.56.56,0,0,0,.13-.23c0-.1.06-.22.1-.36a6.54,6.54,0,0,1,.19-.73c.08-.25.18-.48.28-.73a7.68,7.68,0,0,1,.41-.81l.1-.12,0,0a.1.1,0,0,1,0,0c.23-.29.48-.57.75-.87a5.88,5.88,0,0,0,.75-1c.21-.37.36-.75.53-1.1l.2-.43c.09-.21.21-.49.35-.75a6,6,0,0,1,.45-.75l.22-.28.09-.11.08-.1a.34.34,0,0,0,0-.14C36.07,116.55,36.1,116.4,36,116.43Z"/><path class="cls-6" d="M17.39,119.25a.31.31,0,0,0-.09.11c0,.06-.1.16,0,.19s.3.08.43.15l.34.18a2.84,2.84,0,0,1,.73.62,5.82,5.82,0,0,1,.49.73l.44.66.15.23c.21.37.42.75.66,1.12a6,6,0,0,0,.46.54,8.23,8.23,0,0,0,.72.73,2,2,0,0,0,.94.45l.22,0h.09s.07,0,.06-.08a.45.45,0,0,0-.15-.16,2,2,0,0,0-.26-.14,4,4,0,0,1-.51-.33c-.16-.13-.31-.27-.47-.42a4.35,4.35,0,0,1-.5-.55L21,123.2v0l0,0-.49-.83-1.1-1.68a4.2,4.2,0,0,0-.72-.87,2.1,2.1,0,0,0-.69-.43A1.08,1.08,0,0,0,17.39,119.25Z"/><path class="cls-6" d="M2.49,121.19a1,1,0,0,0,.14-.29c.06-.13.09-.29.15-.46s.11-.31.16-.47.14-.3.22-.45a7.22,7.22,0,0,1,.54-.86,7.6,7.6,0,0,1,.77-.93l.15-.13,0,0,.06,0c.38-.32.79-.63,1.21-.94a29.89,29.89,0,0,1,2.63-1.74,16.21,16.21,0,0,0,1.45-1,9.36,9.36,0,0,1,1-.67,2.53,2.53,0,0,1,.74-.26.48.48,0,0,0,.14-.09c.06,0,.23-.11.1-.17a.88.88,0,0,0-.46-.09,2.1,2.1,0,0,0-.5.1,2.33,2.33,0,0,0-.68.36c-.24.16-.46.34-.67.51s-.43.33-.65.49c-.41.27-.82.5-1.24.74l-1.07.7-.36.25A16.82,16.82,0,0,0,4.63,117c-.27.26-.52.54-.76.82a8.26,8.26,0,0,0-1,1.29,5.12,5.12,0,0,0-.35.75,3.66,3.66,0,0,0-.16.8c0,.12,0,.24,0,.36a.5.5,0,0,0,0,.13C2.43,121.2,2.46,121.22,2.49,121.19Z"/><path class="cls-6" d="M12.38,130.63c.06,0,.26-.1.11-.18a1.48,1.48,0,0,0-.53-.12,2.37,2.37,0,0,0-.6,0,3.25,3.25,0,0,0-.92.22,5.55,5.55,0,0,0-1,.5c-.3.2-.58.42-.86.64A11.78,11.78,0,0,0,7.27,133a13.85,13.85,0,0,0-1,1.31l-.3.47c-.48.71-.93,1.45-1.4,2.16-.24.39-.46.79-.71,1.16a12.59,12.59,0,0,1-1.22,1.53c-.45.48-.92.94-1.42,1.38l-.35.26-.12.12c-.06.07-.07.11,0,.11a1,1,0,0,0,.41-.12,3.8,3.8,0,0,0,.55-.33,9.47,9.47,0,0,0,1-.88,11,11,0,0,0,.89-1c.32-.42.62-.86.91-1.29l.15-.21,0-.05.06-.09c.37-.52.73-1.08,1.08-1.65a15.73,15.73,0,0,1,2.31-3.17c.06-.06.26-.25.55-.5a8.45,8.45,0,0,1,1.11-.79,5.5,5.5,0,0,1,1.32-.56,4.21,4.21,0,0,1,1-.13Z"/><path class="cls-6" d="M23.16,152.36l-1,.12-1,.07c-.4,0-.8,0-1.2,0l-.19,0h-.13l-1.5-.16a17.09,17.09,0,0,0-3.12-.16,4.58,4.58,0,0,0-.62.09,3.91,3.91,0,0,0-1.07.44,2.89,2.89,0,0,0-.91.86,1.79,1.79,0,0,0-.29.87.53.53,0,0,0,.08.15c.05.06.13.18.19.08a3.55,3.55,0,0,1,.3-.67,3.42,3.42,0,0,1,.39-.48,3.14,3.14,0,0,1,1.26-.77,4.24,4.24,0,0,1,1.33-.13c.4,0,.81,0,1.22,0l.42.05,1,.13c.33,0,.67.08,1,.1s.72,0,1.07,0c.51,0,1,0,1.55-.07a5.77,5.77,0,0,0,1.54-.31l.34-.1a.39.39,0,0,0,.11-.06c.06,0,.08-.08,0-.1A1.68,1.68,0,0,0,23.16,152.36Z"/><path class="cls-6" d="M32.37,137.59a1.5,1.5,0,0,0-.42,0,3.75,3.75,0,0,0-.89.39,4.6,4.6,0,0,0-.69.46,4.79,4.79,0,0,0-.49.52l-.15.18L29,140a5.2,5.2,0,0,1-.38.44c-.37.39-.9.65-1.29,1.08l-.14.12a.13.13,0,0,0,0,.07c0,.05,0,.08,0,.09a.53.53,0,0,0,.46-.1,5,5,0,0,0,.49-.31,5.2,5.2,0,0,0,.47-.35l.5-.48.09-.07,0,0,0,0a5,5,0,0,0,.61-.61,5.41,5.41,0,0,1,1.13-1.2,3.94,3.94,0,0,1,.77-.4,5,5,0,0,1,.57-.16c.18,0,.34-.05.44-.08l.09-.09c0-.06.13-.14.06-.19A1.09,1.09,0,0,0,32.37,137.59Z"/><path class="cls-6" d="M59.71,129.26a2,2,0,0,0-.42-.2,4.77,4.77,0,0,0-1-.21,5,5,0,0,0-1,0,5,5,0,0,0-.78.2l-.26.09c-.41.11-.8.21-1.2.28-.21.05-.43.11-.64.14-.61.11-1.26,0-1.91.12h-.22l-.08,0c-.05,0-.06,0-.05.08a.73.73,0,0,0,.5.2l.65,0c.22,0,.44,0,.66,0s.52-.06.78-.11H55a5.37,5.37,0,0,0,1-.17c.32-.11.62-.22.93-.31a3.14,3.14,0,0,1,.9-.15,4.52,4.52,0,0,1,1,.14,4.38,4.38,0,0,1,.67.21c.2.07.37.14.49.17l.13,0c.05,0,.18-.07.13-.14A1.35,1.35,0,0,0,59.71,129.26Z"/><path class="cls-6" d="M78.87,130s.16-.11.1-.17a1.39,1.39,0,0,0-.49-.23,2.7,2.7,0,0,0-.43-.12,7.48,7.48,0,0,0-1-.11c-.31,0-.61,0-.92,0a4.32,4.32,0,0,0-.8.14l-.27.07c-.43.09-.83.23-1.23.35-.21.08-.41.17-.62.24a4,4,0,0,1-.91.18c-.32,0-.62,0-.94,0l-.21,0a.13.13,0,0,0-.09,0c-.05,0-.08,0-.07.07a.39.39,0,0,0,.17.17,1.12,1.12,0,0,0,.31.11,2.68,2.68,0,0,0,.69.05,3.17,3.17,0,0,0,.68-.09c.26-.06.51-.14.75-.22l.13,0h.08c.31-.07.61-.16.92-.26a7.25,7.25,0,0,1,.91-.26,3.63,3.63,0,0,1,.93-.09c.08,0,.54,0,1,.1s1,.19,1.23.19Z"/><path class="cls-6" d="M71.39,139.8c0-.18-.1-.37-.16-.56l-.23-.66,0-.12v0a.11.11,0,0,1,0-.05c-.06-.28-.14-.56-.23-.84-.2-.56-.43-1.12-.57-1.68,0,0,0-.16-.09-.33a2.73,2.73,0,0,0-.25-.63,1.48,1.48,0,0,0-.25-.31,1.31,1.31,0,0,0-.32-.22.74.74,0,0,0-.57,0,.19.19,0,0,0-.07.12c0,.06-.05.17,0,.19a2.44,2.44,0,0,1,.32.11,1.23,1.23,0,0,1,.25.17,1.46,1.46,0,0,1,.42.67c.09.24.14.51.21.77s.15.45.23.68l.09.23.32,1.1c.07.19.16.38.23.57a8.33,8.33,0,0,0,.59,1.67l.09.17a.12.12,0,0,0,.06.06s.08,0,.09,0a.56.56,0,0,0,0-.48Q71.48,140.09,71.39,139.8Z"/><path class="cls-6" d="M91.21,126.85a.84.84,0,0,1,.13.17,1.05,1.05,0,0,1,.16.26,2.92,2.92,0,0,1,.14.31c.07.2.12.39.17.59l.18.5.07.17q.1.42.18.84c0,.15.09.29.13.44a6.9,6.9,0,0,0,.23,1.32c0,.05,0,.1,0,.15l0,.05s.07,0,.09,0,.13-.19.13-.36,0-.3,0-.45a3.44,3.44,0,0,0,0-.45c0-.18-.06-.36-.1-.53v-.15a3.12,3.12,0,0,0-.11-.67c-.14-.44-.33-.87-.45-1.3a4.66,4.66,0,0,0-.24-.71,1.25,1.25,0,0,0-.33-.49.75.75,0,0,0-.25-.13.33.33,0,0,0-.22,0,.24.24,0,0,0-.06.11.26.26,0,0,0,0,.2l.07.05A.19.19,0,0,1,91.21,126.85Z"/><path class="cls-6" d="M94.43,137.58c-.12,0-.22.17-.34.33a2.94,2.94,0,0,1-.35.44c-.14.14-.28.26-.43.39a5.46,5.46,0,0,1-.55.43l-.11.05h0l0,0c-.26.13-.52.27-.79.43a16.54,16.54,0,0,0-1.53,1.11,3.25,3.25,0,0,0-.7.8,2.07,2.07,0,0,0-.29.69,1.15,1.15,0,0,0,0,.56.39.39,0,0,0,.1.08c.06,0,.16.09.2,0s.07-.3.12-.43a2.79,2.79,0,0,1,.12-.34,2.9,2.9,0,0,1,.44-.76,3.36,3.36,0,0,1,.61-.52c.18-.14.37-.29.57-.43l.21-.14,1-.59c.18-.12.35-.26.52-.39a8,8,0,0,0,.73-.6,1.76,1.76,0,0,0,.51-.82,1.17,1.17,0,0,0,.06-.2s0-.06,0-.08S94.46,137.57,94.43,137.58Z"/><path class="cls-6" d="M80.42,147.86l.08-.08s.11-.12.09-.17-.12-.12-.18-.16a.62.62,0,0,0-.17-.11l-.21-.11a1.32,1.32,0,0,1-.2-.12,2.06,2.06,0,0,1-.29-.3l-.27-.23-.1-.09c-.06-.07-.11-.15-.17-.23a2.13,2.13,0,0,1-.16-.25c-.06-.08-.14-.15-.2-.24a1.24,1.24,0,0,1-.1-.2,1.43,1.43,0,0,1-.08-.22,1.53,1.53,0,0,0-.23-.41l-.06-.09,0,0a.07.07,0,0,0-.09,0,.27.27,0,0,0-.08.28,3,3,0,0,0,.09.32,1.24,1.24,0,0,0,.12.32l.2.34,0,.06h0a0,0,0,0,1,0,0,1.59,1.59,0,0,0,.26.43c.23.25.5.46.72.69l.14.13a2.28,2.28,0,0,0,.28.22A1,1,0,0,0,80.42,147.86Z"/><path class="cls-6" d="M102.11,148.67l-.62.16c-.2,0-.41.1-.62.17l-.72.24-.12,0H100a6.41,6.41,0,0,0-.93.25,13.88,13.88,0,0,0-1.79.83,4.32,4.32,0,0,0-.91.61,3.42,3.42,0,0,0-.51.58,1.47,1.47,0,0,0-.23.52.34.34,0,0,0,.06.12c0,.05.09.16.15.12a2.33,2.33,0,0,0,.31-.38l.26-.3a4.32,4.32,0,0,1,.7-.65,4.42,4.42,0,0,1,.74-.4c.22-.12.45-.23.68-.33l.24-.11c.39-.13.78-.25,1.18-.36l.63-.24a9.45,9.45,0,0,0,1.83-.63l.19-.09s0,0,.07-.06,0-.07,0-.09A.7.7,0,0,0,102.11,148.67Z"/><path class="cls-6" d="M85.6,157.07a.58.58,0,0,0-.23,0,1.49,1.49,0,0,0-.25.07l-.19.07a1,1,0,0,0-.17.1,4,4,0,0,0-.7.58c-.19.19-.38.35-.56.53l-.41.51-.15.17a4.8,4.8,0,0,1-.77.66c-.14.11-.28.23-.43.33a4.22,4.22,0,0,1-.71.34,4.83,4.83,0,0,0-.75.32l-.17.07s0,0,0,.05,0,.07,0,.09a.52.52,0,0,0,.46.06l.54-.15a3,3,0,0,0,.53-.22,4.08,4.08,0,0,0,.57-.34l.1-.05h0l0,0a3.21,3.21,0,0,0,.68-.5c.41-.41.71-.88,1.09-1.24.06-.05.33-.32.65-.56a3.26,3.26,0,0,1,.47-.32l.11-.07.1,0,.16-.1a.56.56,0,0,0,0-.12C85.62,157.21,85.68,157.09,85.6,157.07Z"/><path class="cls-6" d="M44.26,153.24c-.06-.14-.11-.28-.17-.43a5,5,0,0,1-.17-.55v-.16a4.14,4.14,0,0,0-.17-.74,13.84,13.84,0,0,0-.67-1.4,3.14,3.14,0,0,0-.49-.71,2.43,2.43,0,0,0-.47-.39,1,1,0,0,0-.25-.11.36.36,0,0,0-.25,0,.15.15,0,0,0-.05.12.19.19,0,0,0,0,.1l0,0s0,0,0,0,0,0,0,0h0l0,0,0,0,0,0a.52.52,0,0,0,.11.1l.12.1a2.79,2.79,0,0,1,.52.51,3.86,3.86,0,0,1,.3.57c.09.17.19.34.27.52a1.42,1.42,0,0,0,.08.18c.1.3.19.61.26.92.05.15.12.32.17.49s.14.48.25.73a1.75,1.75,0,0,0,.2.35,1,1,0,0,0,.32.26l.16.09h.07c.05,0,.07,0,.07-.06a.53.53,0,0,0-.17-.33A2.26,2.26,0,0,1,44.26,153.24Z"/><path class="cls-6" d="M6.58,171.46a2.15,2.15,0,0,0-.55.4,2.68,2.68,0,0,0-.45.5,6.31,6.31,0,0,0-.4.65l-.08.11v0l0,0a5,5,0,0,0-.46.85,16.22,16.22,0,0,0-.53,1.86,6.85,6.85,0,0,0-.2,1A3,3,0,0,0,4,178.2a.3.3,0,0,0,.11.07c.05,0,.16.1.19,0a1.83,1.83,0,0,0,.06-.49l0-.41a6.2,6.2,0,0,1,.07-1,5.8,5.8,0,0,1,.21-.82c0-.23.11-.48.18-.72l.08-.24a8.92,8.92,0,0,1,.5-1.09,2.55,2.55,0,0,0,.13-.29l.15-.28a3.44,3.44,0,0,1,.55-.72,7.69,7.69,0,0,1,.66-.61l.18-.11a.15.15,0,0,0,.06-.05c0-.05,0-.08,0-.1A.59.59,0,0,0,6.58,171.46Z"/></g></g></svg>